<svg id="Layer_1" data-name="Layer 1" xmlns="http://www.w3.org/2000/svg" viewBox="0 0 1080 1080"><defs><style>.cls-1{fill:#a8cf38;}</style></defs><path id="Path_1416" data-name="Path 1416" class="cls-1" d="M604.26,614.8a2.38,2.38,0,0,1-.83-2.36c.37-1.32-.25-1.37-1.25-.93-1.82.8-3.92,1-5.45,2.39-.63-.06-1.3.08-1.87-.37-1.1-1.19-.77-2.11.55-2.72,2.44-1.11,4.88-2.26,7.39-3.19,1.63-.6,1.33-1.1.24-2-.83-.67-2.11-.9-2.63-1.6a7.92,7.92,0,0,0-4.48-3,1.87,1.87,0,0,0-2.14-.74l-6.71,1.27c-4,.86-8.1.62-12.06,1.62-8.35,2.08-16.81,3.79-24.55,7.68a5.24,5.24,0,0,1-2.74.68c-.71-.05-1.67.06-1.68-1s.07-1.85,1.44-2c7.13-.71,13-4.7,19.59-7,1.46-1.12,3.35-1.21,5-2,4.38-1.79,9.19-1.41,13.71-2.47,1-.22,2.82.28,2.66-.95s-1.91-.79-3-.69c-3,.25-5.77,1.25-8.95,1-6.29-.52-12.4,1.17-18.49,2.52a2.89,2.89,0,0,0-1.68.34c-.63.07-1.32,0-1.82.46l-.15,0c-4.16.44-8,1.9-12,2.92a49.45,49.45,0,0,0-9.63,3.12l-1.82.69c-2.25.61-4.48,1.36-6.89,1.06l-4,.31c-.54-.88-1.35-.82-2.17-.63C511,608.86,505,612,498.94,615.2a2.75,2.75,0,0,0-.56.57c-.83.77-2.06,1.27-1.88,2.75-.95,0-1,1.13-2.36,1.52,1.58-3.51,4.13-5.59,6.81-7.6-2.34.48-4.67.84-6.55,2.18a5.47,5.47,0,0,1-5.34.81h0c-.68-.67-1.39-.31-2.09-.1-2.79.83-5.53,2-8.38,2.39a25.36,25.36,0,0,0-9,3.41l-.46.17a13.49,13.49,0,0,0-4.6,3.08c-.79.7-1.63,1-2.21,0-1-1.65-2.2-1.06-3.45-.61l-4.55,1.34c-1.1.23-2.23.39-3.3.72-1.63.51-3.22.82-4.82-.11l0,0-.27-1.59h0l.18-.45a.11.11,0,0,0,.09-.14,0,0,0,0,0,0,0,4.48,4.48,0,0,0,1.53-2.31l0,0a1,1,0,0,0,.94-.66l.13-.07a1.28,1.28,0,0,0,1.15-.82,10.78,10.78,0,0,0,3.42-2.24,43.54,43.54,0,0,1,4.37-2.45c3-1.27,6-2.41,9.05-3.49.87-.31,1.52-1.47,2.53-1,1.79.88,2.09-.38,2.11-1.47a6.6,6.6,0,0,1,2.35-4.74c.37-.35,1.06-.55.54-1.26-.41-.56-.94-.39-1.47-.19L466,605.41c-6.14,2.29-11.61,5.89-17.52,8.64l-2.85.24-1.44-1.07c.05-.86-.4-1.87.65-2.45,2-1.44,3.33-3.64,5.52-4.9,2.19.7,1.37-1.55,2.07-2.3s.36-2-1.25-2.08a5.18,5.18,0,0,0-3.69,1.35c-.9.75-1.66,1.78-3,1.71-1.9-.24-3.93-.42-4.66-2.58-.53-1.6-1.22-1.33-2.16-.58-.57.46-1.12,1-1.68,1.42l-.72.28a11.49,11.49,0,0,1-3.23.53l-.79-.32-.48-.45-.43-1.05c.27-2,.88-3.57,3.34-3.77.9-.07,1.84-1.24,1.08-2.09-1.53-1.72-1.67-1.59-1.81-2.67a20.57,20.57,0,0,0,2.57-.43c.35-.1,1.31-.59.56-1s-.65-.62-.6-1.17a1.13,1.13,0,0,0-.91-1.32,1.27,1.27,0,0,0-.28,0,19.39,19.39,0,0,0-2-.13,1.91,1.91,0,0,1-1.84-1.06c-.41-.79.28-1.25.73-1.71s1.09-1,1.64-1.43v0a2.77,2.77,0,0,0,1.47-1l.6-.33c2.1-1.37,4.65-2,6.4-4,.5,0,1.06,0,1.15.6s-.42,1-.94,1.17a6.73,6.73,0,0,0-3,2c-.28.31-.58.65-.31,1.06s.61.19.93.07c2-.76,4.07-1.31,5.24-3.4.4,1.28-.83,1.68-1.34,2.76,2.33-.84,2.58-2.39,2.28-4.21s-1.84-1.64-3-1.71c-1.76-.09-3.5.55-5.29.2a.38.38,0,0,0-.22-.27c-.34-2.16.39-4,1.71-4.42a25.52,25.52,0,0,0,6.86-2.82c1-.67,2.23-1.36,3.61-.61,1.68.92,1.83,0,1.76-1.38s-1-1.52-1.94-1.72c-3.29-.7-6.29.2-9.18,1.6a35.91,35.91,0,0,0-13.65,3.7,17.07,17.07,0,0,0-7,4c-1.05.28-1.8,2.4-2.87,1.09-.68-.83,1.15-1.64,1.93-2.35a37.86,37.86,0,0,1,8.06-5.9c2.77-1.07,5.69-1.8,8.27-3.32.77-.46,1.8-1.14,1.51-1.9s-1.61-.8-2.58-.69a1.1,1.1,0,0,0-.39.12c-2.75,1.43-5.7,2.46-8.28,4.22l-.36.16c-1.42.47-3,.76-3.8-.8s.77-2.5,1.89-3.33a20.28,20.28,0,0,0,3.27-2.65,8,8,0,0,1,.84-.81c.64-.5,1.78-.68,1.65-1.71s-1.4-.2-1.87-.87c-1.64-2.48,1.6-2.65,2.09-4.16-1-.4-2.09.63-2.6-.74-.44-1.17.51-1.69,1.07-2.39a1.62,1.62,0,0,0,.1-.18c.65-.32,1.22-.85.81-1.57-.55-1-1.18,0-1.71.17-2.46.72-4.43,3-7.38,2.13-.43-1.12.38-1.64,1.14-2.4-1.2,1-2.39-.44-3.5.24l-.8.07h-.43c-1.09-1.43-2.46-.46-3.71-.5l-.56-.71,0,0c-.11-1.19-1-.92-1.47-.58a31.5,31.5,0,0,1-9.13,4.08,2.48,2.48,0,0,0-1.54,1.46c-1.07,1.45.09,1.74,1.1,1.8a9,9,0,0,0,3.56-.52c.56-.2,1.19-.53,1.29.51h0a1.29,1.29,0,0,0-1.06.58l-.5.15c-.23,0-.38,0-.42.27v0c-1.16.3-2.3.65-3.48.87-2.46.47-3.25-.11-3.74-2.61.4-1.27,1.41-2.12,2.15-3.16a1.1,1.1,0,0,0,1-.89.12.12,0,0,0,.14-.09v0l.25-.3.1-.13a1.85,1.85,0,0,0,1-1.23l.11-.05c1.75-.48,1.95-.88,1-2l-.09,0c-.54-1-1.27-1.07-2.2-.55-.56.31-1.42,1-1.79.31-.46-.83.65-1.22,1.22-1.51,2.21-1.11,4.27-2.55,6.69-3.24.47-.13,1-.26.9-.85s-.82-.31-1.2-.21c-1.24.34-2.45.76-3.67,1.16-.41.14-.83.71-1.22.08s.19-.83.53-1.16a26.31,26.31,0,0,1,7-5l4.25-1.73c.45-.17,1-.29.93-.9s-.54-.71-.95-1c-2.35-1.45-4.8-1-7.26-.64a1.34,1.34,0,0,0-1.18-.23l-1.25.12a.83.83,0,0,0-.86.35l-.66.21-.46.24-3.93.42c-1-2.18.11-4.67,2.69-5.86a40.2,40.2,0,0,0,5.8-3.25,2.78,2.78,0,0,1,3.1.14c1.23.75.33,1.43-.35,1.8-1.43.77-2.94,1.39-4.4,2.08-1.23.57-2.44,1.17-3.66,1.76-.44.21-1,.5-.86,1,.14.69.79.35,1.2.32a5.22,5.22,0,0,0,3.72-1.65,20.81,20.81,0,0,1,4.3-3c.6-.38,1.4-.47,1.21-1.55a4.14,4.14,0,0,0-1.47-2.68c-.44-.33-1.49-.23-1.46-.82a3.24,3.24,0,0,1,1-2.31c1-.72,1.75-2,3.12-2.15s1-1.24.94-2c-.11-1.08-.94-1-1.71-.86-.27,0-.52.26-.77.24-.74,0-1.67,1.1-2.15,0a2.17,2.17,0,0,1,1.11-2.59c.55-.38,1.27-.5,1.64-1.14l2.68-1.25c1.6-.18,2.77-1.3,4.18-1.91,4.51-1.93,8.9-4.15,13.33-6.25l.52-.25c2.28-.91,4.55-1.89,6.86-2.72a4.62,4.62,0,0,0,2.77-2.12l.46-.19a.62.62,0,0,0,.74-.34h0a11.85,11.85,0,0,0,4.77-2l-2.72,0c.44-1.54,2.13-1,2.74-2-1.79-.25-3.38,1-5.58.63,2.61-1.71,5.42-2.09,7.78-3.47-2.59-.23-4.89,1.39-7.74,1.12,2.75-2.06,6-2.29,8.72-3.66,4.09-1.57,8.42-2.61,12.24-5.36a4.16,4.16,0,0,1-3.59-3.71,21.53,21.53,0,0,1,.41-2.38c.47-1.67-.31-2-1.66-1.55-2,.64-3.9,1.38-5.85,2.07a20.41,20.41,0,0,0-5.1,1.76,1.85,1.85,0,0,0-1.55.58l-.43.13a6.31,6.31,0,0,0-2.83,1,7.47,7.47,0,0,0-3.1,1.15c-2.31.36-4.2,2.18-6.71,1.87l-.19-.77.41-.71c1.48-.88,3.3-1,4.67-2.15a25.74,25.74,0,0,0,9.68-2.62c2.13-.83,4.68-.86,6.15-3,2.45,1.15,4.21-1,6.39-1.13-2.18.15-4.19,1.13-6.4,1.14a3.5,3.5,0,0,1,1.88-1c1.74-.63,3.5-1.18,5.25-1.76a4.52,4.52,0,0,0,2.64-.92c2-1.55,4.48-1.73,6.88-2.12a94.91,94.91,0,0,0,15.84-4.07c2.29-.79,4.06-2.18,6.63-1,.63.29,1.59-.14,2.39-.24l.42-.05c4.62-1.06,9.38-1.35,14-2.43a45.69,45.69,0,0,1,10.7-.81c2.31,0,4-1.44,6.15-1.63,3.85-.34,7.68.33,11.51.75l.72.08c3,.52,5.94.95,8.6-.92a1,1,0,0,1,1.11-.13c1.22.74,2.49.31,3.74.23l0,0c.12.24.31.24.52.15a9.88,9.88,0,0,0,3.3-.13c.73.12,1.5-.49,2.6.27l-8.92.86c4.26,2.54,16.54,2.65,19,0-2.12-.3-4.07-1.15-6-1.3a19.62,19.62,0,0,1-5.66-1.27h0c2.93-.75,5.83-.22,8.73.3a3.55,3.55,0,0,0,1.17-.2l2,0c2.35.32,4.69.69,7.05.95A2.51,2.51,0,0,1,575.7,457v.1c.11,1.56-1,1.66-2.12,1.87-.78.16-1.55.38-2.88.7,1.93.73,3.33,1.45,4.92.59a3.18,3.18,0,0,1,2.13-.47c2.86.49,5.63-.46,8.46-.39l6.47.35c2.53.56,5.14,1,7.12,2.91.51.52,1.32,1,.93,1.87s-1.37.78-2.15.62c-3.49-.71-7-1.06-10.49-2-1-.27-2.89-1.09-3.23.38s1.7,1.11,2.62,1.68c1.11.7,3.1,0,3.31,2.28,0,.51,1.21.55,1.86.52,3.9-.16,7.75.58,11.62.87,3.13.23,6.09,1.59,9.25,1.84a9.85,9.85,0,0,0,3.25,0,14.3,14.3,0,0,1,6.54,3.26c1.58.63,3.19.15,4.77.09a16.88,16.88,0,0,1,7.78,1.3,18.52,18.52,0,0,0,6.76,1.47,3.91,3.91,0,0,0,2,0c1.81.47,4-.12,5.2,2a17,17,0,0,0-.13,2,2.11,2.11,0,0,1-1.78,2.32c-.47.14-1.27,0-1.2.75s.83.58,1.29.82a18.64,18.64,0,0,0,6.88,1.63c1.09.11,2,.36,2.21,1.67a2.7,2.7,0,0,1-2.87,1.1c-4-.39-7.82.73-11.75.95-.6,0-1.66-.1-1.63.76,0,1.06,1.16.64,1.82.8,1.44.35,3.28-1.56,4.36.87,0,.06.25,0,.39,0,2.44,0,4.89.58,7.33.17l2.84-.07c1.82.13,3.75,0,4.38,2.39.81.92,1.17,1.89.31,3-1.25.53-2.72.23-3.92.95l-2.83.38a10.7,10.7,0,0,0-4.76,1c1.34,1.11,3.09.29,4.38,1.31-7.09.53-14.24-.33-21.62.55a5.53,5.53,0,0,0,3.36,1.17c5.79-.1,11.58-.12,17.37.17,1.69.09,3.39.59,5.08.11a4.17,4.17,0,0,0,2.83-.18.53.53,0,0,0,.43-.62s0,0,0-.06h0c.66-1,1.79-1.85,2.52-.66,1.39,2.27,3.44,2,5.44,2.22l3.3.67c1.21,1.44.56,2.14-1,2.46-.64.14-1.3.23-2,.35a27.23,27.23,0,0,0-5.26.38c-.21-.27-.38-.56-.77-.62-2.33-.36-4.56-.4-7-1.3-3.71-1.4-8-1.43-12.1-1.08a2.27,2.27,0,0,0-1.9.95.41.41,0,0,0-.35.12c-1.2.49-.94,1.54-.57,2.3,1.19,2.43,7.51,4,9.78,2.52.71.14,1.51,0,1.8,1s1.06,1,1.81,1.09l3.31,1.49c.37,1.4.49,2.71-1.17,3.39a.34.34,0,0,0-.41.23.22.22,0,0,0,0,.08l0,0-.44.41,0,0c-.41,1,.22,1.94.2,2.91a.13.13,0,0,0-.07.16v0a.92.92,0,0,0-.63.77,7.66,7.66,0,0,1-6.24.07c-2.94-1.63-3.46-1.6-5.2.83a3.28,3.28,0,0,1-3.82,1.54,2.6,2.6,0,0,0-1.8.14c-.48.24-1,.51-.92,1.18s.6.71,1.07.8a7.46,7.46,0,0,0,1.62.19c3.87-.16,7.77-.12,11.54-1.1a6,6,0,0,1,3.62,0,1.08,1.08,0,0,0,1.25.81c2.44-.51,5-.24,7.43-.56h1.66a1.21,1.21,0,0,0,1.2.13,32.72,32.72,0,0,1,3.84.64c2.24.65,2.63,2.37,1,4a7.86,7.86,0,0,1-3,1.56c-3.2,1.15-3.89,1.52-5.05,2.81,2.26-.13,4.32,0,6.31-.73.64-.23,1.3-.48,1.92.11s0,1.12-.06,1.68c-1.14.14-2.28.37-3.43.41-6.34.21-12.64.67-18.92,1.42a6.45,6.45,0,0,0-3.33,1.05,4.05,4.05,0,0,0,.92.43c3.57.46,7.12,1.46,10.75.62,1.51-.34,3.1.24,3.1,1.82,0,2.26,1.26,1.92,2.58,1.85.82,0,1.63-.13,2.45-.16s1.87.1,2,1.28a1.71,1.71,0,0,1-1.39,2l-.19,0c-1.21.18-2.43.27-3.65.38-2.79.26-5.55.6-7.82,2.44l-.41.13c-2.45.43-2.88,1.05-2.33,3.36a21.4,21.4,0,0,1,.53,2.6,1.79,1.79,0,0,0,1.7,1.86h10.86l2.87-.2a6.9,6.9,0,0,0,3.59.54c1.25-.17,2.4.23,2.29,1.84-.06,1,.34,1.48,1.2,1.55a1.28,1.28,0,0,1,1.27.85,2.53,2.53,0,0,0,2.91,2,1.56,1.56,0,0,1,1.62,1.32c.17.79-.41,1.24-.94,1.66a3.53,3.53,0,0,1-2.12.58c-2.44.14-4.88.25-7.31.37l-1.27,0a42.42,42.42,0,0,0-7.39-.07l-1.26.09a1.2,1.2,0,0,0-1.2.43l-4.41.83c-3.73.11-7.31,1.32-11.08,1.16-.53,0-1.56-.34-1.44.83.11,1,.91,1.09,1.7,1.07l18.13-.45,6.12.32,10.81.26.57.2c.39.66,1.33,1.14.76,2.12a2.32,2.32,0,0,1-2.25,1.07c-1.83,0-3.66,0-5.49,0-.78,0-1.61-.09-1.61,1s.76,1.26,1.68,1.35a42.26,42.26,0,0,0,8.11.31,5.44,5.44,0,0,1,1.61.1c1.12.26,2.17.74,2.16,2.09s-1.14,1.64-2.29,1.69c-.27,0-.53.08-.8.11a39.11,39.11,0,0,0-8.43-1,3.12,3.12,0,0,0-2-.19h-.05a40.21,40.21,0,0,0-7.83-.41l-.4-.07a6.24,6.24,0,0,0-3.77-.27l-1.77,0c-.76-.62-2.66.5-2.45-1.71,0-.49-.88-.4-1.42-.46-1.57-.17-2,1.27-2.9,2a3.34,3.34,0,0,0-.3,4.7,3.37,3.37,0,0,0,1.26.89,21.7,21.7,0,0,0,5.17,1.55l1.06.56c3.11,1.52,3.35,3.19.77,5.44a1,1,0,0,0-1.17.16,29.44,29.44,0,0,1-7.11,1.67c-.57,0-1.26.08-1.5.82-.08,1.79-1.7,2.47-2.6,3.67-1.19,1.61-2.76,1.9-4.75,1.81a52.39,52.39,0,0,0-7.08.57c-.91.08-1.92.41-2.28-1a1.05,1.05,0,0,0-.82-.48c-2.68,0-5.4-.4-8,.38-.82,0-1.64.09-2.45.11a2.05,2.05,0,0,1-2.11-1.3c-.34-.89.67-1,1.16-1.41s1.17-.67,1.72-1.06c.88-.63.84-1.17-.26-1.53-.33-.47-.83-.38-1.3-.42-6-.47-11.56,1.65-17.33,2.54l-2,.34-4.56.78a18.3,18.3,0,0,0,4.57,3.33c2.92,3,2.92,3,6.65,1.21.31-.14.6-.31.9-.46l4.76-1.76,1.2-.07c.47,1-.43,1.18-1,1.45-2.24,1.11-4.51,2.13-6.74,3.26-.55.29-1.78.21-1.33,1.31s1.42.74,2.15.42c2.75-1.18,5.72-1.61,8.54-2.52.21-.07.43-.12.83-.23l-.71.76-8.45,2.57-.11.58c1.72.11,1.48,3.06,3.85,2.25.41,1.23-.33,1.78-1.21,2.41-1.83,1.31-4,.32-5.86.79C605.34,615.45,605,614.63,604.26,614.8Zm57.61-39.48a8.08,8.08,0,0,0,4.89-.11c0-.17,0-.35,0-.52l-2.89-.34a10.63,10.63,0,0,0-4.59-.29c-4.27.28-8.63-.71-13.28.72a14.72,14.72,0,0,0,5.7.78,82.51,82.51,0,0,0,10.19-.24ZM638.47,500c-2.58-1.3-5.21-.69-8.36-.61C633.21,501,635.84,500.23,638.47,500ZM466.77,614a.52.52,0,0,0-.66-.34l-.12,0c-.93.5-2.1.5-2.86,1.34-.34.37-1,.65-.63,1.26s1,.38,1.42,0a6.82,6.82,0,0,1,1.94-1A2,2,0,0,0,466.77,614Zm137-3.95c.05.54.18,1,.57.75.77-.53,2.18-.16,2.32-1.49,0-.39-.45-1.05-.95-.84-.83.33-1.86.57-1.94,1.58ZM416.42,543.91c2.09-.49,3.11-1.87,4.57-2.49A6.65,6.65,0,0,0,416.42,543.91Zm60.17,62.94c.62-.19,1-.55.93-1.3-.06-.41-.15-.91-.68-.77s-.81.84-.88,1.44c0,.39.2.62.62.63Zm6.47-103.19c-.75.95-1.16,1.89,0,3C483.61,505.54,482.88,504.58,483.06,503.66ZM437,591a3.11,3.11,0,0,0,0-.61c0-.06-.17-.09-.26-.14a5.44,5.44,0,0,0,0,.57C436.73,590.86,436.88,590.91,437,591Z"/></svg>