<svg id="Layer_1" data-name="Layer 1" xmlns="http://www.w3.org/2000/svg" viewBox="0 0 1080 1080"><path d="M438.83,539.64V385.42c0-18.77,12.67-31.44,31.43-31.44H611c18.78,0,31.44,12.65,31.44,31.43q0,154.21,0,308.44c0,18.77-12.67,31.44-31.44,31.45H470.28c-18.77,0-31.44-12.68-31.45-31.44ZM588.94,713.35h20.28c14.44,0,21.31-6.87,21.31-21.31V387.38c0-1.12,0-2.25,0-3.37-.3-9.05-6-16.07-14.84-17.6-6.92-1.2-13.46-1.27-19.33,4.44-6.31,6.15-13.62,11.3-20.69,16.63a11.51,11.51,0,0,1-6.38,2.3q-28.63.27-57.27,0a10.8,10.8,0,0,1-6.07-2.12c-7.54-5.74-15-11.57-22.22-17.73a16.37,16.37,0,0,0-11.8-4.11c-14.17.27-21.13,7.05-21.13,21.21v305c0,1.25,0,2.5,0,3.74.41,8,5.67,15.76,13.18,16.55,9.42,1,19,.24,28.75.24,0-1.52,0-3.25,0-5,.07-10.49,7.71-18.2,18.16-18.22q30-.06,59.9,0a17.19,17.19,0,0,1,17,13.1C588.66,705.83,588.56,709.38,588.94,713.35ZM498.21,366.13c4.58,3.68,8.43,6.94,12.48,9.91a9.17,9.17,0,0,0,5,1.81c16.69.14,33.38.09,50.07.06,1.08,0,2.44,0,3.2-.53,4.58-3.48,9-7.14,14.15-11.25ZM576.6,713.2c0-2.08.1-3.81,0-5.54-.25-3.89-2.54-6.26-6.49-6.28q-29.39-.11-58.78,0c-4.13,0-6.39,2.43-6.59,6.57-.08,1.69,0,3.4,0,5.25Z"/></svg>