<svg id="Layer_1" data-name="Layer 1" xmlns="http://www.w3.org/2000/svg" viewBox="0 0 1080 1080"><defs><style>.cls-1{fill:none;stroke:#000;stroke-miterlimit:10;stroke-width:2.83px;}</style></defs><path class="cls-1" d="M482.91,451.81c4,1,6.72,3.63,9.49,6.41q35.91,36,71.91,71.92c3.84,3.85,5.48,8.31,3.57,13.54a14.59,14.59,0,0,1-3.33,5.1Q527.34,586.15,490,623.39c-6.56,6.54-16.46,5-20.3-3.11a11.69,11.69,0,0,1,1.3-12.47,21.1,21.1,0,0,1,2.29-2.54q32-32,64-64c.48-.49,1-.89,1.71-1.45-.64-.66-1.08-1.15-1.55-1.62Q505.22,505.92,473,473.67c-3.84-3.83-5.49-8.22-3.73-13.53a11.91,11.91,0,0,1,7.55-7.63c.57-.21,1.12-.47,1.68-.7Z"/></svg>