<svg id="Layer_1" data-name="Layer 1" xmlns="http://www.w3.org/2000/svg" viewBox="0 0 1080 1080"><defs><style>.cls-1{fill:#9dfc00;}.cls-2{fill:#c3c3c3;}.cls-3{fill:#999;}.cls-4{fill:#818181;}.cls-5{fill:#797979;}.cls-6{fill:#b2b2b2;}.cls-7{fill:#aaa;}.cls-8{fill:#666;}.cls-9{fill:#5b5b5b;}.cls-10{fill:#494948;}.cls-11{fill:#707070;}.cls-12{fill:#606060;}.cls-13{fill:#505050;}.cls-14{fill:#8d8d8d;}.cls-15{fill:#a3a3a2;}</style></defs><path class="cls-1" d="M666.07,490.28c-.64,2.93,1,5.51,1.24,8.33.24,3.34,1.4,6.53,1.75,9.9.31,3,1.18,6,1.65,9,1,6.17,1.81,12.38,3.1,18.46.86,4.07,1.14,8.23,2.17,12.28.88,3.42,1.18,7,1.88,10.48,1,5.06,1.85,10.16,2.73,15.25.42,2.4.56,4.87,1.18,7.21,1.29,4.82,1.57,9.74,1.9,14.67a40.34,40.34,0,0,1-.77,9.63,43.3,43.3,0,0,1-6.13,15.61c-1.75,2.81-4,5.32-6,8-3.91,5.11-9.17,8.28-14.56,11.3A42.41,42.41,0,0,1,641,645c-2.85.39-5.61,1.39-8.45,1.9-7.94,1.4-15.91,2.69-23.87,4-8.51,1.43-17,2.87-25.54,4.25a2.74,2.74,0,0,0-2.25,1.83c-3.52,7.77-6.56,15.74-9.78,23.63-1.6,3.92-3.19,7.85-4.7,11.8-.87,2.31-1.39,4.75-2.81,6.84-2.83,4.15-7.14,4.73-10.64,1.16-4.38-4.47-8.54-9.15-12.88-13.66q-8.76-9.12-17.69-18.09c-.84-.85-1.6-2.39-2.75-2.24-1.39.17-2.81.09-4.17.36-5.06,1-10.19,1.63-15.24,2.59-4.8.92-9.67,1.48-14.44,2.52s-9.87,1.71-14.82,2.51a59.11,59.11,0,0,1-13.27.82A47.84,47.84,0,0,1,436,668.66c-7.67-4.55-13.46-10.79-18.33-18.06-2.64-4-5.58-7.73-7.84-11.89A45.5,45.5,0,0,1,405,624.8c-1.33-7.56-2-15.26-3.62-22.75-.85-3.87-1.62-7.8-2.16-11.66-.74-5.24-3.21-10.13-2.92-15.59.07-1.44-.84-3-1-4.56-.15-1.35-.61-2.62-.21-4a2.87,2.87,0,0,0-.61-2.57,5.11,5.11,0,0,1-1.05-3.11c0-2.79-1.06-5.4-1.37-8.12-.25-2.21-1.22-4.25-1.22-6.5,0-1.74-1.26-3.16-1.31-5-.11-3.67-1.14-7.22-1.08-11,0-2.57-.91-5.39-1.05-8.18a46.08,46.08,0,0,1,.11-9.47c.46-2.87.77-5.78,2-8.51a92.92,92.92,0,0,1,6.76-13.31,41.48,41.48,0,0,1,8-8.86,34.42,34.42,0,0,1,6.8-4.94,62.49,62.49,0,0,1,9.14-4.31c4.8-1.53,9.58-3.14,14.5-4.22,1.58-.34,2.18-.9,1.5-2.61A44.45,44.45,0,0,1,433,454.84c-.56-4.33-1.25-8.75.43-13a6.33,6.33,0,0,0,.11-1.91c0-.58.08-1.12.9-1,0,1.89,0,3.79,0,5.69,0,.55-.06,1.1-.08,1.66l0,0a4.94,4.94,0,0,0,0,4.43,30.93,30.93,0,0,0,3.76,14c1,2.52,2.61,4.77,3.05,7.51a2.29,2.29,0,0,0-.37.12c-.7.32-.42,1-.48,1.49a56.36,56.36,0,0,0,0,10.31,77.37,77.37,0,0,0,1,9,131.68,131.68,0,0,0,4.1,16.93c1.38,4.18,2.5,8.47,4.69,12.34a20.09,20.09,0,0,0,3.36,7.21l.11.79.37.55c2.07,4.45,4,9,7.26,12.74h0a3.38,3.38,0,0,0,.85,1.89c1.57,2.23,3.08,4.5,4.73,6.68,2.45,3.23,4.68,6.65,7.66,9.45a.44.44,0,0,0,.06.3l.39.57,4.69,5.12a31.21,31.21,0,0,0,7.57,7.51,31.07,31.07,0,0,0,4.79,4.87c2.3,2,4.57,4,6.9,5.93s4.25,3.82,6.8,5.15a103.9,103.9,0,0,0,11.51,7.64,115.18,115.18,0,0,0,18.06,9.42A83.23,83.23,0,0,0,553.62,614c7.2,1.22,14.26,2.94,21.78,1.68q7.29-1.22,14.54-2.7a4.31,4.31,0,0,1,2.51.13,84,84,0,0,0,9.06,2.67c6.61,1.77,12.78.31,19-1.84,4.71-1.63,8.39-4.79,12.2-7.78,2.15-1.56,4.51-2.85,6.32-4.85l1.77-2c2.2-1.5,2.22-4.08,2.89-6.24.94-3.08-.59-6.05-1.4-8.9a36.71,36.71,0,0,0-5-10.57l-.36-.46h0A101,101,0,0,0,619,549.69c0-.14,0-.33-.1-.41-7.22-6.65-14.34-13.41-23.36-17.68-5.8-2.74-11.55-4-17.28.15-2.84,1.52-4.71,4.09-6.86,6.35-.29,0-.65-.07-.84.08-4,3-7.67,6.37-9.86,11-1.29,1.84-1.73,4.37-4.26,5.2a49.2,49.2,0,0,1-8,4.48c-.76.38-1.88.22-2.18,1.36l-5.15,1.26-.77.11-1.69.16c-5.39.05-10.29-2.06-15.15-3.9-4.42-1.68-8.23-4.62-11.84-7.73-1.26-1.09-2.34-2.44-4-3.06a1.49,1.49,0,0,0-1.09-1.29l-.65-.43a1.33,1.33,0,0,0-1.06-1.28l-.67-.85a78.8,78.8,0,0,1-9.8-13.16,41,41,0,0,1-4.53-12.3c-.58-2.61-.13-5.21-.38-7.81a.38.38,0,0,0,.05-.31c.68-.66.41-1.48.4-2.26a.2.2,0,0,0,0-.25l.39-.6a11.71,11.71,0,0,0,1-2.54c.74-2.06,1.57-4.29,4.13-4.63a34.8,34.8,0,0,0,16.84-6.81c2.5-1.9,5-3.86,6.45-6.84h.13l.08-.1.49-.4c.47-.1.46-.54.6-.87a22,22,0,0,0,5.71-5.6l1.79-2.47c1.56-2.87,2.62-5.83,1.61-9.17A36,36,0,0,0,524.5,457l-.36-.5-.49-.78-.36-.46,0,0c0-.36,0-.75-.45-.91a.89.89,0,0,0-.07-.36l-.36-.46,0,0-.45-.45,0,0-.44-.45,0,0-.45-.5a.67.67,0,0,0-.07-.34l-.36-.47,0,0-.45-.44h0c-.6-1.72-2-2.84-3.09-4.21l.06-1.19A12.57,12.57,0,0,1,521,449c2.17,2.73,5.41,2.8,8.29,3.32,2,.35,4.17-.7,6.28-1,4.87-.76,9.78-1.3,14.61-2.25,2.66-.52,5.35-.42,8-.92a60.31,60.31,0,0,1,8.46-1.34c1.93-.08,2.4-1,2.36-2.69-.07-2.78.09-5.58,0-8.37-.29-6.46,1.86-12.45,3.51-18.54a2.45,2.45,0,0,1,1.62-1.54,6.38,6.38,0,0,1-.46,2.87h0a3.35,3.35,0,0,0-.41.67A77.06,77.06,0,0,0,570.35,432c-.84,5.59-1.07,11.15,1.16,16.53.8,9.42,4.88,17.58,10.14,25.14a54.21,54.21,0,0,0,16.29,15.15,3.67,3.67,0,0,1,1.72,3.23c0,2.63.65,5.18.52,7.82a31,31,0,0,0,.44,5.68c.12.89.48,1.81,1.64,1.94.6.63,1.38.26,2.07.38,2,1.32,4,2.3,6.47,1.19a60.92,60.92,0,0,0,9-5.12c.39.08.73.06.93-.36a.74.74,0,0,0,.35-.1c.26,0,.39-.09.44-.33l0,0,.43-.41h0l.52-.42a.42.42,0,0,0,.31-.07c.37.07.72.09.88-.36h0c1.21-.2,1.89-1.35,3-1.7a.67.67,0,0,0,.31-.07,10.71,10.71,0,0,1,4.54-.22c3.78.85,7.4,0,11-1h.14l.14,0c1,0,2.17.44,3.13-.38l.68,0c1.25-.26,2.59-.24,3.58-1.24a.49.49,0,0,0,.29-.05c.41.09.77.07,1-.36a.5.5,0,0,0,.3-.05c.49,0,1,.25,1.33-.38h0a2.6,2.6,0,0,0,2.22-.87.49.49,0,0,0,.29-.06l.57-.36c3-1.06,5.44-3.15,8.37-4.32a.43.43,0,0,0,.51-.39h0ZM466.89,672.7a8,8,0,0,0,.85,0c6.64-.53,13.12-2.09,19.68-3.12,9.18-1.44,18.31-3.19,27.49-4.65,1.28-.21,2.86.12,4-1.11-1.48-1.24-3-.15-4.45-.14a62.24,62.24,0,0,0-13.58,2.09,64.27,64.27,0,0,1-8.75,1.62c-4.3.36-8.35,2.09-12.69,2a2.27,2.27,0,0,0-1.59.42c-1.48,1.68-3.4,1-5.17,1.14a7.84,7.84,0,0,0-2.12,0c-1.26.44-3,0-3.63,1.7-4.39-.11-8.78-.12-13.17-.64,1.32,1.75,3.18.94,4.76,1.27A15.34,15.34,0,0,0,466.89,672.7Z"/><path class="cls-2" d="M445.88,421.94a23.27,23.27,0,0,1,8-7.73c4.89-2.62,9.9-2.18,15.06-.87a60.12,60.12,0,0,1,15.15,6,114.17,114.17,0,0,1,12.75,8.42c2.9,2.24,6.17,4,8.44,7-.88.11-1.41-.46-2-1a18.13,18.13,0,0,0-3.45-2.42c-3.67-1.78-7.66-2.26-11.59-3h0c-.24-1.22-1.2-1.23-2.14-1.27l-.84,0c-.47-1.51-1.92-1.27-3-1.69h-.86c-1.1-1.48-2.67-1.4-4.26-1.28h-2.55c-.58-2-2.09-.87-3.13-.8-2.78.18-4.15,1.31-4.56,3.37V428c-1.37.71-1.35,1.42,0,2.14-.44,2.3.8,4.16,1.82,5.95,1.2,2.1,1.84,4.65,4.13,6l.46,1.26a1.8,1.8,0,0,0,1.69,1.73c-.06.93.87,1.12,1.29,1.7a1.82,1.82,0,0,0,1.7,1.72l.85.85c0,1,.87,1.42,1.43,2,.91,1,1.9,1.92,2.76,3,.33.39.75,1,.28,1.54s-.91.25-1.39.09a13.33,13.33,0,0,1-4.36-2.18c-6.66-5.53-13-11.31-18.33-18.24-3.61-4.73-7.05-9.41-7.32-15.66-.06-1.42-1-1.68-2-.73a4.3,4.3,0,0,0-1.12,1.53c-1.32,3.39-2.44,6.87-1.89,10.54.21,1.42.74,2.82,1,4.27.19,1.15-.49.94-1.08,1-.56-.48-.36-1.14-.4-1.73a1.43,1.43,0,0,0-.77-2.16l-.05-.84c.38-1.62,1.15-3.27-.44-4.7v-1.27c.55-.09,1.07-.2.4-.86l.06-.84C446.63,423.53,447.67,422.93,445.88,421.94Z"/><path class="cls-3" d="M679.52,402.79a55.3,55.3,0,0,1,12.06,30.35c1.52,15.95-3,30.12-11.89,43.14-.36.52-.64,1.13-1.36,1.27.07-1.52,1.85-2.27,1.73-3.87,2.34-1.63,2.87-4.42,4.26-6.66,1.76-2.86,2.27-6.21,3.71-9.22.91-1.9,1-4.21,1.4-6.34a2.54,2.54,0,0,0,.39-.72,59.13,59.13,0,0,0,.25-22.73A64.25,64.25,0,0,0,685,412.84c-.24-.54-.4-1.52-1.16-1.25s-.41,1.23-.32,1.89c.05.32.37.59.54.9,1.44,2.47,1.67,5.31,2.26,8,.44,2,.48,4.2,1.07,6.24a18.22,18.22,0,0,1,.25,8.06c-.92,5.22-1.85,10.45-3.94,15.51-2.34,5.66-6,10.36-9.27,15.32-1.44,2.15-3.89,3.32-5.33,5.43-2.3,3.35-6,5.06-8.77,7.93-.07.08-.27,0-.41.06,0-.81.64-1.21,1.11-1.72a72.35,72.35,0,0,0,8.29-10.66,1.3,1.3,0,0,0,.86-1.29c.14-.42.29-.84.44-1.26,1-.16,1.13-.94,1.26-1.73l.87-2.55a.77.77,0,0,0,.84-.86c0-.57,0-1.13,0-1.69.74-.05,1-.51,1.31-1.17,1-2.5,2.15-4.94,3.16-7.43a73.58,73.58,0,0,0,3.1-8.14,49.94,49.94,0,0,0,1.44-17.7A51.13,51.13,0,0,0,679.77,412a40.42,40.42,0,0,0-7.68-13.44c-2-2.31-3.66-5.06-6.59-6.46h-.42c.09-.7-.91-1.39,0-2.11h.84a26.73,26.73,0,0,1,5.14,3.89,1.19,1.19,0,0,0,1.3,1.21l.44.41a.75.75,0,0,0,.89.85,11.43,11.43,0,0,1,2.53,2.57.76.76,0,0,0,.76.9l1.8,2.09A.75.75,0,0,0,679.52,402.79Zm3.12,8c.53,0,.72-.24.75-.61.05-.55-.16-.94-.79-.95-.37,0-.75.11-.69.53S682.16,410.69,682.64,410.78Zm-1.11-4.07c-.15-.09-.35-.31-.59-.34s-.42.27-.4.56.28.46.57.46S681.57,407.16,681.53,406.71Z"/><path class="cls-4" d="M445.12,425.84v1.27c.17,1.56-.52,3.21.44,4.7,0,.28,0,.56.05.84a2.19,2.19,0,0,0,.77,2.16c0,.59-.16,1.25.4,1.73a2.89,2.89,0,0,0,.1.84c2.48,5.31,5.14,10.5,9.07,15,1.44,1.63,3.16,3.06,4.11,5.1-1.24.23-.64.75-.23,1.28.72.91,1.91,1.45,2.23,2.66a.93.93,0,0,1-1.28,0c-3.38-2.49-7.45-1.52-11.17-1.91-1.44-.15-2.88,0-4.28-.66-3.09-1.51-5.29-4-7.56-6.47a4.72,4.72,0,0,1-1.23-3.11,2.75,2.75,0,0,0-2.18-3c0-.56.05-1.11.08-1.66a49.25,49.25,0,0,1,2-8.26c.6-1.52,2.05-2.73,1.8-4.58a.64.64,0,0,1,.15-.36c1.17-.3,1.45-1.21,1.53-2.25a.37.37,0,0,1,.15-.31,1.15,1.15,0,0,0,1.13-1.4l.37-.4c1.45,0,1.59-1.08,1.79-2.11l1.23-1.31,1,.51-.06.84A.81.81,0,0,0,445.12,425.84Z"/><path class="cls-5" d="M680.06,473.68c.12,1.6-1.66,2.35-1.73,3.87a.5.5,0,0,1-.21.34,3.55,3.55,0,0,0-2.32,2.69l-.6.74a28.7,28.7,0,0,0-6.28,6h0c-.81-.08-1.35.17-1.34,1.09l-.8.62c-.81.12-1.61.25-1.7,1.3h0l-.51.39c-2.93,1.17-5.38,3.26-8.37,4.32l-.57.36a.49.49,0,0,1-.29.06c-.79.17-1.94-.59-2.22.87h0c-.49,0-1-.1-1.33.38a.5.5,0,0,1-.3.05,1,1,0,0,0-1,.36.49.49,0,0,1-.29.05c-1.34,0-2.73-.16-3.58,1.24l-.68,0c-1.05.08-2.16-.35-3.13.38l-.14,0h-.14l-13.33,0c-.86,0-1.72,0-2.21.87-.88-.82-1.34-2.05-2.53-2.57.55-.65,1.32-.33,2-.44q5.38-.86,10.77-1.75l.91,0c.07.67.41.63,1,.62,4.18-.06,7.91-1.55,11.77-3,6.77-2.55,12-7.51,18.41-10.64,3.7-1.83,5.5-5.6,8.39-8.26C678.81,472.77,679.26,472.78,680.06,473.68Z"/><path class="cls-6" d="M665.08,392.08h.42a2.24,2.24,0,0,0,.83,1.66c2.31,1.82,3.9,4.28,5.61,6.6,5.44,7.4,7.51,16,8.51,24.93.18,1.6-.38,2.48-2.13,2.26,0-1.42,0-2.84,0-4.25-.12-1,0-2.14-1.25-2.59.13-3.19-1.58-5.93-2.17-8.95a.76.76,0,0,0-.83-.87,3.39,3.39,0,0,0-.36-1.41,57.26,57.26,0,0,0-14.45-19.08c-2.2-1.92-4.44-3.93-7.41-4.71,0-.89-.64-1.1-1.36-1.38-1.56-.61-3.08-1.35-4.62-2,1.44-.83,2.78,1.08,4.22.16l1.3.05a1.38,1.38,0,0,0,.94,1l6,2.15h0c0,.16,0,.31,0,.46-.1.38-.59.89-.11,1.12C660.73,388.46,662.57,390.76,665.08,392.08Z"/><path class="cls-2" d="M650.07,382.42c-1.44.92-2.78-1-4.22-.16-1.61-.27-3-1.2-4.7-1.28a39.22,39.22,0,0,0-4.22-1.25c-5.75-1-11.56-.38-17.35-.39a2,2,0,0,0-1.34.56c-1.36,1.74-3.38,1.55-5.2,1.93-.48.09-1-.05-1.41.35-2,2.17-5.17,1.79-7.59,3.37s-5.53,2.73-8,4.54a56,56,0,0,0-14,14c-1.69,2.52-3.59,4.95-4.76,7.71-.85,2-2.17,3.83-2.39,6.09,0,.55-.64.71-1.18.69a6.38,6.38,0,0,0,.46-2.87,68.66,68.66,0,0,1,22.85-28.42,50.22,50.22,0,0,1,19.85-8.48,58.66,58.66,0,0,1,16.11-.49c4.85.4,9.39,2.14,14.17,2.77A5.37,5.37,0,0,1,650.07,382.42Z"/><path class="cls-6" d="M488.24,428.4c3.93.78,7.92,1.26,11.59,3a18.13,18.13,0,0,1,3.45,2.42c.61.5,1.14,1.07,2,1v0a3.34,3.34,0,0,0,2.91,2.56c1.21,1.23,2.84,2.05,3.55,3.75a13.85,13.85,0,0,0,5.47,5.63c1.08,1.37,2.49,2.49,3.09,4.21-.94.1-1.27-.8-1.93-1.14-1.09-.56-1.79-2.2-3.21-1.69-2.18.79-3.41-.35-4.83-1.65-1.79-1.65-3.07-3.89-5.46-4.87l-.43-.43a1.19,1.19,0,0,0-1.28-1.28l-.43-.42c-.12-1.3-1.14-1.49-2.13-1.71a49.31,49.31,0,0,0-6.83-4.71,1.2,1.2,0,0,0-1.29-1.27h-.42c-.25-1.48-1.4-1.61-2.57-1.7h-.42C489.16,429.36,488.49,429,488.24,428.4Z"/><path class="cls-7" d="M665.08,392.08c-2.51-1.32-4.35-3.62-7-4.84-.48-.23,0-.74.11-1.12,1.21.24,2.14,1.23,3.43,1.26l1.22.56a.76.76,0,0,0,1,.69l.8.47.4.87C664.17,390.69,665.17,391.38,665.08,392.08Z"/><path class="cls-3" d="M438.25,431.77c.25,1.85-1.2,3.06-1.8,4.58a49.25,49.25,0,0,0-2,8.26c0-1.9,0-3.8,0-5.69.84-1.84,1.68-3.69,2.55-5.52C437.32,432.78,437.45,432,438.25,431.77Z"/><path class="cls-3" d="M668.92,487.34a28.7,28.7,0,0,1,6.28-6A16.29,16.29,0,0,1,668.92,487.34Z"/><path class="cls-2" d="M517.24,446.78a13.85,13.85,0,0,1-5.47-5.63c1.51.49,2.25,1.88,3.36,2.83.69.59,1.15,1.48,2.17,1.61Z"/><path class="cls-2" d="M658.26,385.67l-6-2.15a1.38,1.38,0,0,1-.94-1C653.77,383.32,656.48,383.48,658.26,385.67Z"/><path class="cls-6" d="M445.58,424.14l-1-.51a2.48,2.48,0,0,1,1.28-1.69C447.67,422.93,446.63,423.53,445.58,424.14Z"/><path class="cls-2" d="M508.22,437.4a3.34,3.34,0,0,1-2.91-2.56C506.74,435.17,507.47,436.29,508.22,437.4Z"/><path class="cls-3" d="M675.8,480.58a3.55,3.55,0,0,1,2.32-2.69A4.13,4.13,0,0,1,675.8,480.58Z"/><path class="cls-2" d="M661.67,387.38c-1.29,0-2.22-1-3.43-1.26,0-.15,0-.3,0-.46C659.65,385.73,661,386,661.67,387.38Z"/><path class="cls-3" d="M443.37,424.94c-.2,1-.34,2.13-1.79,2.11A2.88,2.88,0,0,1,443.37,424.94Z"/><path class="cls-3" d="M439.93,429.16c-.08,1-.36,1.95-1.53,2.25A2.62,2.62,0,0,1,439.93,429.16Z"/><path class="cls-3" d="M665.08,490.35c.09-1.05.89-1.18,1.7-1.3l-.71,1.23Z"/><path class="cls-3" d="M667.58,488.43c0-.92.53-1.17,1.34-1.09C668.75,488,668.39,488.52,667.58,488.43Z"/><path class="cls-3" d="M441.21,427.45a1.15,1.15,0,0,1-1.13,1.4A1.49,1.49,0,0,1,441.21,427.45Z"/><path class="cls-6" d="M672.33,395.08a1.19,1.19,0,0,1-1.3-1.21C671.86,393.85,672.23,394.32,672.33,395.08Z"/><path class="cls-2" d="M665.05,390l-.4-.87c.61,0,1.22,0,1.25.88Z"/><path class="cls-2" d="M663.85,388.63a.76.76,0,0,1-1-.69C663.47,387.82,663.74,388.11,663.85,388.63Z"/><path class="cls-6" d="M673.66,396.34a.75.75,0,0,1-.89-.85A.82.82,0,0,1,673.66,396.34Z"/><path class="cls-6" d="M677,399.81a.76.76,0,0,1-.76-.9A.75.75,0,0,1,677,399.81Z"/><path class="cls-6" d="M679.52,402.79a.75.75,0,0,1-.77-.89A.75.75,0,0,1,679.52,402.79Z"/><path class="cls-8" d="M487.23,575.28a31.21,31.21,0,0,1-7.57-7.51c-.17-3.51-2.76-5.36-5.08-7.4-.85-1.9-2.67-3.15-3.42-5.12a2.3,2.3,0,0,0-.47-1.59c-.46-.6-.14-1,.5-.93,1.77.19,4,.22,4.93,1.57,1.41,2.14,3.58,2.2,5.44,3.11a11.16,11.16,0,0,1,1.67.9A38.88,38.88,0,0,0,494,563.77c1,.33,1.12,1.88,2.28,1.68a11.32,11.32,0,0,1,7.63,1.38c2.06,1.13,4,2.38,6.21,3.35a19.93,19.93,0,0,0,3.22,1.4c1.37.34,3.1-.34,4.1,1.1.59.84,1.2,1.33,2.05.56s0-1.34-.44-2c-1.3-1.74-3.32-2.5-5-3.74-2.2-1.64-3.87-3.89-5.88-5.71a108.51,108.51,0,0,1-12.8-13.46c-4.41-5.62-9.48-10.67-13.59-16.59-1.78-2.57-3.21-5.39-5.24-7.82a83.83,83.83,0,0,1-6.59-9.3c-1.57-2.49-3.13-5-4.74-7.48-1.39-2.13-2.38-4.6-4.05-6.46-4.09-4.52-7.19-9.72-10.73-14.62a4.5,4.5,0,0,1-1-2.54,4.21,4.21,0,0,0-1.24-2.8c-.8-.95-1.82-2.1-1.18-3.43a3.85,3.85,0,0,1,3.38-1.9,11.33,11.33,0,0,0,3.06-.81c1.21-.43,1.78-3,3.75-1.08.21.21,1.06-.21,1.6-.36a4,4,0,0,1,1.44-.25c2.41.17,4.78-.9,7.26-.18.69.2,1.45-.48,2-1.05a1.86,1.86,0,0,1,2.16-.45c.83.37,1.71,1.48,2.32,1.32,1.61-.42-1.21-1.56.15-2.3a.88.88,0,0,1,.84.46.78.78,0,0,0,.88.81l1.24.45a.75.75,0,0,0,.92.77c.33.69,1.28.31,1.64.95.11.78.49,1.25,1.36,1.15l.76.15c.18,1.58,2.3,1.1,2.66,2.49-1.78.08-3.58,1-5.32-.3-.39-.3-.84.39-1.29.56-1.54.59-3.23,1.24-4.67.16s-2.26-.57-3.28.38a6.37,6.37,0,0,1-7.67.81c-.49-.29-1-.42-1.34,0-1.18,1.85-3.51,2-4.95,3.5-.72.72-1.44.46-1.79-.51-.18-.49,0-1.35-.93-1-.64.22-.32.84-.14,1.28.25.61-.17,1.1-.22,1.65a3.84,3.84,0,0,0,.64,3c3.88,4.93,7.67,9.92,11.47,14.91.7.92.83,2.36,2.36,2.49v.43a3.72,3.72,0,0,0,1.35,3.21,14.54,14.54,0,0,1,2,3c1.27,2.27,2.44,4.62,3.92,6.76A231.24,231.24,0,0,0,495.77,544c2.34,2.52,4.68,5,7.1,7.46,2.21,2.22,4.7,4.18,6.71,6.56a10.66,10.66,0,0,0,4.12,2.76c.44.19,1,.17,1.33.58,1.56,2,4.11,2.43,6,3.92a4.54,4.54,0,0,0,1.57,1,18.59,18.59,0,0,1,8.27,4c.52.45,1,.81,1.67.37,1.35-.85,2.62-.25,3.78.4a13.24,13.24,0,0,0,4.76,1.73c2.93.38,4.25,2.86,5.78,4.91,1.18,1.59-.52,2.79-1.08,4a26.59,26.59,0,0,1-2.87,4.43,1.23,1.23,0,0,1-1.68.5c-.67-.43,0-.83.22-1.24.35-.86,0-1.33-.85-1.57a11,11,0,0,0-6.4-.18c-1.16.38-2.47-.14-3.51,1.09a3.93,3.93,0,0,1-6.57-1.38c-.33-.84-3.75-2.38-4.54-2.06-.4.16-.59.46-.46.82.32.91.22,1.62-.89,1.63a2.61,2.61,0,0,1-2.3-.87c-.58-1,.86-.85,1.09-1.45a1.83,1.83,0,0,0,0-.49c-2.36-.39-4.84-.23-6.94-1.83-1-.73-2.21-.86-2.25,1.09,0,.51-3.54,2.34-4,2.12a1,1,0,0,1-.55-.6c-.38-1.78-1.76-1.33-2.9-1.28-.61,0-1.12.29-1.8-.1-1.8-1-3.58-2.18-5.76-2.39a2.62,2.62,0,0,1-2.22-1.12C489.87,575.41,488.64,575.22,487.23,575.28Zm15.48,1.7c-.36-.67-.52-1.51-1.61-1.66-1.27-.18-1.82.93-2.73,1.37-.31.15-.67.41-.49.82a.67.67,0,0,0,1.07.22c.85-.92,1.54-.51,2.39,0C501.89,578.05,502.61,578,502.71,577Zm3,.43c-.25-.14-.41-.29-.56-.3-.3,0-.53.17-.41.49a.62.62,0,0,0,.5.19C505.35,577.77,505.47,577.59,505.68,577.41Z"/><path class="cls-6" d="M573.62,418.54c.54,0,1.13-.14,1.18-.69.22-2.26,1.54-4.11,2.39-6.09,1.17-2.76,3.07-5.19,4.76-7.71a56,56,0,0,1,14-14c2.51-1.81,5.49-2.88,8-4.54s5.55-1.2,7.59-3.37c.37-.4.93-.26,1.41-.35,1.82-.38,3.84-.19,5.2-1.93a2,2,0,0,1,1.34-.56c5.79,0,11.6-.64,17.35.39a39.22,39.22,0,0,1,4.22,1.25,1.43,1.43,0,0,0,1.08,1.6,42.29,42.29,0,0,1,7.63,4.34c5.52,3.77,9.88,8.73,13.89,14a55.54,55.54,0,0,1,7.39,12.74c.58,1.4.44,3.48,2.47,4.09.14.57.29,1.14.43,1.71a.71.71,0,0,0-.33.91,21.28,21.28,0,0,1,1.89,7.34c.43,3.57,1.38,7.14,1.29,10.69a75.79,75.79,0,0,1-1.52,13.55c-.27,1.29.19,2.73-.79,3.87a4.24,4.24,0,0,0-1,3.38c0,.56,0,1.12,0,1.69a.76.76,0,0,0-.84.86l-.87,2.55c-1,.14-1.14.93-1.26,1.73-.15.42-.3.84-.44,1.26-.87,0-.86.66-.86,1.29a72.35,72.35,0,0,1-8.29,10.66c-.47.51-1.1.91-1.11,1.72-2.57,2.74-6.14,4.29-8.55,7.22-.73,0-1.12.63-1.69.91-.81.09-1.55.29-1.77,1.23L642,492.88a.9.9,0,0,0-.85.42c-1.11-.1-1.94.75-3,.89a.8.8,0,0,0-.92.78q-5.38.88-10.77,1.75c-.67.11-1.44-.21-2,.44h-3a16.68,16.68,0,0,0-2.3-.37c-1.48-.05-3.05-.18-3.78,1.6l-1.18.49a.8.8,0,0,0-.91.82c-3.68,1.47-6.64,4.12-10,6.1a1.8,1.8,0,0,0-1.07,1.7c-1.16-.13-1.52-1.05-1.64-1.94a31,31,0,0,1-.44-5.68c.13-2.64-.55-5.19-.52-7.82a3.67,3.67,0,0,0-1.72-3.23,54.21,54.21,0,0,1-16.29-15.15c-5.26-7.56-9.34-15.72-10.14-25.14-.16-5.87-.85-11.73,0-17.6.27-1.81.06-3.79.75-5.41a19.59,19.59,0,0,0,1.37-7Zm67.52-32.37a7.86,7.86,0,0,0-2.91-.54c-1.4-1.67-3.41-1.29-5.23-1.54l-2.53-.07c-.26-.46-.54-.49-.85,0h-7.26c-.31-.44-.59-.41-.85,0l-3,.08c-.5-.12-1-.2-1.32.34l-.82.05a1.85,1.85,0,0,0-2.25,1.13l-2.44.18c-1.19.19-2.48.19-3.09,1.54l-2,.55c-.57-.09-.85.21-1,.73a15.42,15.42,0,0,0-2.52,1.08,59.11,59.11,0,0,0-14.51,12.07,50.27,50.27,0,0,0-8.34,13,73.87,73.87,0,0,0-4,12.27c-1.35,5.24-1.31,10.48-1.09,15.68a50.44,50.44,0,0,0,4.61,18.19c1,2.22,2.28,4.23,3.34,6.38-.08.86.42,1.21,1.16,1.34l.5,1.23a1.23,1.23,0,0,0,1.21,1.33l.47.81a.79.79,0,0,0,.82.89l.47.82a1.08,1.08,0,0,0,.85,1.19c2.17,1.39,3.19,4,5.53,5.22a.78.78,0,0,0,.86.84l.81.46a1.23,1.23,0,0,0,1.33,1.22,2.32,2.32,0,0,0,.38.06c.12.76.5,1.24,1.33,1.22.4.64,1.09.43,1.67.56,2,1.59,1.82,3.79,1.82,6,0,3-.3,5.9.28,8.84.25,1.26.66,1.65,1.78.86.93-.07,1.9-.08,2.12-1.3.15-.27.31-.54.46-.82.79.16,1.21-.42,1.69-.87,1.56-.8,3.11-1.61,4.68-2.39,2.86-1.4,5.24-3.26,8.92-3.47,5.88-.34,11.88-.94,17.5-3.59a53.47,53.47,0,0,0,12.9-8,54.72,54.72,0,0,0,14.24-18.63,72.51,72.51,0,0,0,4.8-13.25,51,51,0,0,0,.92-16.86c-.25-2.24,0-4.56-.8-6.73-.44-1.19-1.37-2.37-1.17-3.61.5-3.12-.85-5.86-1.93-8.48-.83-2-1.23-4.51-3.27-5.94a39.9,39.9,0,0,0-12.8-13.67,53.86,53.86,0,0,0-9.34-5.17C643,386.29,642,386.35,641.14,386.17Z"/><path class="cls-9" d="M467.32,504.85v-.43a4.23,4.23,0,0,0-1.4-3.24c-2.86-2.46-4.12-6.1-6.69-8.77a16.66,16.66,0,0,1-3-3.56,2,2,0,0,1,.56-2.91c3-2.44,6.73-2.43,10.25-2.8,2.85-.3,5.57-1.12,8.5-1.22,3.23-.11,6.31-2.08,9.71-2.27a1.39,1.39,0,0,0,1.32-.89c2.46.37,4.19,2.61,6.78,2.63.21.95,1,1.12,1.77,1.21v0c.43,1.19,1.94.73,2.53,1.67,0,.74-.44,1-1.09,1.37-2.79,1.36-6,1.62-8.66,3.25a3.31,3.31,0,0,1-1.68.13,6.91,6.91,0,0,0-2.92.44c-3.44,1.42-7.16,1.7-10.74,2.37-2.53.47-5.13,1.74-7.94.74-.87-.31-1.79.35-1.11,1.7.94,1.86,2.55,3.18,3.76,4.83,2.16,2.95,3.72,6.32,6.39,8.92.91.89,1.93,1.62,2.81,2.56,2.11,2.23,3.18,5.11,5.48,7.35,3.48,3.39,5.87,7.87,8.95,11.71,1.38,1.72,2.29,3.7,3.61,5.43,2,2.56,5,4,6.93,6.6.65.88,1.41,1.88,2.8,1.55.23.28.45.56.67.85,0,.74.07,1.39,1.06,1.28l.65.43c0,.76.1,1.39,1.09,1.29,1.63.62,2.71,2,4,3.06,3.61,3.11,7.42,6.05,11.84,7.73,4.86,1.84,9.76,4,15.15,3.9,0,.58.08,1.1.82,1.11.92,0,.85-.66.87-1.27l.77-.11c.28.5.76.54,1.28.58,2.45.21,2.73.45,1.68,2.55-.89,1.79-.17,2.48,1.13,3.6,2.32,2,5.12,3.39,6.76,6.31.88,1.56.74,3.33,1.7,4.67a2.92,2.92,0,0,1-.06,3.86,3,3,0,0,0-.73,2.34c.43,2.53.24,5.18,1.56,7.53,0,0,0,.14,0,.21l.57,4.62c.3,2.38.81,4.42-1.7,6.52a8.49,8.49,0,0,1-7.11,2,67.91,67.91,0,0,1-8.62-1.9c-1.77-.41-3.48-.9-5.21-1.48-2.49-.85-4.75-2.58-7.58-2.4a3.52,3.52,0,0,1-2.61-1.26c-.53-.5-1-1.35-1.91-.44a2.76,2.76,0,0,1-1.7-.43c0-.7-.6-.87-1.06-1.17-1.4-.91-3-1.36-4.38-2.37-1.91-1.39-4-2.54-6-3.8-.55-.35-1-.48-1.42.19-2.55-1.33-4.61-3.33-6.8-5.15s-4.6-4-6.9-5.93c1.06-1,1.68,0,2.26.6,2.29,2.28,5.19,3.5,8.07,4.77,3.23,1.44,6.41,3,9.67,4.38,2.49,1.05,4.56,3.21,7.43,3.11,1.93-.06,2.82,2,4.54,1.92a9.67,9.67,0,0,1,4.27,1.11c2,.84,3.86-.68,5.93-.41.68.09,2.18-1,3.09-.58a6.75,6.75,0,0,0,6.71-.49c.17-.1.43,0,.63-.09.5-.15,1.15-.59,1-.93-.62-2.25.74-3.9,1.42-5.81a29.1,29.1,0,0,1,1.37-4.38,8.26,8.26,0,0,0,.79-6.48c-.77-2.22-3.75-2.73-4.63-5.07a.84.84,0,0,0-.75-.23c-.84.37-1.44-.22-2.15-.38-4.42-1-8.05-4.05-12.63-4.56a3.06,3.06,0,0,1-1.88-.94c-1.47-1.83-3.51-2.53-5.61-3.16-5.36-1.59-9-6.07-14-8.3a1.27,1.27,0,0,1-.44-.45,39.09,39.09,0,0,0-6.28-7c-2.42-2.1-3.75-5.18-6.18-7.24-3.27-2.77-5.85-6.15-8.73-9.27a6.65,6.65,0,0,1-1.11-1.53c-1.84-3.85-4.83-6.89-7.32-10.26-2-2.7-4.36-5.05-5.9-8.13C470.64,508.28,469.81,505.84,467.32,504.85Z"/><path class="cls-10" d="M518.58,598.38a2.84,2.84,0,0,0,1.7.44c1.42,2.07,3.83,2.48,5.88,3.5a53,53,0,0,0,11.45,4.08c4.52,1.06,9.19,1.34,13.71,2.53,3.06.8,8.17-2.37,8.1-5.32-.06-2.48.34-5.21-.86-7.53-2.48-4.81-2.55-10.08-3.31-15.23-.19-1.31.27-2.67-.3-3.89a18.55,18.55,0,0,0-5.85-7.65,3.85,3.85,0,0,1-1-5.19c.28-.49.66-.93.9-1.44s1-1.26.54-1.94-1.3-.38-2-.26c-.48.08-.95.41-1.29-.23.3-1.14,1.42-1,2.18-1.36a48.51,48.51,0,0,0,8-4.49c1.77.41.94,1.69.71,2.55a18.33,18.33,0,0,0-.95,6.25c.43,5.27,1,10.54,2.94,15.54.11,1.59,1,2.91,1.7,4.26,1.18,2.41,2.23,4.94,4.24,6.86.66,3.07,3.24,4.69,5.13,6.83,1.79,3.15,4.7,5.23,7.31,7.59.16.16.54.07.82.1,2.34,2.46,5.39,3.9,8.19,5.71a4.7,4.7,0,0,0,3.27.64c2.74-.4,5.35-1.94,8.26-.86a1.39,1.39,0,0,0,1.17-.38c1.68-1.91,4.22-.91,6.31-1.84a17.85,17.85,0,0,1,6.26-1.12,5.41,5.41,0,0,0,4.13-2.2l3,.93c.27,2.09.53,2.18,2.57.81,2.84.26,5.64.9,8.54.47.86-.13,1.63-1.44,2.63-.34-3.81,3-7.49,6.15-12.2,7.78-6.19,2.15-12.36,3.61-19,1.84a84,84,0,0,1-9.06-2.67,4.31,4.31,0,0,0-2.51-.13q-7.25,1.49-14.54,2.7c-7.52,1.26-14.58-.46-21.78-1.68a83.23,83.23,0,0,1-18.33-5.75,115.18,115.18,0,0,1-18.06-9.42Z"/><path class="cls-11" d="M474.15,470.26c-1.36.74,1.46,1.88-.15,2.3-.61.16-1.49-.95-2.32-1.32a1.86,1.86,0,0,0-2.16.45c-.56.57-1.32,1.25-2,1.05-2.48-.72-4.85.35-7.26.18a4,4,0,0,0-1.44.25c-.54.15-1.39.57-1.6.36-2-1.94-2.54.65-3.75,1.08a11.33,11.33,0,0,1-3.06.81,3.85,3.85,0,0,0-3.38,1.9c-.64,1.33.38,2.48,1.18,3.43a4.21,4.21,0,0,1,1.24,2.8,4.5,4.5,0,0,0,1,2.54c3.54,4.9,6.64,10.1,10.73,14.62,1.67,1.86,2.66,4.33,4.05,6.46,1.61,2.48,3.17,5,4.74,7.48a83.83,83.83,0,0,0,6.59,9.3c2,2.43,3.46,5.25,5.24,7.82,4.11,5.92,9.18,11,13.59,16.59a108.51,108.51,0,0,0,12.8,13.46c2,1.82,3.68,4.07,5.88,5.71,1.67,1.24,3.69,2,5,3.74.47.63,1.28,1.2.44,2s-1.46.28-2.05-.56c-1-1.44-2.73-.76-4.1-1.1a19.93,19.93,0,0,1-3.22-1.4c-2.17-1-4.15-2.22-6.21-3.35a11.32,11.32,0,0,0-7.63-1.38c-1.16.2-1.23-1.35-2.28-1.68a38.88,38.88,0,0,1-10.74-5.46,11.16,11.16,0,0,0-1.67-.9c-1.86-.91-4-1-5.44-3.11-.89-1.35-3.16-1.38-4.93-1.57-.64-.07-1,.33-.5.93a2.3,2.3,0,0,1,.47,1.59c-1.06-.08-1.55-.89-2.1-1.64-2.21-3-4.43-6-6.63-9.07-.3-.41-.54-.86-1.15-.78h0c.32-1.37-.61-2.26-1.26-3.25-.29-.45-.52-.87-.2-1.37a.72.72,0,0,1,1.09-.29c1.49,1.23,3.46,1.09,5.16,1.75,2.06.8,4,2.38,6.33,2.24a5.65,5.65,0,0,1,3.36,1c1.82,1.08,3.38,2.84,5.48,3.14a10.9,10.9,0,0,1,5.6,2.78,12.45,12.45,0,0,0,5,3c.41.09.81.44,1.19.11s.09-.89,0-1.35c-.76-2.56-2.78-4.34-4.19-6.47-2.93-4.4-6.73-8.23-9.44-12.74-3.09-5.13-6.92-9.74-9.8-15A133.7,133.7,0,0,0,459.45,502c-2.18-2.93-4.77-5.62-6.58-8.75-2.5-4.29-5.21-8.55-6.39-13.49-.24-1-.7-1.71-1.8-1.82v-.85a1.26,1.26,0,0,0-.85-1.28c-.21-1.67-1.79-2.32-2.62-3.54-.44-2.74-2.07-5-3.05-7.51.84-.44,1.78-.84,2.61-.23,1.55,1.15,3.47,1.57,5.05,2.64a2,2,0,0,0,2.2.32c1.84-1.17,4.57.62,6-1.84.06-.1.44-.13.61-.06,1.17.51,2.17-.19,3.26-.35,2.81-.43,5.71-1.33,8.24.95a.64.64,0,0,0,.95-.06c.33-.46.1-.81-.37-1-.72-.24-.68-.82-.7-1.38A37.69,37.69,0,0,1,474.15,470.26Z"/><path class="cls-5" d="M444.68,477.94c1.1.11,1.56.85,1.8,1.82,1.18,4.94,3.89,9.2,6.39,13.49,1.81,3.13,4.4,5.82,6.58,8.75a133.7,133.7,0,0,1,10.14,15.33c2.88,5.28,6.71,9.89,9.8,15,2.71,4.51,6.51,8.34,9.44,12.74,1.41,2.13,3.43,3.91,4.19,6.47.13.46.55.92,0,1.35s-.78,0-1.19-.11a12.45,12.45,0,0,1-5-3,10.9,10.9,0,0,0-5.6-2.78c-2.1-.3-3.66-2.06-5.48-3.14a5.65,5.65,0,0,0-3.36-1c-2.38.14-4.27-1.44-6.33-2.24-1.7-.66-3.67-.52-5.16-1.75a.72.72,0,0,0-1.09.29c-.32.5-.09.92.2,1.37.65,1,1.58,1.88,1.26,3.25-3.25-3.77-5.19-8.29-7.26-12.74l-.37-.55c0-.26-.07-.52-.11-.79.74-.44.16-1,.12-1.51-.06-.8-.11-1.71.91-1.87s1.17-.74,1.22-1.62a3.71,3.71,0,0,1,2.77-3.42,9,9,0,0,1,2.75-.85c2.69.18,3.39-.68,2.66-3.25-.21-.72-.1-1.22-.77-2-1.08-1.18-3.2-1.89-2.61-4.34a1.77,1.77,0,0,0-2-2.18c-.53.06-1.18-.11-1.2-.65-.11-3.38-4.22-4.3-4.54-7.52-3.79-3-4-8-6.19-11.85C445,485.6,444.55,481.67,444.68,477.94Z"/><path class="cls-12" d="M467.32,504.85c2.49,1,3.32,3.43,4.35,5.49,1.54,3.08,3.92,5.43,5.9,8.13,2.49,3.37,5.48,6.41,7.32,10.26a6.65,6.65,0,0,0,1.11,1.53c2.88,3.12,5.46,6.5,8.73,9.27,2.43,2.06,3.76,5.14,6.18,7.24a39.09,39.09,0,0,1,6.28,7,1.27,1.27,0,0,0,.44.45c5,2.23,8.61,6.71,14,8.3,2.1.63,4.14,1.33,5.61,3.16a3.06,3.06,0,0,0,1.88.94c4.58.51,8.21,3.6,12.63,4.56.71.16,1.31.75,2.15.38a.84.84,0,0,1,.75.23c.88,2.34,3.86,2.85,4.63,5.07a8.26,8.26,0,0,1-.79,6.48,29.1,29.1,0,0,0-1.37,4.38c-.68,1.91-2,3.56-1.42,5.81.1.34-.55.78-1,.93-.2.06-.46,0-.63.09a6.75,6.75,0,0,1-6.71.49c-.91-.43-2.41.67-3.09.58-2.07-.27-3.9,1.25-5.93.41a9.67,9.67,0,0,0-4.27-1.11c-1.72.08-2.61-2-4.54-1.92-2.87.1-4.94-2.06-7.43-3.11-3.26-1.37-6.44-2.94-9.67-4.38-2.88-1.27-5.78-2.49-8.07-4.77-.58-.57-1.2-1.56-2.26-.6a31.07,31.07,0,0,1-4.79-4.87c1.41-.06,2.64.13,3.38,1.62a2.62,2.62,0,0,0,2.22,1.12c2.18.21,4,1.35,5.76,2.39.68.39,1.19.13,1.8.1,1.14,0,2.52-.5,2.9,1.28a1,1,0,0,0,.55.6c.44.22,4-1.61,4-2.12,0-1.95,1.29-1.82,2.25-1.09,2.1,1.6,4.58,1.44,6.94,1.83a1.83,1.83,0,0,1,0,.49c-.23.6-1.67.47-1.09,1.45a2.61,2.61,0,0,0,2.3.87c1.11,0,1.21-.72.89-1.63-.13-.36.06-.66.46-.82.79-.32,4.21,1.22,4.54,2.06a3.93,3.93,0,0,0,6.57,1.38c1-1.23,2.35-.71,3.51-1.09a11,11,0,0,1,6.4.18c.85.24,1.2.71.85,1.57-.17.41-.89.81-.22,1.24a1.23,1.23,0,0,0,1.68-.5,26.59,26.59,0,0,0,2.87-4.43c.56-1.25,2.26-2.45,1.08-4-1.53-2-2.85-4.53-5.78-4.91a13.24,13.24,0,0,1-4.76-1.73c-1.16-.65-2.43-1.25-3.78-.4-.7.44-1.15.08-1.67-.37a18.59,18.59,0,0,0-8.27-4,4.54,4.54,0,0,1-1.57-1c-1.87-1.49-4.42-2-6-3.92-.33-.41-.89-.39-1.33-.58a10.66,10.66,0,0,1-4.12-2.76c-2-2.38-4.5-4.34-6.71-6.56-2.42-2.43-4.76-4.94-7.1-7.46a231.24,231.24,0,0,1-21.19-26.15c-1.48-2.14-2.65-4.49-3.92-6.76a14.54,14.54,0,0,0-2-3A3.72,3.72,0,0,1,467.32,504.85Z"/><path class="cls-13" d="M504.23,543.24c-1.39.33-2.15-.67-2.8-1.55-2-2.59-5-4-6.93-6.6-1.32-1.73-2.23-3.71-3.61-5.43-3.08-3.84-5.47-8.32-8.95-11.71-2.3-2.24-3.37-5.12-5.48-7.35-.88-.94-1.9-1.67-2.81-2.56-2.67-2.6-4.23-6-6.39-8.92-1.21-1.65-2.82-3-3.76-4.83-.68-1.35.24-2,1.11-1.7,2.81,1,5.41-.27,7.94-.74,3.58-.67,7.3-1,10.74-2.37a6.91,6.91,0,0,1,2.92-.44,3.31,3.31,0,0,0,1.68-.13c2.68-1.63,5.87-1.89,8.66-3.25.65-.32,1.07-.63,1.09-1.37l2.58,0,1.19.15c.12.5.37.81.94.73l.86,0c.93,1.06,2.46-.13,3.4.89a10.16,10.16,0,0,1-5.72,4.06c-2.14.57-4.15,2.13-6.41,2.77s-4.34.88-6.37,1.94c-1.55.82-3.41.9-5.07,1.34-4.12,1.08-8.05,1.7-12.15.28-.57-.2-1.35-.43-1.7.32s.16,1.26.59,1.7c2.36,2.44,4.63,5,7.19,7.2a19.18,19.18,0,0,0,7.28,4.25c1.77.49,3.34.95,3.88,2.91,1.37-.66.55-2.12,1.39-2.85.25,2.6-.2,5.2.38,7.81a41,41,0,0,0,4.53,12.3A78.8,78.8,0,0,0,504.23,543.24Z"/><path class="cls-7" d="M637.26,573.61a36.71,36.71,0,0,1,5,10.57c.81,2.85,2.34,5.82,1.4,8.9-.67,2.16-.69,4.74-2.89,6.24-.73-.86-1.71-.46-2.58-.49-3-.08-5.93.25-8.8-1.31a10.34,10.34,0,0,0-4.89-1.69l-.43-.43a1.2,1.2,0,0,0-1.29-1.28h-.84a2.59,2.59,0,0,0-2.15-1.71h-.42a1.39,1.39,0,0,0-.73-1.22,95.52,95.52,0,0,1-7.87-5.71c-1.16-.9-1.92-2.61-3.79-2.46h-.42c-.1-1.21-1.21-1.66-1.84-2.47-.79-1-2.19-1.6-2.44-3.07,1.07,0,1.51,1,2.19,1.54,2.79,2.36,5.45,4.91,8.9,6.34.57.24,1.14.87,1.75.48.81-.5.23-1.25.06-1.9a.83.83,0,0,1,.35-.92l1.28.43a.76.76,0,0,0,.86.84l2.13.87a1.26,1.26,0,0,0,1.28.85h0c1.56,2.08,3.83,1.69,6,1.71h.85c3.41,0,5.22-1.86,5.13-5.26a22.57,22.57,0,0,0-2.66-9.45,43.06,43.06,0,0,0-5.66-8.94c-.87-1-2-2.09-1.94-3.68a3,3,0,0,1,1.36,1.21,31.28,31.28,0,0,0,12.58,11.56.49.49,0,0,0,.21,0h0Z"/><path class="cls-2" d="M578.29,531.75c5.73-4.13,11.48-2.89,17.28-.15,9,4.27,16.14,11,23.36,17.68.08.08.07.27.1.41-2.27-.79-4.32-2-6.77-2.53-2.83-.64-5.38-2.68-8-4.26a6.86,6.86,0,0,0-4.57-1.3h-.85c-.28-.44-.57-.45-.86,0h-1.7c-.06-.46-.26-.92-.78-.76a10.09,10.09,0,0,0-3.5,1.35c-2.66,2-2.7,6.93-.83,10.09v.85c-.52,2.21,1.21,3.86,1.46,5.89.05.41.35.86-.06,1.17s-.94,0-1.3-.33c-1.55-1.61-3.4-2.88-4.59-4.91a91.17,91.17,0,0,1-5.47-10.46,19.78,19.78,0,0,1-1.62-10.7C579.76,532.83,579.91,531.65,578.29,531.75Z"/><path class="cls-10" d="M489.52,510c-.84.73,0,2.19-1.39,2.85-.54-2-2.11-2.42-3.88-2.91a19.18,19.18,0,0,1-7.28-4.25c-2.56-2.2-4.83-4.76-7.19-7.2-.43-.44-.9-1-.59-1.7s1.13-.52,1.7-.32c4.1,1.42,8,.8,12.15-.28,1.66-.44,3.52-.52,5.07-1.34,2-1.06,4.24-1.33,6.37-1.94s4.27-2.2,6.41-2.77a10.16,10.16,0,0,0,5.72-4.06c1.74-.28,3.39.51,5.12.42.61.67,1,.57,1.3-.31l3.72-.16,2-.27c-1.4,3-3.95,4.94-6.45,6.84a34.8,34.8,0,0,1-16.84,6.81c-2.56.34-3.39,2.57-4.13,4.63a11.71,11.71,0,0,1-1,2.54l-.39.6a.2.2,0,0,1,0,.25c-.74.64-.36,1.49-.4,2.26A.38.38,0,0,1,489.52,510Z"/><path class="cls-7" d="M504.9,441.64c2.39,1,3.67,3.22,5.46,4.87,1.42,1.3,2.65,2.44,4.83,1.65,1.42-.51,2.12,1.13,3.21,1.69.66.34,1,1.24,1.93,1.14h0l.45.44,0,0,.36.47a.67.67,0,0,1,.07.34l.45.5,0,0,.44.45,0,0,.45.45,0,0,.36.46a.89.89,0,0,1,.07.36c0,.38,0,.74.45.91l0,0,.36.46.49.78.36.5a36,36,0,0,1,4.7,10.11c1,3.34-.05,6.3-1.61,9.17a18.07,18.07,0,0,0-3.36.22,27.45,27.45,0,0,1-8.15.1c-2.51-.39-4.77-1.69-7.33-1.67-.38-1.3-1.55-1.38-2.59-1.68l-1.68,0c-1.48-2.4-4.24-2.35-6.43-3.4h-.84c-.06-1-.95-1.06-1.57-1.42s-1.42-.62-1.41-1.57c2.16.15,3.48,2.1,5.43,2.59,2.76.7,5.4,3.64,8.46.71.62-.59,2.07.19,2.06-.9s-1.39-1.27-2.15-1.88a4.69,4.69,0,0,0-2-.58c-.75-.17-1.79-.07-2-1.22h.85c1,.72,2.14.58,3.2.95a6.61,6.61,0,0,0,7.25-1.71c1.78-1.89,1.37-4.44.51-6.83a36.61,36.61,0,0,0-9.39-14.14C505.83,443.21,504.94,442.71,504.9,441.64Z"/><path class="cls-14" d="M504.48,473.24l1.68,0c.21,1.56,1.62,1.29,2.59,1.68,2.56,0,4.82,1.28,7.33,1.67a27.45,27.45,0,0,0,8.15-.1,18.07,18.07,0,0,1,3.36-.22l-1.79,2.47c0-.69,0-1.3-1-1.13-8,1.37-15.49-.83-22.9-3.3a21.5,21.5,0,0,1-4.26-1.67c-3.14-1.89-8-.53-9.66,2.69-.6,1.18.31,1.82,1.19,2.34.65.4,1.43.39,2.12.87,2.84,1.95,6.11,3,9.35,4.09l6,1.28c-.09.91-.77.81-1.4.85s-1.42-.24-2,.38l-.86,0a.74.74,0,0,0-.94-.73l-1.19-.15c-1.28-1.87-3.33-1.32-5.11-1.63v0c-.12-1.09-.83-1.31-1.77-1.21-2.59,0-4.32-2.26-6.78-2.63l-2.1-1.27c-.36-1.39-2.48-.91-2.66-2.5.79-.18,1-.43.23-1-2.28-1.65-4.53-3.34-6.8-5-2.56-1.88-4.62-4.35-7.32-6.05-.93-.59-1.64-3.66-1-3.87,1.34-.43,1.93-1.58,2.85-2.4a3.07,3.07,0,0,1,3.89-.35c2.8,1.48,5.29,3.46,8,5,2.31,1.3,4.24,3.3,7,3.82h.42c.18,1.89,2,1.79,3.11,2.41,1.6.89,3,2.31,5,2.29h.84C499.67,472,502.09,472.57,504.48,473.24Z"/><path class="cls-5" d="M559.17,578.74c-1.94-5-2.51-10.27-2.94-15.54a18.33,18.33,0,0,1,.95-6.25c.23-.86,1.06-2.14-.71-2.55,2.53-.82,3-3.35,4.26-5.19.25.15.53.37.4.66-.88,1.92-.2,4-.5,5.88-.25,1.6,1,2.36,1.13,3.73.34,5.2,7.24,10.87,12.39,10.24,1.09-.13,2-.49,2.86.55a.71.71,0,0,0,1.12.09c.36-.38.16-.81-.14-1.13a2.15,2.15,0,0,1-.85-2.05,3.26,3.26,0,0,1,1.53,1.36c2,3,4.08,5.93,6.12,8.89-.1.76.6,1.14.84,1.73,0,.62,0,1.25.85,1.29-.05.47.12,1.07-.58,1.19a.92.92,0,0,1-1-.61c-.74-1.45-2.4-2.21-3.45-1.68-2.29,1.16-4.62-.28-6.81.63a2.13,2.13,0,0,1-1.43-.22c-2-.86-4-1-5.81.33-.53.38-1.1.49-1.52,0-.75-.91-1.92-1.16-2.76-1.88-1.16-1-2.19-2.14-3,.3C560.08,578.66,559.51,578.66,559.17,578.74Z"/><path class="cls-4" d="M444.68,477.94c-.13,3.73.29,7.66,2,10.72,2.2,3.89,2.4,8.84,6.19,11.85.32,3.22,4.43,4.14,4.54,7.52,0,.54.67.71,1.2.65a1.77,1.77,0,0,1,2,2.18c-.59,2.45,1.53,3.16,2.61,4.34.67.74.56,1.24.77,2,.73,2.57,0,3.43-2.66,3.25a9,9,0,0,0-2.75.85,3.71,3.71,0,0,0-2.77,3.42c-.05.88-.18,1.45-1.22,1.62s-1,1.07-.91,1.87c0,.51.62,1.07-.12,1.51a20.09,20.09,0,0,1-3.36-7.21,74.63,74.63,0,0,1-.79-11.67,10.45,10.45,0,0,0-.57-4.82c-1.47-3.15-1.35-6.68-2.39-10-1.57-4.95-2-10.27-4.38-15a11.91,11.91,0,0,1-1.24-5.89c0-.92,0-1.85,0-2.77a2.29,2.29,0,0,1,.37-.12c.83,1.22,2.41,1.87,2.62,3.54,0,.62,0,1.24.85,1.28Z"/><path class="cls-6" d="M578.29,531.75c1.62-.1,1.47,1.08,1.33,2a19.78,19.78,0,0,0,1.62,10.7,91.17,91.17,0,0,0,5.47,10.46c1.19,2,3,3.3,4.59,4.91.36.37.8.71,1.3.33s.11-.76.06-1.17c-.25-2-2-3.68-1.46-5.89,1,.06,1,.81,1.34,1.55.73,1.74,1,3.79,2.91,4.87,1.14,4.17,3.91,7.26,6.83,10.25,0,.14,0,.27,0,.41a1.2,1.2,0,0,0,1.27,1.29c.8.54,1.6,1.06,1.72,2.13.88,2.25,3,3.45,4.52,5.11.92,1,1.63,2.33,3.18,2.58a2.18,2.18,0,0,1,2.56,1.71.82.82,0,0,0-.36.92c.17.65.75,1.4-.06,1.9-.61.39-1.18-.24-1.75-.48-3.45-1.43-6.11-4-8.9-6.34-.68-.58-1.12-1.51-2.19-1.54h0a.77.77,0,0,0-.85-.85h0c-2.64-4.07-6.61-7-9.5-10.87-4-5.37-8.19-10.52-11.21-16.51-.93-1.82-1.64-3.75-2.44-5.63a3.81,3.81,0,0,0-5.9-1.45c-.35.29-.16.62-.13,1,.09.92.08,1.84.14,2.76.12,1.55-.5,3.25.32,4.61,1,1.62.83,3.42,1.34,5.1.19.63.06,1.3-.84,1.4l0-.77a.74.74,0,0,0-.81-1L572,554c.45-.3.42-.59,0-.86a2.54,2.54,0,0,1,0-.39c-.14-1.38.12-2.89-1.25-3.88,0-3.6-.37-7.22.74-10.74C573.58,535.84,575.45,533.27,578.29,531.75Z"/><path class="cls-4" d="M571.43,538.1c-1.11,3.52-.77,7.14-.74,10.74,0,1.43,0,2.86,1.25,3.88a2.54,2.54,0,0,0,0,.39c-.4.3-.39.59,0,.86.13.43.27.86.41,1.29a.9.9,0,0,0,.81,1l0,.77a18.61,18.61,0,0,0,1.84,5.07c.75,1.37,1.92,2.6,2.07,4.28-.44.29-.51.58,0,.87l0,0a2.15,2.15,0,0,0,.85,2.05c.3.32.5.75.14,1.13a.71.71,0,0,1-1.12-.09c-.82-1-1.77-.68-2.86-.55-5.15.63-12-5-12.39-10.24-.09-1.37-1.38-2.13-1.13-3.73.3-1.92-.38-4,.5-5.88.13-.29-.15-.51-.4-.66,2.19-4.66,5.86-8,9.86-11C570.78,538,571.14,538.12,571.43,538.1Z"/><path class="cls-5" d="M466,463.78c0,.56,0,1.14.7,1.38.47.16.7.51.37,1a.64.64,0,0,1-.95.06c-2.53-2.28-5.43-1.38-8.24-.95-1.09.16-2.09.86-3.26.35-.17-.07-.55,0-.61.06-1.45,2.46-4.18.67-6,1.84a2,2,0,0,1-2.2-.32c-1.58-1.07-3.5-1.49-5.05-2.64-.83-.61-1.77-.21-2.61.23a30.93,30.93,0,0,1-3.76-14v-4.43l0,0a2.75,2.75,0,0,1,2.18,3,4.72,4.72,0,0,0,1.23,3.11c2.27,2.43,4.47,5,7.56,6.47,1.4.68,2.84.51,4.28.66,3.72.39,7.79-.58,11.17,1.91a.93.93,0,0,0,1.28,0c-.32-1.21-1.51-1.75-2.23-2.66-.41-.53-1-1.05.23-1.28l5.12,4.7A2.54,2.54,0,0,0,466,463.78Z"/><path class="cls-13" d="M546.27,560.25c.34.64.81.31,1.29.23.68-.12,1.53-.41,2,.26s-.24,1.32-.54,1.94-.62,1-.9,1.44a3.85,3.85,0,0,0,1,5.19A18.55,18.55,0,0,1,555,577c.57,1.22.11,2.58.3,3.89.76,5.15.83,10.42,3.31,15.23,1.2,2.32.8,5,.86,7.53.07,2.95-5,6.12-8.1,5.32-4.52-1.19-9.19-1.47-13.71-2.53a53,53,0,0,1-11.45-4.08c-2-1-4.46-1.43-5.88-3.5.87-.92,1.38-.07,1.91.43a3.52,3.52,0,0,0,2.61,1.26c2.83-.18,5.09,1.55,7.58,2.4,1.73.58,3.44,1.07,5.21,1.48a67.91,67.91,0,0,0,8.62,1.9,8.49,8.49,0,0,0,7.11-2c2.51-2.1,2-4.14,1.7-6.52l-.57-4.62c0-.07,0-.16,0-.21-1.32-2.35-1.13-5-1.56-7.53a3,3,0,0,1,.73-2.34,2.92,2.92,0,0,0,.06-3.86c-1-1.34-.82-3.11-1.7-4.67-1.64-2.92-4.44-4.32-6.76-6.31-1.3-1.12-2-1.81-1.13-3.6,1-2.1.77-2.34-1.68-2.55-.52,0-1-.08-1.28-.58Z"/><path class="cls-4" d="M632.68,606.2c-1-1.1-1.77.21-2.63.34-2.9.43-5.7-.21-8.54-.47l-.42-.87a2.61,2.61,0,0,0,.4-1.66c1.76.23,3.22,1.27,5.15,1.4,3.08.22,5.7-1.18,8.57-1.55a1.67,1.67,0,0,0,1.47-1.61c-.11-1.08-1.16-.76-1.9-.83a31.77,31.77,0,0,1-8.63-1.8c-2-.76-4-2-6.43-1.66-2.86.38-5.31,1.94-5.47,3.89-3.56-2.51-7.63-4.26-10.74-7.42-.24-.25-.8-.19-1.21-.28-.17-1.36-1.18-1.3-2.17-1.26h0l0-.87c1.16-1.45,1.92-3.18,4-3.92,3.1-1.14,5.06.78,7.33,2.15,1.59,1,2.88,2.55,4.94,2.62h.42c.07,1.1.8,1.32,1.72,1.27a.88.88,0,0,0,.85.43c.06,1.11.79,1.32,1.71,1.28a.87.87,0,0,0,.85.42,2.26,2.26,0,0,0,2.57,1.29l2.13.85a1.25,1.25,0,0,0,1.29.84c3.47.11,6.71,1.93,10.28,1.35.77-.12.79.62.8,1.2C637.19,603.35,634.83,604.64,632.68,606.2Z"/><path class="cls-4" d="M503.21,485.16c.57-.62,1.31-.33,2-.38s1.31.06,1.4-.85c3.06.38,6.06,1.18,9.17,0,2.39-.9,4.91-1.43,7.06-2.87.65-.43,1.36-1.16,1-1.92s-1.24-.27-1.92-.14a21.92,21.92,0,0,1-5.49,0c-3.17-.23-6.21-1.38-9.45-1.14-2.29.17-5.6,2.49-6.37,4.74-3.24-1.09-6.51-2.14-9.35-4.09-.69-.48-1.47-.47-2.12-.87-.88-.52-1.79-1.16-1.19-2.34,1.63-3.22,6.52-4.58,9.66-2.69a21.5,21.5,0,0,0,4.26,1.67c7.41,2.47,14.92,4.67,22.9,3.3,1-.17,1,.44,1,1.13a22,22,0,0,1-5.71,5.6c-1.12.54-2.58.37-3.34,1.64l-3.72.16c-.48-.08-.95-.15-1.3.31-1.73.09-3.38-.7-5.12-.42C505.67,485,504.14,486.22,503.21,485.16Z"/><path class="cls-14" d="M440.83,472.39c0,.92,0,1.85,0,2.77a11.91,11.91,0,0,0,1.24,5.89c2.34,4.69,2.81,10,4.38,15,1,3.29.92,6.82,2.39,10a10.45,10.45,0,0,1,.57,4.82,74.63,74.63,0,0,0,.79,11.67c-2.19-3.87-3.31-8.16-4.69-12.34a131.68,131.68,0,0,1-4.1-16.93,77.37,77.37,0,0,1-1-9,56.36,56.36,0,0,1,0-10.31C440.41,473.36,440.13,472.71,440.83,472.39Z"/><path class="cls-6" d="M599.72,541.6a6.86,6.86,0,0,1,4.57,1.3c2.59,1.58,5.14,3.62,8,4.26,2.45.56,4.5,1.74,6.77,2.53a101,101,0,0,1,17.9,23.47.49.49,0,0,1-.21,0,31.28,31.28,0,0,1-12.58-11.56,3,3,0,0,0-1.36-1.21h0a10.41,10.41,0,0,0-4.69-4.7h0A2,2,0,0,0,616.8,554h-.42a1.54,1.54,0,0,0-.5-1.31c-4.4-3.87-8.84-7.65-14.5-9.64C600.7,542.78,599.82,542.6,599.72,541.6Z"/><path class="cls-11" d="M602.26,507.51a1.8,1.8,0,0,1,1.07-1.7c3.37-2,6.33-4.63,10-6.1a.77.77,0,0,0,.91-.82l1.18-.49c1.12.13,2-1.64,3.28-.33,1.55,1.64,2.26.63,2.8-.9h3c1.19.52,1.65,1.75,2.53,2.57a1.59,1.59,0,0,1,0,.38.67.67,0,0,1-.31.07c-1.36-.06-2.77-.21-3,1.7h0a.86.86,0,0,0-.88.36.42.42,0,0,1-.31.07l-.52.42h0l-.43.41,0,0-.44.33a.74.74,0,0,1-.35.1.89.89,0,0,0-.93.36,60.92,60.92,0,0,1-9,5.12c-2.26.16-4.19-1.44-6.47-1.19C603.64,507.77,602.86,508.14,602.26,507.51Z"/><path class="cls-2" d="M466.91,672.73c.66-1.72,2.37-1.26,3.63-1.7a7.84,7.84,0,0,1,2.12,0c1.77-.11,3.69.54,5.17-1.14a2.27,2.27,0,0,1,1.59-.42c4.34.09,8.39-1.64,12.69-2a64.27,64.27,0,0,0,8.75-1.62,62.24,62.24,0,0,1,13.58-2.09c1.47,0,3-1.1,4.45.14-1.12,1.23-2.7.9-4,1.11-9.18,1.46-18.31,3.21-27.49,4.65-6.56,1-13,2.59-19.68,3.12a8,8,0,0,1-.85,0Z"/><path class="cls-2" d="M573.65,418.54a19.59,19.59,0,0,1-1.37,7c-.69,1.62-.48,3.6-.75,5.41-.87,5.87-.18,11.73,0,17.6-2.23-5.38-2-10.94-1.16-16.53a77.06,77.06,0,0,1,2.89-12.81A3.35,3.35,0,0,1,573.65,418.54Z"/><path class="cls-5" d="M461.28,543.76c.61-.08.85.37,1.15.78,2.2,3,4.42,6.05,6.63,9.07.55.75,1,1.56,2.1,1.64.75,2,2.57,3.22,3.42,5.12l-.06,1.41c-3-2.8-5.21-6.22-7.66-9.45-1.65-2.18-3.16-4.45-4.73-6.68A3.38,3.38,0,0,1,461.28,543.76Z"/><path class="cls-3" d="M639,601.35c0-.58,0-1.32-.8-1.2-3.57.58-6.81-1.24-10.28-1.35-.2-.63-.18-1.59-1.29-.84l-2.13-.85v-1.28a10.34,10.34,0,0,1,4.89,1.69c2.87,1.56,5.82,1.23,8.8,1.31.87,0,1.85-.37,2.58.49Z"/><path class="cls-13" d="M518.58,598.38l-1.35.49a103.9,103.9,0,0,1-11.51-7.64c.39-.67.87-.54,1.42-.19,2,1.26,4.09,2.41,6,3.8,1.37,1,3,1.46,4.38,2.37C518,597.51,518.57,597.68,518.58,598.38Z"/><path class="cls-3" d="M627,500.11a1.59,1.59,0,0,0,0-.38c.49-.91,1.35-.87,2.21-.87l13.33,0c-3.62,1-7.24,1.86-11,1A10.71,10.71,0,0,0,627,500.11Z"/><path class="cls-11" d="M474.52,561.78l.06-1.41c2.32,2,4.91,3.89,5.08,7.4L475,562.65l-.39-.57A.44.44,0,0,1,474.52,561.78Z"/><path class="cls-2" d="M466.89,672.7a15.34,15.34,0,0,1-8.39.66c-1.58-.33-3.44.48-4.76-1.27,4.39.52,8.78.53,13.17.64Z"/><path class="cls-3" d="M604.33,507.89c2.28-.25,4.21,1.35,6.47,1.19C608.37,510.19,606.32,509.21,604.33,507.89Z"/><path class="cls-5" d="M623.67,501.88c.25-1.91,1.66-1.76,3-1.7C625.56,500.53,624.88,501.68,623.67,501.88Z"/><path class="cls-3" d="M646.65,498.41c.85-1.4,2.24-1.25,3.58-1.24C649.24,498.17,647.9,498.15,646.65,498.41Z"/><path class="cls-13" d="M516.75,486c.76-1.27,2.22-1.1,3.34-1.64-.14.33-.13.77-.6.87l-.49.4-.08.1h-.13Z"/><path class="cls-13" d="M540.35,561.62c0,.61,0,1.29-.87,1.27-.74,0-.83-.53-.82-1.11Z"/><path class="cls-4" d="M434.39,446.29v4.43A4.94,4.94,0,0,1,434.39,446.29Z"/><path class="cls-14" d="M653.13,496.34c.28-1.46,1.43-.7,2.22-.87A2.6,2.6,0,0,1,653.13,496.34Z"/><path class="cls-3" d="M642.84,498.84c1-.73,2.08-.3,3.13-.38C645,499.28,643.89,498.81,642.84,498.84Z"/><path class="cls-13" d="M489.57,509.66c0-.77-.34-1.62.4-2.26C490,508.18,490.25,509,489.57,509.66Z"/><path class="cls-13" d="M506,545.37c-1,.11-1.08-.54-1.06-1.28A1.33,1.33,0,0,1,506,545.37Z"/><path class="cls-13" d="M507.7,547.09c-1,.1-1.12-.53-1.09-1.29A1.49,1.49,0,0,1,507.7,547.09Z"/><path class="cls-14" d="M651.81,496.71c.35-.48.84-.41,1.33-.38C652.84,497,652.3,496.75,651.81,496.71Z"/><path class="cls-5" d="M622.78,502.25a.86.86,0,0,1,.88-.36C623.5,502.34,623.15,502.32,622.78,502.25Z"/><path class="cls-3" d="M650.52,497.12a1,1,0,0,1,1-.36C651.29,497.19,650.93,497.21,650.52,497.12Z"/><path class="cls-5" d="M619.79,504a.89.89,0,0,1,.93-.36C620.52,504,620.18,504,619.79,504Z"/><path class="cls-6" d="M523.31,455.29c-.42-.17-.46-.53-.45-.91C523.3,454.54,523.28,454.93,523.31,455.29Z"/><path class="cls-14" d="M655.64,495.41l.57-.36Z"/><path class="cls-3" d="M664.58,490.73l.51-.39A.43.43,0,0,1,664.58,490.73Z"/><path class="cls-5" d="M622,502.74l.52-.42Z"/><path class="cls-6" d="M522.79,454l-.36-.46Z"/><path class="cls-4" d="M453.67,530.47l.37.55Z"/><path class="cls-6" d="M522.45,453.58l-.45-.45Z"/><path class="cls-6" d="M522,453.15l-.44-.45Z"/><path class="cls-6" d="M521.6,452.73l-.45-.5Z"/><path class="cls-5" d="M474.58,562.08l.39.57Z"/><path class="cls-6" d="M524.5,457l-.36-.5Z"/><path class="cls-6" d="M521.08,451.89l-.36-.47Z"/><path class="cls-6" d="M520.74,451.44l-.45-.44Z"/><path class="cls-13" d="M490,507.15l.39-.6Z"/><path class="cls-6" d="M523.65,455.73l-.36-.46Z"/><path class="cls-5" d="M621.07,503.5l.44-.33C621.46,503.41,621.33,503.54,621.07,503.5Z"/><path class="cls-5" d="M621.53,503.15l.43-.41Z"/><path class="cls-6" d="M637.26,573.61l-.36-.46Z"/><path class="cls-10" d="M519,485.63l.49-.4Z"/><path class="cls-6" d="M465.18,462.14l-5.12-4.7c-.95-2-2.67-3.47-4.11-5.1-3.93-4.46-6.59-9.65-9.07-15a2.89,2.89,0,0,1-.1-.84c.59-.1,1.27.11,1.08-1-.24-1.45-.77-2.85-1-4.27-.55-3.67.57-7.15,1.89-10.54a4.3,4.3,0,0,1,1.12-1.53c1.05-1,1.95-.69,2,.73.27,6.25,3.71,10.93,7.32,15.66,5.29,6.93,11.67,12.71,18.33,18.24a13.33,13.33,0,0,0,4.36,2.18c.48.16,1,.35,1.39-.09s.05-1.15-.28-1.54c-.86-1-1.85-2-2.76-3-.56-.62-1.39-1.05-1.43-2,1-.07,1.36,1,2.15,1.27a12,12,0,0,0,4.69,3.85,1.21,1.21,0,0,0,1.29,1.27,58.4,58.4,0,0,0,9.82,6.42c.08,1.1.8,1.32,1.72,1.27l.84,0c.06.85.67.84,1.29.84h.43c.43,1.54,1.7.56,2.56.85l.43.43c.19,1.15,1.23,1.05,2,1.22a4.69,4.69,0,0,1,2,.58c.76.61,2.14.86,2.15,1.88s-1.44.31-2.06.9c-3.06,2.93-5.7,0-8.46-.71-2-.49-3.27-2.44-5.43-2.59h-.85a1.84,1.84,0,0,0-2.14-1.7h-.43a20.59,20.59,0,0,0-7.26-4.69h-.43c-.13-.32-.17-.78-.4-.94a109.46,109.46,0,0,1-13.23-10.57,85.44,85.44,0,0,1-7.49-7.13c-2.11-2.47-4.53-4.66-6.58-7.17-1.51-1.86-2.44-1.91-4.3-.24-2.4,2.17-2.61,1.92-1.21,4.85,1.69,3.53,3.24,7.12,5.87,10.1a13.16,13.16,0,0,0,1,1.61c2.68,3.28,5.37,6.56,8.29,9.64C465.41,460.94,466.9,461.51,465.18,462.14Z"/><path class="cls-15" d="M481,450.61c-.79-.29-1.14-1.34-2.15-1.27l-.85-.86a1.74,1.74,0,0,0-1.7-1.71c-.42-.58-1.35-.77-1.29-1.7a1.77,1.77,0,0,0-1.69-1.73c-.16-.42-.31-.84-.46-1.26.11-.17.35-.38.31-.5-.84-2.47.43-3.86,2.42-4.94.48-.27,1.14-.6,1.28-1,.76-2.3,2.45-3.83,4.07-5.5,1.81-1.86,3.71-2.33,5.86-.75a3.26,3.26,0,0,0,2.32.75h.42a2.5,2.5,0,0,0,2.57,1.7h.42a1.2,1.2,0,0,0,1.29,1.27,49.31,49.31,0,0,1,6.83,4.71,2.61,2.61,0,0,0,2.13,1.71l.43.42a1.2,1.2,0,0,0,1.28,1.28l.43.43c0,1.07.93,1.57,1.57,2.18A36.61,36.61,0,0,1,515.86,458c.86,2.39,1.27,4.94-.51,6.83a6.61,6.61,0,0,1-7.25,1.71c-1.06-.37-2.25-.23-3.2-.95a1.08,1.08,0,0,1,1.35-.32c1.52.59,3.1.33,4.65.3,2.44,0,4.21-1.67,4.15-3.92a16.68,16.68,0,0,0-2.63-8.34,69.26,69.26,0,0,0-11.59-13.42,25.42,25.42,0,0,0-9-5.34,1.72,1.72,0,0,0-1.81.29c-1.38,1.29-3,2.47-3.91,4.06-1.37,2.47-3.9,3.88-5.21,6.4a3.73,3.73,0,0,0-.57,3.13A5.09,5.09,0,0,1,481,450.61Z"/><path class="cls-7" d="M489.1,430.1a3.26,3.26,0,0,1-2.32-.75c-2.15-1.58-4-1.11-5.86.75-1.62,1.67-3.31,3.2-4.07,5.5-.14.44-.8.77-1.28,1-2,1.08-3.26,2.47-2.42,4.94,0,.12-.2.33-.31.5-2.29-1.37-2.93-3.92-4.13-6-1-1.79-2.26-3.65-1.82-5.95V428c0-.43,0-.85,0-1.28,2.32-1.58,4.62-3.21,7.69-2.57h2.55c1.22,1.09,2.76,1.14,4.26,1.28h.86c.28,1.83,2,1.12,3,1.69l.84,0c.13,1.4,1.18,1.26,2.14,1.27h0C488.49,429,489.16,429.36,489.1,430.1Z"/><path class="cls-6" d="M474.59,424.12c-3.07-.64-5.37,1-7.69,2.57.41-2.06,1.78-3.19,4.56-3.37C472.5,423.25,474,422.1,474.59,424.12Z"/><path class="cls-6" d="M445.56,431.81c-1-1.49-.27-3.14-.44-4.7C446.71,428.54,445.94,430.19,445.56,431.81Z"/><path class="cls-6" d="M481.4,425.41c-1.5-.14-3-.19-4.26-1.28C478.73,424,480.3,423.93,481.4,425.41Z"/><path class="cls-6" d="M485.26,427.11c-1-.57-2.72.14-3-1.69C483.34,425.84,484.79,425.6,485.26,427.11Z"/><path class="cls-6" d="M488.24,428.4c-1,0-2,.13-2.14-1.27C487,427.17,488,427.18,488.24,428.4Z"/><path class="cls-6" d="M446.38,434.81a2.19,2.19,0,0,1-.77-2.16A1.43,1.43,0,0,1,446.38,434.81Z"/><path class="cls-6" d="M473.3,443.34a1.77,1.77,0,0,1,1.69,1.73A1.8,1.8,0,0,1,473.3,443.34Z"/><path class="cls-6" d="M466.89,428v2.14C465.54,429.39,465.52,428.68,466.89,428Z"/><path class="cls-6" d="M476.28,446.77a1.74,1.74,0,0,1,1.7,1.71A1.8,1.8,0,0,1,476.28,446.77Z"/><path class="cls-6" d="M445.12,425.84a.81.81,0,0,1,.4-.86C446.19,425.64,445.67,425.75,445.12,425.84Z"/><path class="cls-14" d="M651.39,488.15c2.41-2.93,6-4.48,8.55-7.22.14,0,.34,0,.41-.06,2.72-2.87,6.47-4.58,8.77-7.93,1.44-2.11,3.89-3.28,5.33-5.43,3.32-5,6.93-9.66,9.27-15.32,2.09-5.06,3-10.29,3.94-15.51a18.22,18.22,0,0,0-.25-8.06c-.59-2-.63-4.2-1.07-6.24-.59-2.69-.82-5.53-2.26-8-.17-.31-.49-.58-.54-.9-.09-.66-.48-1.61.32-1.89s.92.71,1.16,1.25A64.25,64.25,0,0,1,690.07,428a59.13,59.13,0,0,1-.25,22.73,2.54,2.54,0,0,1-.39.72c-1.76-.79-2.51.37-2.44,1.7.15,3.26-2.21,5.38-3.28,8.08-1.26,3.21-3.7,5.66-5.64,8.42a30,30,0,0,1-5.93,6.33c-2.71,2.12-5.66,4-8.18,6.33-2.89,2.7-6.58,3.93-9.83,6A2.13,2.13,0,0,1,651.39,488.15Z"/><path class="cls-7" d="M673.63,459.17a4.24,4.24,0,0,1,1-3.38c1-1.14.52-2.58.79-3.87a75.79,75.79,0,0,0,1.52-13.55c.09-3.55-.86-7.12-1.29-10.69a21.28,21.28,0,0,0-1.89-7.34.71.71,0,0,1,.33-.91c.21.28.53.53.61.84.84,3.34,2.53,6.48,2.4,10.06,0,.44-.23,1.17.46,1.22s.77-.68.79-1.24c0-.92,0-1.85,0-2.77,1.75.22,2.31-.66,2.13-2.26-1-8.94-3.07-17.53-8.51-24.93-1.71-2.32-3.3-4.78-5.61-6.6a2.24,2.24,0,0,1-.83-1.66c2.93,1.4,4.55,4.15,6.59,6.46A40.42,40.42,0,0,1,679.77,412a51.13,51.13,0,0,1,2.87,12.74,49.94,49.94,0,0,1-1.44,17.7,73.58,73.58,0,0,1-3.1,8.14c-1,2.49-2.15,4.93-3.16,7.43C674.67,458.66,674.37,459.12,673.63,459.17Z"/><path class="cls-4" d="M651.39,488.15a2.13,2.13,0,0,0,2.74.13c3.25-2,6.94-3.26,9.83-6,2.52-2.34,5.47-4.21,8.18-6.33a30,30,0,0,0,5.93-6.33c1.94-2.76,4.38-5.21,5.64-8.42,1.07-2.7,3.43-4.82,3.28-8.08-.07-1.33.68-2.49,2.44-1.7-.44,2.13-.49,4.44-1.4,6.34-1.44,3-1.95,6.36-3.71,9.22-1.39,2.24-1.92,5-4.26,6.66-.8-.9-1.25-.91-2.31.06-2.89,2.66-4.69,6.43-8.39,8.26-6.37,3.13-11.64,8.09-18.41,10.64-3.86,1.45-7.59,2.94-11.77,3-.61,0-.95.05-1-.62,0-.27,0-.55,0-.83,1-.14,1.87-1,3-.89.68.67.77.13.85-.42l5.93-2.59c1,.11,1.68-.1,1.77-1.23C650.27,488.78,650.66,488.15,651.39,488.15Z"/><path class="cls-14" d="M682.64,410.78c-.48-.09-.66-.57-.73-1s.32-.54.69-.53c.63,0,.84.4.79.95C683.36,410.54,683.17,410.81,682.64,410.78Z"/><path class="cls-7" d="M670.64,466c.12-.8.25-1.59,1.26-1.73C671.77,465.06,671.63,465.84,670.64,466Z"/><path class="cls-14" d="M681.53,406.71c0,.45-.06.68-.42.68s-.55-.13-.57-.46,0-.62.4-.56S681.38,406.62,681.53,406.71Z"/><path class="cls-7" d="M669.34,468.55c0-.63,0-1.25.86-1.29A1.3,1.3,0,0,1,669.34,468.55Z"/><path class="cls-7" d="M672.77,461.72a.76.76,0,0,1,.84-.86A.77.77,0,0,1,672.77,461.72Z"/><path class="cls-14" d="M638.17,494.19c0,.28,0,.56,0,.83l-.91,0A.8.8,0,0,1,638.17,494.19Z"/><path class="cls-3" d="M678.32,427.54c0,.92,0,1.85,0,2.77,0,.56,0,1.29-.79,1.24s-.48-.78-.46-1.22c.13-3.58-1.56-6.72-2.4-10.06-.08-.31-.4-.56-.61-.84-.14-.57-.29-1.14-.43-1.71a53.47,53.47,0,0,0-1.76-5.18c-2.11-4.66-4.32-9.27-7.82-13.11-2.89-3.17-5.42-6.65-8.57-9.61-1.31-1.22-3.42-1.91-3.63-4.14,3,.78,5.21,2.79,7.41,4.71a57.26,57.26,0,0,1,14.45,19.08,3.39,3.39,0,0,1,.36,1.41.78.78,0,0,0,.83.87c.59,3,2.3,5.76,2.17,8.95.12,1,0,2.14,1.25,2.59C678.31,424.7,678.31,426.12,678.32,427.54Z"/><path class="cls-7" d="M651.83,385.68c.21,2.23,2.32,2.92,3.63,4.14,3.15,3,5.68,6.44,8.57,9.61,3.5,3.84,5.71,8.45,7.82,13.11a53.47,53.47,0,0,1,1.76,5.18c-2-.61-1.89-2.69-2.47-4.09a55.54,55.54,0,0,0-7.39-12.74c-4-5.24-8.37-10.2-13.89-14a42.29,42.29,0,0,0-7.63-4.34,1.43,1.43,0,0,1-1.08-1.6c1.66.08,3.09,1,4.7,1.28,1.54.69,3.06,1.43,4.62,2C651.19,384.58,651.81,384.79,651.83,385.68Z"/><path class="cls-7" d="M678.3,423.29c-1.27-.45-1.13-1.58-1.25-2.59C678.31,421.15,678.18,422.28,678.3,423.29Z"/><path class="cls-7" d="M674.88,411.75a.78.78,0,0,1-.83-.87A.76.76,0,0,1,674.88,411.75Z"/><path class="cls-7" d="M492.09,431.81a2.5,2.5,0,0,1-2.57-1.7C490.69,430.2,491.84,430.33,492.09,431.81Z"/><path class="cls-7" d="M502.76,439.51a2.61,2.61,0,0,1-2.13-1.71C501.62,438,502.64,438.21,502.76,439.51Z"/><path class="cls-7" d="M493.8,433.09a1.2,1.2,0,0,1-1.29-1.27A1.2,1.2,0,0,1,493.8,433.09Z"/><path class="cls-7" d="M504.47,441.21a1.2,1.2,0,0,1-1.28-1.28A1.2,1.2,0,0,1,504.47,441.21Z"/><path class="cls-15" d="M483.12,460.43h.43c0,1,.82,1.14,1.42,1.59,1.28,1,2.9,1.56,3.7,3.11-2.73-.52-4.66-2.52-7-3.82-2.75-1.54-5.24-3.52-8-5a3.07,3.07,0,0,0-3.89.35c-.92.82-1.51,2-2.85,2.4-.66.21.05,3.28,1,3.87,2.7,1.7,4.76,4.17,7.32,6.05,2.27,1.66,4.52,3.35,6.8,5,.82.58.56.83-.23,1l-.76-.13a1.22,1.22,0,0,0-1.36-1.16c-.36-.64-1.31-.26-1.64-.95a.78.78,0,0,0-.92-.77l-1.24-.45c0-.55-.31-.85-.88-.81a.88.88,0,0,0-.84-.46,37.69,37.69,0,0,0-8.13-6.48,2.54,2.54,0,0,1-.84-1.64c1.72-.63.23-1.2-.11-1.56-2.92-3.08-5.61-6.36-8.29-9.64a13.16,13.16,0,0,1-1-1.61c-.3-2.17.07-3.94,2.66-4.34a.8.8,0,0,0,.36-.22c1.34-1.24,2.52-1,3.91.11,5.25,4.35,10.29,9,15.89,12.91C480,458.79,481.31,460.07,483.12,460.43Z"/><path class="cls-12" d="M484.45,477.49l2.1,1.27a1.39,1.39,0,0,1-1.32.89c-3.4.19-6.48,2.16-9.71,2.27-2.93.1-5.65.92-8.5,1.22-3.52.37-7.21.36-10.25,2.8a2,2,0,0,0-.56,2.91,16.66,16.66,0,0,0,3,3.56c2.57,2.67,3.83,6.31,6.69,8.77a4.23,4.23,0,0,1,1.4,3.24c-1.53-.13-1.66-1.57-2.36-2.49-3.8-5-7.59-10-11.47-14.91a3.84,3.84,0,0,1-.64-3c0-.55.47-1,.22-1.65-.18-.44-.5-1.06.14-1.28.89-.31.75.55.93,1,.35,1,1.07,1.23,1.79.51,1.44-1.48,3.77-1.65,4.95-3.5.31-.47.85-.34,1.34,0a6.37,6.37,0,0,0,7.67-.81c1-1,1.89-1.42,3.28-.38s3.13.43,4.67-.16c.45-.17.9-.86,1.29-.56C480.87,478.5,482.67,477.57,484.45,477.49Z"/><path class="cls-12" d="M502.71,577c-.1,1.06-.82,1.07-1.37.74-.85-.5-1.54-.91-2.39,0a.67.67,0,0,1-1.07-.22c-.18-.41.18-.67.49-.82.91-.44,1.46-1.55,2.73-1.37C502.19,575.47,502.35,576.31,502.71,577Z"/><path class="cls-14" d="M479.67,473.7a1.22,1.22,0,0,1,1.36,1.16C480.16,475,479.78,474.48,479.67,473.7Z"/><path class="cls-12" d="M505.68,577.41c-.21.18-.33.36-.47.38a.62.62,0,0,1-.5-.19c-.12-.32.11-.5.41-.49C505.27,577.12,505.43,577.27,505.68,577.41Z"/><path class="cls-14" d="M477.11,472a.78.78,0,0,1,.92.77A.75.75,0,0,1,477.11,472Z"/><path class="cls-11" d="M475,470.72c.57,0,.84.26.88.81A.78.78,0,0,1,475,470.72Z"/><path class="cls-15" d="M665.49,406.19c2,1.43,2.44,3.92,3.27,5.94,1.08,2.62,2.43,5.36,1.93,8.48-.2,1.24.73,2.42,1.17,3.61.82,2.17.55,4.49.8,6.73a51,51,0,0,1-.92,16.86,72.51,72.51,0,0,1-4.8,13.25,54.72,54.72,0,0,1-14.24,18.63,53.47,53.47,0,0,1-12.9,8c-5.62,2.65-11.62,3.25-17.5,3.59-3.68.21-6.06,2.07-8.92,3.47-1.57.78-3.12,1.59-4.68,2.39.14-2.53.37-5.07.39-7.61,0-2.37-1.15-3.63-3-3.51-.66.07-.84-.58-1.28-.85a.78.78,0,0,0-.86-.85h-.42a1.46,1.46,0,0,0-.52-1.13,36.73,36.73,0,0,1-8.13-8.56c-1.63-2.48-3.48-4.84-4.47-7.66s-2.29-5.16-3.16-7.91A56.66,56.66,0,0,1,585,448.17a54.4,54.4,0,0,1-.31-12.9,59.78,59.78,0,0,1,4.78-18.08c3.88-8.28,10.06-14.36,17.27-19.65,3.34-2.45,7.17-3.83,10.88-5.49a39.11,39.11,0,0,1,9.41-2.47,62.27,62.27,0,0,1,12.88-.48h.85c1.23,1.09,2.76,1.16,4.28,1.27l.83,0c.07.31.08.72.52.63.16,0,.24-.4.36-.61,1.08.39,1.62,1.75,3,1.67,0,.86.66.87,1.29.86.43.26.62.91,1.28.85,1.35,1.63,3.2,2.69,4.75,4.09a65,65,0,0,1,6.82,7.73C664.3,406.2,664.66,406.78,665.49,406.19Zm-13.44,23.57c-4.94-.5-8.9,4.44-8.78,8.15a10.83,10.83,0,0,0,11,10.84c4.82,0,9-4.09,9-8.7C663.12,434.41,658.1,429.77,652.05,429.76Zm-37.89,10c.76-6.27-5.9-10-10.81-10-5.19.06-8.65,3.49-8.66,8.67,0,5.65,4.88,10.27,10.77,10.35C609.61,448.83,614.6,445.9,614.16,439.74Zm24.36-.17c.69-5.28-5.55-9.95-10.81-9.83-5.45.12-8.66,3.36-8.65,9,0,5.46,5.05,10,11.07,10C635.15,448.72,638.53,445,638.52,439.57Z"/><path class="cls-5" d="M586.5,472c-.15-.27-.31-.54-.47-.81a1.17,1.17,0,0,0-1.21-1.33c-.16-.41-.33-.82-.5-1.23a1.18,1.18,0,0,0-1.16-1.34c-1.06-2.15-2.36-4.16-3.34-6.38a50.44,50.44,0,0,1-4.61-18.19c-.22-5.2-.26-10.44,1.09-15.68a73.87,73.87,0,0,1,4-12.27,50.27,50.27,0,0,1,8.34-13,59.11,59.11,0,0,1,14.51-12.07,15.42,15.42,0,0,1,2.52-1.08.75.75,0,0,0,1-.73l2-.55c1.15-.27,2.33-.47,3.09-1.54l2.44-.18c.87-.14,1.85-.06,2.25-1.13l.82-.05c.63.62,1,.45,1.32-.34l3-.08c.31.42.59.37.85,0h7.26c.26.43.54.47.85,0l2.53.07c1.34,1.22,3,1.43,4.73,1.61.07.66-.59.82-.85,1.25H636c-1.14-1.53-2.9-1.1-4.39-1.23a43.69,43.69,0,0,0-19.31,3.1,45.88,45.88,0,0,0-12.33,7,51.74,51.74,0,0,0-11.28,11.59,75.65,75.65,0,0,0-6.8,12.52c-1.76,4.13-2.23,8.68-3.06,13.08a25.07,25.07,0,0,0-.35,7c.26,2.79.58,5.6,1,8.39a52.75,52.75,0,0,0,4.72,15.08c.43.86.06,2.51,1.77,2.54.5,2.25,1.37,4.27,3.42,5.56V472a1.84,1.84,0,0,0,1.71,2.14,3.83,3.83,0,0,1,1.71,2.14,2,2,0,0,0,1.28,1.7l.43.43a2,2,0,0,0,1.71,1.28,3.28,3.28,0,0,0,2.35,1.68,2.38,2.38,0,0,1,1.92,1.73l0,1.38c-.58-.13-1.27.08-1.67-.56a1.19,1.19,0,0,0-1.33-1.22,2.32,2.32,0,0,1-.38-.06,1.18,1.18,0,0,0-1.33-1.22l-.81-.46a.77.77,0,0,0-.86-.84c-2.34-1.21-3.36-3.83-5.53-5.21,0-.6-.06-1.16-.85-1.2-.16-.27-.32-.54-.47-.82A.76.76,0,0,0,586.5,472Z"/><path class="cls-4" d="M600.55,484.44l0-1.38c1.32-.32,1.8,1.31,3,1.28H604a.77.77,0,0,0,.86.85c.44.27.62.92,1.28.85a6.43,6.43,0,0,1,.88,3.6c-.07,2.8,0,5.59,0,8.39-.15.28-.31.55-.46.82a2,2,0,0,0-2.12,1.3c-1.12.79-1.53.4-1.78-.86-.58-2.94-.27-5.89-.28-8.84C602.37,488.23,602.55,486,600.55,484.44Z"/><path class="cls-14" d="M665.49,406.19c-.83.59-1.19,0-1.66-.57a65,65,0,0,0-6.82-7.73c-1.55-1.4-3.4-2.46-4.75-4.09.14-.43.28-.86.43-1.28A39.9,39.9,0,0,1,665.49,406.19Z"/><path class="cls-4" d="M652.69,392.52c-.15.42-.29.85-.43,1.28-.66.06-.85-.59-1.28-.85a1.29,1.29,0,0,0-1.29-.86c-1.35.08-1.89-1.28-3-1.67l-.88,0-.83,0c-1-1.5-2.62-1.71-4.28-1.69-.22-1.72-1.55-1.19-2.58-1.27h-1.27V387c.26-.43.92-.59.85-1.25l.5-.07a7.86,7.86,0,0,1,2.91.54c.35,1.11,1.36,1,2.21,1.18A53.86,53.86,0,0,1,652.69,392.52Z"/><path class="cls-3" d="M607,498c0-2.8-.07-5.59,0-8.39a6.43,6.43,0,0,0-.88-3.6c1.81-.12,3,1.14,3,3.51,0,2.54-.25,5.08-.39,7.61C608.22,497.62,607.8,498.2,607,498Z"/><path class="cls-5" d="M621.51,497.17c-.54,1.53-1.25,2.54-2.8.9-1.24-1.31-2.16.46-3.28.33.73-1.78,2.3-1.65,3.78-1.6A16.68,16.68,0,0,1,621.51,497.17Z"/><path class="cls-14" d="M638.23,385.63l-.5.07c-1.7-.18-3.39-.39-4.73-1.61C634.82,384.34,636.83,384,638.23,385.63Z"/><path class="cls-14" d="M611.73,385.8c-.76,1.07-1.94,1.27-3.09,1.54C609.25,386,610.54,386,611.73,385.8Z"/><path class="cls-14" d="M616.42,384.49c-.4,1.07-1.38,1-2.25,1.13A1.85,1.85,0,0,1,616.42,384.49Z"/><path class="cls-15" d="M604.43,500.16a2,2,0,0,1,2.12-1.3C606.33,500.08,605.36,500.09,604.43,500.16Z"/><path class="cls-14" d="M643.35,387.35c-.85-.19-1.86-.07-2.21-1.18C642,386.35,643,386.29,643.35,387.35Z"/><path class="cls-14" d="M649.7,489.06c-.09,1.13-.82,1.34-1.77,1.23C648.15,489.35,648.89,489.15,649.7,489.06Z"/><path class="cls-4" d="M595.84,481.38a1.18,1.18,0,0,1,1.33,1.22A1.23,1.23,0,0,1,595.84,481.38Z"/><path class="cls-4" d="M584.82,469.82a1.17,1.17,0,0,1,1.21,1.33A1.23,1.23,0,0,1,584.82,469.82Z"/><path class="cls-4" d="M597.55,482.66a1.19,1.19,0,0,1,1.33,1.22C598.05,483.9,597.67,483.42,597.55,482.66Z"/><path class="cls-4" d="M583.16,467.25a1.18,1.18,0,0,1,1.16,1.34C583.58,468.46,583.08,468.11,583.16,467.25Z"/><path class="cls-14" d="M618.56,384.1c-.27.79-.69,1-1.32.34C617.57,383.9,618.06,384,618.56,384.1Z"/><path class="cls-4" d="M587.79,473.67c.79,0,.85.6.85,1.2A1.1,1.1,0,0,1,587.79,473.67Z"/><path class="cls-14" d="M606.59,387.89a.75.75,0,0,1-1,.73C605.74,388.1,606,387.8,606.59,387.89Z"/><path class="cls-5" d="M614.25,498.89a.77.77,0,0,1-.91.82A.8.8,0,0,1,614.25,498.89Z"/><path class="cls-4" d="M594.17,480.08a.77.77,0,0,1,.86.84A.78.78,0,0,1,594.17,480.08Z"/><path class="cls-4" d="M586.5,472a.76.76,0,0,1,.82.89A.79.79,0,0,1,586.5,472Z"/><path class="cls-14" d="M622.36,384c-.26.42-.54.47-.85,0C621.77,383.56,622.05,383.53,622.36,384Z"/><path class="cls-14" d="M642,492.88c-.08.55-.17,1.09-.85.42A.9.9,0,0,1,642,492.88Z"/><path class="cls-14" d="M630.47,384c-.31.42-.59.38-.85,0C629.93,383.53,630.21,383.56,630.47,384Z"/><path class="cls-4" d="M495.11,482.62c1.78.31,3.83-.24,5.11,1.63l-2.58,0C497.05,483.35,495.54,483.81,495.11,482.62Z"/><path class="cls-4" d="M493.33,481.39c.94-.1,1.65.12,1.77,1.21C494.29,482.51,493.54,482.34,493.33,481.39Z"/><path class="cls-9" d="M578.37,604.38c-.28,0-.66.06-.82-.1-2.61-2.36-5.52-4.44-7.31-7.59,1.2.25.43-1.54,1.83-1.54,3.71,0,7.38,1.11,11.1.3a1.12,1.12,0,0,1,.78.26,2.75,2.75,0,0,0,2.41.41c1.33-.2,2.68-.19,4-.44s2.88.56,3.74-1.24c0-.1.32-.21.36-.17,1.41,1.17,3.46-.27,4.89,1.27a3.47,3.47,0,0,0,2.16,1.42c.41-.55-.41-1.24.37-1.59a4,4,0,0,1,.94.42A62.85,62.85,0,0,0,613,602.22a2.94,2.94,0,0,0,0,.42c-1.52.85-3,1.3-4.24-.46-.4-.55-1.19-.3-1.81-.38-2.93-.34-5.73.59-8.59.83-2.47.2-5-.8-7.41.74a.9.9,0,0,1-.61.06c-3.16-.72-6.37-.15-9.54-.35A2.24,2.24,0,0,0,578.37,604.38Z"/><path class="cls-11" d="M559.17,578.74c.34-.08.91-.08,1-.25.79-2.44,1.82-1.31,3-.3.84.72,2,1,2.76,1.88.42.51,1,.4,1.52,0,1.86-1.36,3.81-1.19,5.81-.33a2.13,2.13,0,0,0,1.43.22c2.19-.91,4.52.53,6.81-.63,1-.53,2.71.23,3.45,1.68a.92.92,0,0,0,1,.61c.7-.12.53-.72.58-1.19h0l1.25.44.45.41a.81.81,0,0,0,.79.9l.84.49c.17.25.33.5.49.75,0,.6,0,1.26.89,1.21.57.85,1.14,1.7,1.7,2.55-.23.69.57,1.39.07,2-.3.38-.87.13-1.15-.15-1.35-1.32-2.85-1-4.61-1.12-4.93-.21-9.84-.3-14.77-.23-2.38,0-4.89-.44-6.51,2-.1.16-.54.09-.82.12-2-1.92-3.06-4.45-4.24-6.86C560.2,581.65,559.28,580.33,559.17,578.74Z"/><path class="cls-8" d="M565.11,589.86c.28,0,.72,0,.82-.12,1.62-2.47,4.13-2,6.51-2,4.93-.07,9.84,0,14.77.23,1.76.07,3.26-.2,4.61,1.12.28.28.85.53,1.15.15.5-.62-.3-1.32-.07-2,1.18.49,1.93,1.54,2.94,2.26a.79.79,0,0,0,.91.78c1.21.6,1.5,2.64,3.39,2.19h0c.37.77.43,1.83,1.68,1.76l.1,1.19c-.78.35,0,1-.37,1.59a3.47,3.47,0,0,1-2.16-1.42c-1.43-1.54-3.48-.1-4.89-1.27,0,0-.31.07-.36.17-.86,1.8-2.37,1-3.74,1.24s-2.7.24-4,.44a2.75,2.75,0,0,1-2.41-.41,1.12,1.12,0,0,0-.78-.26c-3.72.81-7.39-.29-11.1-.3-1.4,0-.63,1.79-1.83,1.54C568.35,594.55,565.77,592.93,565.11,589.86Z"/><path class="cls-13" d="M578.37,604.38a2.24,2.24,0,0,1,2.44-1.3c3.17.2,6.38-.37,9.54.35a.9.9,0,0,0,.61-.06c2.36-1.54,4.94-.54,7.41-.74,2.86-.24,5.66-1.17,8.59-.83.62.08,1.41-.17,1.81.38,1.28,1.76,2.72,1.31,4.24.46.88.73,2.28.56,3,1.69a5.41,5.41,0,0,1-4.13,2.2,17.85,17.85,0,0,0-6.26,1.12c-2.09.93-4.63-.07-6.31,1.84a1.39,1.39,0,0,1-1.17.38c-2.91-1.08-5.52.46-8.26.86a4.7,4.7,0,0,1-3.27-.64C583.76,608.28,580.71,606.84,578.37,604.38Z"/><path class="cls-4" d="M616,604.33c-.67-1.13-2.07-1-3-1.69a2.94,2.94,0,0,1,0-.42c2.31.56,4.62,1.14,6.38,2.92l-.45.12Z"/><path class="cls-13" d="M618.94,605.26l.45-.12,1.7.06.42.87C619.47,607.44,619.21,607.35,618.94,605.26Z"/><path class="cls-5" d="M444.67,477.09c-.86,0-.85-.66-.85-1.28A1.26,1.26,0,0,1,444.67,477.09Z"/><path class="cls-4" d="M501.41,484.4a.74.74,0,0,1,.94.73C501.78,485.21,501.53,484.9,501.41,484.4Z"/><path class="cls-3" d="M602.29,570.19c0-.14,0-.27,0-.41-.28-1.69-2.19-3.29-1-5,1.55-2.24,2.84-4.89,5.6-6a3.1,3.1,0,0,0,1.69-1.44c2-3.71,4.22-3.42,7.93-1.31.67.38,1.17,1,2,.9h0c.06,1.68,1.11,2.51,2.56,3l.43.43a2,2,0,0,0,.36,1.4,50.89,50.89,0,0,1,7.87,13,18.4,18.4,0,0,1,1.59,8.66c-.14,2.15-2.22,2.59-3.32,3.88-.08.1-.07.27-.1.41h-.85c-1.68-1.67-3.82-1.73-6-1.71h0c0-.86-.66-.86-1.28-.85l-2.13-.87a.78.78,0,0,0-.86-.84l-1.28-.43A2.17,2.17,0,0,0,613,581.3c-1.68-3.46-4.84-5.42-7.7-7.69-.12-1.07-.92-1.59-1.72-2.13A1.21,1.21,0,0,0,602.29,570.19Z"/><path class="cls-3" d="M589.82,582.69l-.84-.49c0-.28,0-.56,0-.84.92-.89-.16-1.2-.52-1.67-2.5-3.36-5.16-6.61-7.12-10.34,1.32-1.3,3.23-1.37,4.72-2.25,1.89-1.12,3.19-.49,4.44.94a126.81,126.81,0,0,0,12,12c1.25,1.11,2.39,2.4,4,3H607c.41,1.55,1.81,2.14,2.91,3s3,1.55,3.5,3.36a3.83,3.83,0,0,1-2.07-1c-4.08-3.23-8.24-6.36-12.18-9.75-1.37-1.18-2.81-1.72-4.19-1-1.74.86-4.32,1.17-4.2,4.07C589.59,581.23,590,582.24,589.82,582.69Z"/><path class="cls-15" d="M606.56,583c-1.65-.59-2.79-1.88-4-3a126.81,126.81,0,0,1-12-12c-1.25-1.43-2.55-2.06-4.44-.94-1.49.88-3.4.95-4.72,2.25a33.65,33.65,0,0,1-3.94-6.9c-2.23-4.49-2.27-4.76,1.27-7.75,1.31-1.11,2.54-1.09,3.38.37,1.39,2.42,3.57,4.17,5.07,6.52,2.78,4.38,6.61,7.92,10.05,11.76,1.17,1.3,2.07,3.17,4.24,3.26h0a.78.78,0,0,0,.85.85h0c.25,1.47,1.65,2,2.44,3.07C605.35,581.35,606.46,581.8,606.56,583Z"/><path class="cls-15" d="M627.91,587.71c0-.14,0-.31.1-.41,1.1-1.29,3.18-1.73,3.32-3.88a18.4,18.4,0,0,0-1.59-8.66,50.89,50.89,0,0,0-7.87-13,2,2,0,0,1-.36-1.4h1.27c0,1.59,1.07,2.67,1.94,3.68a43.06,43.06,0,0,1,5.66,8.94,22.57,22.57,0,0,1,2.66,9.45C633.13,585.85,631.32,587.71,627.91,587.71Z"/><path class="cls-15" d="M613.39,589.42c-.5-1.81-2.25-2.34-3.5-3.36s-2.5-1.49-2.91-3c1.87-.15,2.63,1.56,3.79,2.46a95.52,95.52,0,0,0,7.87,5.71,1.39,1.39,0,0,1,.73,1.22h-1.7c-.72-1.73-2.35-2.28-3.86-3Z"/><path class="cls-15" d="M621.08,586c2.16,0,4.3,0,6,1.71C624.91,587.69,622.64,588.08,621.08,586Z"/><path class="cls-14" d="M624.5,595.83v1.28a2.26,2.26,0,0,1-2.57-1.29.93.93,0,0,1,.86-.43h1.28Z"/><path class="cls-3" d="M618.51,592.42h1.28c0,.92,1.1,1,1.29,1.71h-1.71a.88.88,0,0,1-.85-.43C618.51,593.27,618.51,592.84,618.51,592.42Z"/><path class="cls-3" d="M622.79,595.39a.93.93,0,0,0-.86.43.87.87,0,0,1-.85-.42v-1.28h1.71C622.79,594.55,622.79,595,622.79,595.39Z"/><path class="cls-15" d="M621.94,594.12h-.86c-.19-.75-1.32-.79-1.29-1.71A2.59,2.59,0,0,1,621.94,594.12Z"/><path class="cls-15" d="M622.79,595.39c0-.42,0-.84,0-1.27a1.2,1.2,0,0,1,1.29,1.28Z"/><path class="cls-15" d="M619.8,585.15c.62,0,1.24,0,1.28.85A1.26,1.26,0,0,1,619.8,585.15Z"/><path class="cls-15" d="M616.81,583.44a.78.78,0,0,1,.86.84A.76.76,0,0,1,616.81,583.44Z"/><path class="cls-7" d="M599.72,541.6c.1,1,1,1.18,1.66,1.42,5.66,2,10.1,5.77,14.5,9.64a1.54,1.54,0,0,1,.5,1.31,1.58,1.58,0,0,1-1.13-.5,29.85,29.85,0,0,0-6.15-4.83c-1.39-.85-2.66-1.55-4.22.22a15.63,15.63,0,0,1-5.1,3.58c-3.31,1.5-3.92,4.1-4.33,7.09-1.87-1.08-2.18-3.13-2.91-4.87-.3-.74-.35-1.49-1.34-1.55v-.85c0-1.43.06-2.87-.11-4.28a5.41,5.41,0,0,1,5.22-6.4H598c.28.44.57.45.86,0Z"/><path class="cls-6" d="M596.31,541.58a5.41,5.41,0,0,0-5.22,6.4c.17,1.41.08,2.85.11,4.28-1.87-3.16-1.83-8.1.83-10.09a10.09,10.09,0,0,1,3.5-1.35C596.05,540.66,596.25,541.12,596.31,541.58Z"/><path class="cls-6" d="M598.87,541.59c-.29.44-.58.43-.86,0C598.3,541.14,598.59,541.15,598.87,541.59Z"/><path class="cls-13" d="M511.73,486.47c.35-.46.82-.39,1.3-.31C512.78,487,512.34,487.14,511.73,486.47Z"/><path class="cls-3" d="M481,450.61a5.09,5.09,0,0,0-.64-2.22,3.73,3.73,0,0,1,.57-3.13c1.31-2.52,3.84-3.93,5.21-6.4.88-1.59,2.53-2.77,3.91-4.06a1.72,1.72,0,0,1,1.81-.29,25.42,25.42,0,0,1,9,5.34,69.26,69.26,0,0,1,11.59,13.42,16.68,16.68,0,0,1,2.63,8.34c.06,2.25-1.71,3.87-4.15,3.92-1.55,0-3.13.29-4.65-.3a1.08,1.08,0,0,0-1.35.32h-.85c-.15-.14-.29-.28-.43-.43-.43-1.55-1.71-.57-2.56-.85h-.43a1.24,1.24,0,0,0-1.29-.84l-.84,0c-.07-1.1-.79-1.33-1.72-1.27a58.4,58.4,0,0,1-9.82-6.42,1.18,1.18,0,0,0-1.29-1.27A12,12,0,0,1,481,450.61Z"/><path class="cls-15" d="M493.38,466.83h.85c0,1,.76,1.19,1.41,1.57s1.51.43,1.57,1.42c-2,0-3.41-1.4-5-2.29-1.12-.62-2.93-.52-3.11-2.41h2.15A2.53,2.53,0,0,0,493.38,466.83Z"/><path class="cls-15" d="M504.48,473.24c-2.39-.67-4.81-1.29-6.43-3.4C500.24,470.89,503,470.84,504.48,473.24Z"/><path class="cls-15" d="M508.75,474.94c-1-.39-2.38-.12-2.59-1.68C507.2,473.56,508.37,473.64,508.75,474.94Z"/><path class="cls-5" d="M500.62,482.65c.77-2.25,4.08-4.57,6.37-4.74,3.24-.24,6.28.91,9.45,1.14a21.92,21.92,0,0,0,5.49,0c.68-.13,1.57-.61,1.92.14s-.37,1.49-1,1.92c-2.15,1.44-4.67,2-7.06,2.87-3.11,1.16-6.11.36-9.17,0Z"/><path class="cls-7" d="M490.81,465.12h-2.14c-.8-1.55-2.42-2.14-3.7-3.11-.6-.45-1.43-.62-1.42-1.59A20.59,20.59,0,0,1,490.81,465.12Z"/><path class="cls-7" d="M601.43,576.61c-2.17-.09-3.07-2-4.24-3.26-3.44-3.84-7.27-7.38-10.05-11.76-1.5-2.35-3.68-4.1-5.07-6.52-.84-1.46-2.07-1.48-3.38-.37-3.54,3-3.5,3.26-1.27,7.75a33.65,33.65,0,0,0,3.94,6.9c2,3.73,4.62,7,7.12,10.34.36.47,1.44.78.52,1.67l-.81-.06-.45-.41a1.27,1.27,0,0,0-1.22-1.34l-.42-.41c0-.9-.29-1.58-1.31-1.71-2-3-4.1-5.91-6.12-8.89a3.26,3.26,0,0,0-1.53-1.36l0,0c0-.29,0-.58,0-.87-.15-1.68-1.32-2.91-2.07-4.28a18.61,18.61,0,0,1-1.84-5.07c.9-.1,1-.77.84-1.4-.51-1.68-.38-3.48-1.34-5.1-.82-1.36-.2-3.06-.32-4.61-.06-.92,0-1.84-.14-2.76,0-.34-.22-.67.13-1a3.81,3.81,0,0,1,5.9,1.45c.8,1.88,1.51,3.81,2.44,5.63,3,6,7.25,11.14,11.21,16.51C594.82,569.64,598.79,572.54,601.43,576.61Z"/><path class="cls-4" d="M584.79,577.43c1,.13,1.3.81,1.31,1.71l-.47,0C585.39,578.57,584.69,578.19,584.79,577.43Z"/><path class="cls-11" d="M585.63,579.16l.47,0,.42.41,0,.9h0C585.61,580.41,585.62,579.78,585.63,579.16Z"/><path class="cls-15" d="M595.45,559.53c.41-3,1-5.59,4.33-7.09a15.63,15.63,0,0,0,5.1-3.58c1.56-1.77,2.83-1.07,4.22-.22a29.85,29.85,0,0,1,6.15,4.83,1.58,1.58,0,0,0,1.13.5h.42c0,.92.18,1.65,1.29,1.71h0l.43,1.28c-.88.13-1.38-.52-2-.9-3.71-2.11-5.89-2.4-7.93,1.31a3.1,3.1,0,0,1-1.69,1.44c-2.76,1.11-4.05,3.76-5.6,6-1.16,1.68.75,3.28,1,5C599.36,566.79,596.59,563.7,595.45,559.53Z"/><path class="cls-7" d="M605.28,573.61c2.86,2.27,6,4.23,7.7,7.69-1.55-.25-2.26-1.6-3.18-2.58C608.25,577.06,606.16,575.86,605.28,573.61Z"/><path class="cls-7" d="M571.94,552.72c-1.25-1-1.25-2.45-1.25-3.88C572.06,549.83,571.8,551.34,571.94,552.72Z"/><path class="cls-7" d="M602.29,570.19a1.21,1.21,0,0,1,1.27,1.29A1.2,1.2,0,0,1,602.29,570.19Z"/><path class="cls-7" d="M572,554c-.42-.27-.43-.56,0-.86C572.38,553.38,572.41,553.67,572,554Z"/><path class="cls-7" d="M573.18,556.21a.9.9,0,0,1-.81-1A.74.74,0,0,1,573.18,556.21Z"/><path class="cls-7" d="M602.28,577.46a.78.78,0,0,1-.85-.85A.77.77,0,0,1,602.28,577.46Z"/><path class="cls-5" d="M577.12,566.33c0,.29,0,.58,0,.87C576.61,566.91,576.68,566.62,577.12,566.33Z"/><path class="cls-14" d="M613.39,589.42h.42c0,1.75,2.29,1.51,2.57,3-2.06-.07-3.35-1.65-4.94-2.62-2.27-1.37-4.23-3.29-7.33-2.15-2,.74-2.79,2.47-4,3.92-1.07-.9-2.15-1.77-3.21-2.68a43.47,43.47,0,0,1-6.2-7.14c-.12-2.9,2.46-3.21,4.2-4.07,1.38-.69,2.82-.15,4.19,1,3.94,3.39,8.1,6.52,12.18,9.75A3.83,3.83,0,0,0,613.39,589.42Z"/><path class="cls-5" d="M614.25,601.38c.16-2,2.61-3.51,5.47-3.89,2.43-.32,4.39.9,6.43,1.66a31.77,31.77,0,0,0,8.63,1.8c.74.07,1.79-.25,1.9.83a1.67,1.67,0,0,1-1.47,1.61c-2.87.37-5.49,1.77-8.57,1.55-1.93-.13-3.39-1.17-5.15-1.4-1.22-.2-2.59.44-3.66-.53A7.56,7.56,0,0,0,614.25,601.38Z"/><path class="cls-14" d="M614.25,601.38a7.56,7.56,0,0,1,3.58,1.63c1.07,1,2.44.33,3.66.53a2.61,2.61,0,0,1-.4,1.66l-1.7-.06c-1.76-1.78-4.07-2.36-6.38-2.92a62.85,62.85,0,0,1-10.16-6.43,4,4,0,0,0-.94-.42c0-.4-.07-.79-.1-1.19l.49-.5c.41.09,1,0,1.21.28C606.62,597.12,610.69,598.87,614.25,601.38Z"/><path class="cls-15" d="M590.75,581.74a43.47,43.47,0,0,0,6.2,7.14c1.06.91,2.14,1.78,3.21,2.68,0,.29,0,.58,0,.87-1.89.45-2.18-1.59-3.39-2.19a.75.75,0,0,0-.91-.78c-1-.72-1.76-1.77-2.94-2.26-.56-.85-1.13-1.7-1.7-2.55a1.3,1.3,0,0,0-.89-1.21c-.16-.25-.32-.5-.49-.75C590,582.24,589.59,581.23,590.75,581.74Z"/><path class="cls-3" d="M616.38,592.41c-.28-1.48-2.59-1.24-2.57-3,1.51.71,3.14,1.26,3.86,3h-1.29Z"/><path class="cls-15" d="M602.3,593.68l-.49.5c-1.25.07-1.31-1-1.68-1.76C601.12,592.38,602.13,592.32,602.3,593.68Z"/><path class="cls-14" d="M621.07,594.12v1.28c-.92,0-1.65-.17-1.71-1.28Z"/><path class="cls-14" d="M616.8,592.42h1.71c0,.42,0,.85,0,1.27C617.6,593.74,616.87,593.52,616.8,592.42Z"/><path class="cls-14" d="M626.63,598c1.11-.75,1.09.21,1.29.84A1.25,1.25,0,0,1,626.63,598Z"/><path class="cls-7" d="M618.52,557l-.43-1.28a10.41,10.41,0,0,1,4.69,4.7h-1.27l-.43-.43c-.32-1.46-1.53-2.15-2.56-3Z"/><path class="cls-7" d="M618.09,555.68c-1.11-.06-1.32-.79-1.29-1.71A2,2,0,0,1,618.09,555.68Z"/><path class="cls-7" d="M483.12,460.43c-1.81-.36-3.1-1.64-4.52-2.64-5.6-3.94-10.64-8.56-15.89-12.91-1.39-1.15-2.57-1.35-3.91-.11a.8.8,0,0,1-.36.22c-2.59.4-3,2.17-2.66,4.34-2.63-3-4.18-6.57-5.87-10.1-1.4-2.93-1.19-2.68,1.21-4.85,1.86-1.67,2.79-1.62,4.3.24,2.05,2.51,4.47,4.7,6.58,7.17a85.44,85.44,0,0,0,7.49,7.13,109.46,109.46,0,0,0,13.23,10.57C483,459.65,483,460.11,483.12,460.43Z"/><path class="cls-15" d="M501.06,464.28c.85.28,2.13-.7,2.56.85C502.76,464.84,501.49,465.82,501.06,464.28Z"/><path class="cls-7" d="M493.38,466.83a2.53,2.53,0,0,1-2.14-1.7A1.84,1.84,0,0,1,493.38,466.83Z"/><path class="cls-7" d="M496.78,462.15c.93-.06,1.65.17,1.72,1.27C497.58,463.47,496.86,463.25,496.78,462.15Z"/><path class="cls-15" d="M485.67,454.46a1.18,1.18,0,0,1,1.29,1.27A1.21,1.21,0,0,1,485.67,454.46Z"/><path class="cls-7" d="M499.34,463.44a1.24,1.24,0,0,1,1.29.84C500,464.28,499.4,464.29,499.34,463.44Z"/><path class="cls-1" d="M652.05,429.76c6.05,0,11.07,4.65,11.14,10.29.06,4.61-4.15,8.69-9,8.7a10.83,10.83,0,0,1-11-10.84C643.15,434.2,647.11,429.26,652.05,429.76Z"/><path class="cls-1" d="M614.16,439.74c.44,6.16-4.55,9.09-8.7,9-5.89-.08-10.78-4.7-10.77-10.35,0-5.18,3.47-8.61,8.66-8.67C608.26,429.7,614.92,433.47,614.16,439.74Z"/><path class="cls-1" d="M638.52,439.57c0,5.46-3.37,9.15-8.39,9.18-6,0-11.06-4.51-11.07-10,0-5.68,3.2-8.92,8.65-9C633,429.62,639.21,434.29,638.52,439.57Z"/><path class="cls-3" d="M636.88,387.4h1.27c-.06,1.21,1.8.47,1.73,1.69a62.27,62.27,0,0,0-12.88.48,39.11,39.11,0,0,0-9.41,2.47c-3.71,1.66-7.54,3-10.88,5.49-7.21,5.29-13.39,11.37-17.27,19.65a59.78,59.78,0,0,0-4.78,18.08,54.4,54.4,0,0,0,.31,12.9,56.66,56.66,0,0,0,2.32,10.91c.87,2.75,2.22,5.23,3.16,7.91s2.84,5.18,4.47,7.66a36.73,36.73,0,0,0,8.13,8.56,1.46,1.46,0,0,1,.52,1.13c-1.19,0-1.67-1.6-3-1.28a2.38,2.38,0,0,0-1.92-1.73,3.28,3.28,0,0,1-2.35-1.68c.51-.64-.44-.8-.43-1.28-.1-1.09-.91-1.6-1.71-2.14a1.77,1.77,0,0,0-.5-1.14,45.11,45.11,0,0,1-6.34-10.42,52.16,52.16,0,0,1-5-18.43c-.4-5.3-.72-10.69.29-16.05.59-3.1.92-6.36,2.31-9.13,1.47-2.92,2.6-6,4.32-8.84A49.33,49.33,0,0,1,601,399a48.49,48.49,0,0,1,13.45-7.88c2.52-.92,5-2.21,7.79-2.45,2.35-.2,4.67-.8,7-1.23h.86c.72-.09,1.53.29,2.13-.41.57.19,1.14-.44,1.71,0C634.7,388.41,635.78,388,636.88,387.4Z"/><path class="cls-3" d="M640.73,388.68c1.66,0,3.23.19,4.28,1.69-1.52-.11-3-.18-4.28-1.27Z"/><path class="cls-14" d="M640.73,388.68v.42h-.85c.07-1.22-1.79-.48-1.73-1.69C639.18,387.49,640.51,387,640.73,388.68Z"/><path class="cls-14" d="M649.69,392.09A1.29,1.29,0,0,1,651,393C650.35,393,649.74,393,649.69,392.09Z"/><path class="cls-3" d="M645.84,390.4l.88,0c-.12.21-.2.58-.36.61C645.92,391.12,645.91,390.71,645.84,390.4Z"/><path class="cls-3" d="M604.85,485.2a.77.77,0,0,1-.86-.85A.77.77,0,0,1,604.85,485.2Z"/><path class="cls-14" d="M629.19,387.39c-2.33.43-4.65,1-7,1.23-2.81.24-5.27,1.53-7.79,2.45A48.49,48.49,0,0,0,601,399a49.33,49.33,0,0,0-11.68,13.27c-1.72,2.85-2.85,5.92-4.32,8.84-1.39,2.77-1.72,6-2.31,9.13-1,5.36-.69,10.75-.29,16.05a52.16,52.16,0,0,0,5,18.43,45.11,45.11,0,0,0,6.34,10.42,1.77,1.77,0,0,1,.5,1.14h-1.28a3.83,3.83,0,0,0-1.71-2.14c-.22-1-.41-2-1.71-2.14v-.42a9.41,9.41,0,0,0-3.42-5.56c-.31-3.58-2.42-6.56-3.51-9.9a49.54,49.54,0,0,1-2.28-11.28c-.43-5.36-.64-10.82.92-16.27,1-3.42,1.53-7,2.94-10.31a51.62,51.62,0,0,1,15-20.08,57.08,57.08,0,0,1,9.34-6.15A47.81,47.81,0,0,1,626,386.87C627.23,386.74,628.24,386.61,629.19,387.39Z"/><path class="cls-4" d="M629.19,387.39c-1-.78-2-.65-3.15-.52A47.81,47.81,0,0,0,608.43,392a57.08,57.08,0,0,0-9.34,6.15,51.62,51.62,0,0,0-15,20.08c-1.41,3.3-2,6.89-2.94,10.31-1.56,5.45-1.35,10.91-.92,16.27a49.54,49.54,0,0,0,2.28,11.28c1.09,3.34,3.2,6.32,3.51,9.9-1.71,0-1.34-1.68-1.77-2.54a52.75,52.75,0,0,1-4.72-15.08c-.46-2.79-.78-5.6-1-8.39a25.07,25.07,0,0,1,.35-7c.83-4.4,1.3-8.95,3.06-13.08a75.65,75.65,0,0,1,6.8-12.52A51.74,51.74,0,0,1,600,395.81a45.88,45.88,0,0,1,12.33-7,43.69,43.69,0,0,1,19.31-3.1c1.49.13,3.25-.3,4.39,1.23l-2.15,0c-.57-.44-1.14.19-1.71,0-.84-.57-1.65-.93-2.13.41Z"/><path class="cls-4" d="M586.05,466a9.41,9.41,0,0,1,3.42,5.56C587.42,470.25,586.55,468.23,586.05,466Z"/><path class="cls-14" d="M594.17,476.23c.8.54,1.61,1,1.71,2.14H594.6l-.43-.43v-1.7Z"/><path class="cls-14" d="M633.89,387l2.15,0h.84v.45C635.78,388,634.7,388.41,633.89,387Z"/><path class="cls-4" d="M589.47,472c1.3.14,1.49,1.15,1.71,2.14A1.84,1.84,0,0,1,589.47,472Z"/><path class="cls-4" d="M594.17,476.24v1.7a2,2,0,0,1-1.28-1.7Z"/><path class="cls-4" d="M594.6,478.37h1.28c0,.48.94.64.43,1.28A2,2,0,0,1,594.6,478.37Z"/><path class="cls-4" d="M586.49,580.45l0-.9a1.27,1.27,0,0,1,1.22,1.34Z"/><path class="cls-3" d="M590.31,583.44a1.3,1.3,0,0,1,.89,1.21C590.3,584.7,590.35,584,590.31,583.44Z"/><path class="cls-4" d="M588.19,581.3l.81.06c0,.28,0,.56,0,.84A.81.81,0,0,1,588.19,581.3Z"/><path class="cls-14" d="M595.84,589.46a.75.75,0,0,1,.91.78A.79.79,0,0,1,595.84,589.46Z"/><path class="cls-15" d="M618.52,557c1,.84,2.24,1.53,2.56,3C619.63,559.47,618.58,558.64,618.52,557Z"/><path class="cls-14" d="M630.05,387.39c.48-1.34,1.29-1,2.13-.41C631.58,387.68,630.77,387.3,630.05,387.39Z"/></svg>