<svg id="Layer_1" data-name="Layer 1" xmlns="http://www.w3.org/2000/svg" viewBox="0 0 1080 1080"><defs><style>.cls-1{fill:#231f20;}</style></defs><g id="Group_41" data-name="Group 41"><path id="Path_1413" data-name="Path 1413" class="cls-1" d="M571.7,647.82V672.3c6.68,0,13.13.05,19.58,0,4.43,0,7.91,1.31,7.86,6.32s-3.74,6.06-8.06,6.06q-50.42-.06-100.84,0c-4.37,0-8-1-8-6.08s3.52-6.31,7.89-6.28c6.3.05,12.59,0,19.38,0v-24.5H364.71c-14.22,0-21.62-7.19-21.63-21.24q0-105.34,0-210.7c0-13.93,7.15-21.22,21-21.22q176.31,0,352.61,0c14.44,0,21.5,7,21.52,21.29q.07,105.65,0,211.3c0,13.37-7.5,20.56-21,20.56l-139.33,0Zm-216.09-62.3H725.42c.11-2.31.29-4.29.29-6.28q0-80.93,0-161.85c0-9.09-1-10.1-10.26-10.1q-175.11,0-350.21,0c-8.43,0-9.65,1.19-9.65,9.43q0,80.92,0,161.86Zm370,13.19h-370c0,8.5,0,16.78,0,25.07,0,10.72.9,11.6,11.37,11.6H712.28c2.44,0,5.23.68,7.24-.27,2.4-1.12,5.74-3.57,5.86-5.61C726,619.39,725.66,609.23,725.66,598.71ZM558.61,672V648.1h-35.9V672Z"/><path id="Path_1414" data-name="Path 1414" class="cls-1" d="M540.64,610.66c9.77,0,19.55,0,29.33,0,4.21,0,7.4,1.29,7.54,6s-3,6.38-7.19,6.38q-29.64,0-59.28,0c-4.31,0-7.27-1.71-7.21-6.33s3.25-6.07,7.47-6C521.08,610.69,530.86,610.66,540.64,610.66Z"/><circle id="Ellipse_27" data-name="Ellipse 27" class="cls-1" cx="371.41" cy="617.91" r="6.25"/><circle id="Ellipse_28" data-name="Ellipse 28" class="cls-1" cx="388.92" cy="617.91" r="6.25"/></g></svg>