<svg id="Layer_1" data-name="Layer 1" xmlns="http://www.w3.org/2000/svg" viewBox="0 0 1080 1080"><path d="M745.12,610.68c-.72,3.13-1.3,6.3-2.18,9.38-8,27.76-26,45.56-54.34,50.91-29.65,5.59-53.49-5.32-70.91-29.88a7,7,0,0,0-6.61-3.41q-116.26.12-232.52,0a27.51,27.51,0,0,1-7-.56c-5.81-1.57-9.26-6.71-9.26-13.32q0-69.15,0-138.31,0-35.14,0-70.28c0-9.07,5.26-14.39,14.34-14.44,10.09-.06,20.19,0,30.28,0,4.6,0,7.32,2.14,7.4,5.62s-2.78,5.87-7.56,5.89c-9.71,0-19.44.09-29.15,0-3,0-4.19.72-4.19,4q.14,77.57.07,155.13c0,.84.13,1.69.22,2.89h4.56q114.76,0,229.53.08c3.29,0,4.88-1,6.52-3.92,12.6-22.53,31.75-35.07,57.66-36.9,1.84-.13,3.69-.21,5.89-.33,0-4.23,0-8.19,0-12.14s2.24-6.56,5.57-6.57,5.55,2.55,5.6,6.55c.06,4.23-1.44,9.46.52,12.41,1.85,2.78,7.37,3,11.17,4.62,24.56,10.29,39.21,28.52,43.71,54.83a13.32,13.32,0,0,0,.71,2.07ZM675.42,661a58.1,58.1,0,1,0-58.07-58.3C617.15,634.65,643.27,660.88,675.42,661Zm-69.25-50.3H465.28c-1.12,0-2.24,0-3.36,0-3.44-.19-5.66-2.45-5.61-5.67s2.27-5.34,5.79-5.49c1,0,2,0,3,0H605.88c.7-4.68,1.35-9,2-13.38H373.44c0,12,0,23.67,0,35.37,0,5,0,5,5,5h231.4C608.58,621.05,607.44,616.12,606.17,610.67Z"/><path d="M552.4,412.32H438.73c-5.89,0-8.8-1.88-8.88-5.7s2.85-5.83,8.69-5.83H552.21c.07-1.52.18-2.84.18-4.15,0-11,0-21.93,0-32.9,0-9.15,4.67-13.78,13.81-13.8,7.23,0,14.46,0,21.69,0,4.58,0,7.3,2.18,7.35,5.67s-2.73,5.8-7.23,5.83c-7.83.07-15.67,0-23.79,0v60.21l17.92-23.32c2.65-3.46,5.27-6.94,8-10.38,4.56-5.86,9.88-5.88,14.42,0q19.49,25.32,38.9,50.69c.75,1,1.54,1.94,2.59,3.27,1.64-2.09,3.16-4,4.63-5.91,7.28-9.48,14.52-19,21.84-28.45,4.45-5.77,9.64-5.78,14.19,0,5.06,6.44,10,13,15.5,20.14V361.47H619.91c-.87,0-1.75,0-2.62,0-4.5-.13-7.27-2.38-7.22-5.86s2.78-5.65,7.36-5.66q41.69,0,83.36,0c8.21,0,12.89,4.82,12.89,13.09q0,45.79,0,91.58c0,8.43-4.73,13.1-13.22,13.14H689v5.54c0,6.48,0,13,0,19.44,0,3.71-2.34,6.19-5.55,6.21s-5.57-2.47-5.6-6.15c-.06-8.2,0-16.4,0-25H566.26c-9.18,0-13.84-4.61-13.85-13.74C552.38,440.34,552.4,426.64,552.4,412.32Zm45.12-14.83a7.59,7.59,0,0,0-1,.87q-15.71,20.44-31.36,40.93a4.34,4.34,0,0,0-1.08,2.29c-.1,4.81,0,9.63,0,14.48h78.45ZM679.58,417c-8.15,10.62-16.05,20.85-23.83,31.16-.91,1.22-2.07,3.32-1.61,4.29,1.06,2.2,2.52,4.18,5.89,4.12,12.93-.26,25.87-.1,38.81-.12,1.09,0,2.17-.15,4.18-.3-.65-3.88-.19-8.14-2-10.81C694.37,435.68,687,426.61,679.58,417Z"/><path d="M481.69,498.18c0-13.33-.13-26.66.1-40a12.83,12.83,0,0,1,2.49-7.44c2.41-2.94,6-2.68,9.18-.78q35,20.68,70,41.46c6.24,3.72,5.82,10.27-.78,14.2q-31.1,18.51-62.27,36.89c-2.14,1.27-4.25,2.6-6.43,3.8-6.57,3.61-12.14.5-12.22-7C481.6,525.59,481.69,511.88,481.69,498.18ZM493.3,463v70.52l59.53-35.26Z"/><path d="M646.92,367.16a21.33,21.33,0,0,1,21,21c.05,11.47-9.85,21.3-21.24,21.09a21,21,0,0,1,.26-42.06Zm9.41,21.22a9.2,9.2,0,0,0-9.17-9.67,9.5,9.5,0,1,0-.38,19A9.25,9.25,0,0,0,656.33,388.38Z"/><path d="M669.59,572.45c.8-7,2.4-9.32,6.19-9.21s5.27,2.51,5.85,9.36c2.65,0,5.35-.06,8,0,3.79.11,6.08,2.26,6.12,5.59s-2.15,5.59-6,5.65c-6.6.1-13.21,0-19.81.07-4.77.08-6.89,1.93-7.14,5.87s1.94,6.6,6.16,6.81,8.48,0,12.71.14c13.49.57,21.27,11.79,17,24.46-2.71,8-9,10.79-17.08,11.26-.35,4.32.34,9.58-6,10.07-3.59.28-4.94-2.17-6.07-10.22-2.79,0-5.63.06-8.47,0-3.93-.09-6.44-2.45-6.32-5.83.1-3.2,2.52-5.35,6.33-5.39,6.85-.07,13.71.07,20.56-.07,4.94-.1,6.77-2,6.74-6.47,0-3.88-2-6.06-5.89-6.21-4.23-.17-8.47,0-12.7-.12-13.34-.48-21.33-11.54-17.25-24C655.13,576.21,661.37,573,669.59,572.45Z"/><path d="M640.38,602.74a5.57,5.57,0,0,1-5.58,5.7,5.42,5.42,0,0,1-5.6-5.25,5.5,5.5,0,0,1,5.32-5.92A5.65,5.65,0,0,1,640.38,602.74Z"/><path d="M722.64,602.91a5.58,5.58,0,0,1-5.76,5.53,5.39,5.39,0,0,1-5.42-5.42,5.51,5.51,0,0,1,5.5-5.76A5.65,5.65,0,0,1,722.64,602.91Z"/><path d="M393.53,605.47a5.9,5.9,0,0,1-5.81,5.64,5.67,5.67,0,0,1,.06-11.34A5.91,5.91,0,0,1,393.53,605.47Z"/><path d="M411.09,599.76a5.68,5.68,0,1,1-.31,11.35,5.68,5.68,0,0,1,.31-11.35Z"/><path d="M434.34,611.13a5.68,5.68,0,0,1-.45-11.35,5.68,5.68,0,1,1,.45,11.35Z"/></svg>