<svg id="Layer_1" data-name="Layer 1" xmlns="http://www.w3.org/2000/svg" viewBox="0 0 1080 1080"><defs><style>.cls-1{fill:#231f20;}</style></defs><g id="Group_40" data-name="Group 40"><path id="Path_1411" data-name="Path 1411" class="cls-1" d="M540.85,680.52c-11,0-22.09-.13-33.13.05-5.48.09-8-2.4-8-7.69,0-14.77-.11-29.54,0-44.3.06-5.77,2.09-7.61,8.75-7.45,5.22.13,6-1.64,4.55-6.28-5.16-16.53-16.06-29-28.47-40.29-7.29-6.67-7.48-6.59-3.1-15.55q23.79-48.63,47.65-97.24c2-4.18,6.06-6.38,9-9.7a4.17,4.17,0,0,1,5.91.08l.22.24c2.77,3.46,6.8,5.58,8.86,9.82,15.86,32.64,32,65.16,47.9,97.77,3.84,7.85,3.5,8.19-3.13,14.2-12.29,11.16-23.36,23.28-28.55,39.56-2.21,6.91-2.11,6.94,5,7.27,6,.28,7.9,2.15,7.94,8.38q.12,21.61,0,43.24c0,6-2,7.83-8.28,7.87C562.94,680.57,551.9,680.52,540.85,680.52Zm-5.77-200.77-1.05-.2c-.47.79-1,1.56-1.39,2.39q-19.46,39.49-38.94,79c-1.51,3.06-1,4.88,1.41,7.24,13.85,13.41,26,28,30.34,47.49.59,2.67,2.27,3,4.52,3a168.32,168.32,0,0,1,17.4.09c6.15.58,9.81-.8,10.41-7.72.26-3.05,1.93-6,3.27-8.9,6.12-13.09,15.23-23.92,25.7-33.7,2.14-2,3.55-3.5,1.8-7-13.16-26.25-26-52.65-39-79-.5-1-.52-2.71-2.78-2.7q0,26.64,0,53.2a7.35,7.35,0,0,0,2,4.49c4.24,5.67,4,10.74-.55,15a10.7,10.7,0,0,1-14.75-.25c-3.91-3.74-4.1-9.79-.23-14.7a6.9,6.9,0,0,0,1.89-4.46Q535.05,506.36,535.08,479.75Zm6,189.29c8,0,16.1-.12,24.14.06,3.49.07,5.09-.84,5-4.68-.22-9-.18-18,0-26.95.07-3.43-1.24-4.61-4.58-4.59q-24.68.14-49.36,0c-3.17,0-4.78.9-4.71,4.47.19,9.17.16,18.35,0,27.51-.05,3.19,1.14,4.26,4.26,4.21,8.42-.13,16.85,0,25.27,0Z"/><path id="Path_1412" data-name="Path 1412" class="cls-1" d="M602.63,433c5.94,5.32,12.39,9.34,18.11,14.33a114.15,114.15,0,0,1,36.69,60.39c.61,2.5.56,5.42,4.4,5.24,1.7-.08,2.17,1.16,2.25,2.61,0,.56,0,1.12.06,1.69.85,17.35-.94,18.92-18.57,17-2.79-.31-3.42-1.56-3.39-4,.07-4.49,0-9,0-13.47,0-.75-.18-1.9.21-2.18,6.19-4.39,2-9.5.48-13.78-12.62-34.94-37.1-57.08-73-66.76-3.85-1-4.94-.18-5.17,3.64-.43,7.07-1.91,8.33-9,8.38q-14.58.11-29.16,0c-7.49,0-8.9-1.12-9.34-8.55-.32-5.31-3.52-3.22-5.85-2.55A101.37,101.37,0,0,0,455,475.18a95.81,95.81,0,0,0-14.59,31.38c-.63,2.41-2.68,5.26,1.77,6.82,1.89.67,1,3.37,1,5.16.23,15.76.21,15.57-15.22,15.77-4.83.06-6.9-1.12-6.3-6.22a88.33,88.33,0,0,0,.07-10.67c0-2.28-.24-4.56,3.15-4.68,1.92,0,2.13-1.87,2.44-3.3,7.43-32.84,26.2-57.41,54.62-74.95.15-.09.23-.29.34-.43-.07-1-.92-1.11-1.6-1.11-13.47,0-26.94,0-40.4-.07a9.24,9.24,0,0,0-5.55,2.24,11.06,11.06,0,0,1-15.12-1.83,10.62,10.62,0,0,1,15.12-14.68,10.7,10.7,0,0,0,7.13,2.44c23.38-.06,46.76-.16,70.14,0,4.35,0,5.65-1.4,5.3-5.47-.27-3.16,0-6.37-.06-9.55-.12-4.66,2.35-7.18,6.73-7.25,11.42-.2,22.84-.15,34.25,0,4.2.06,6.48,2.5,6.53,6.82,0,3.55.24,7.1.17,10.65-.06,3.21,1.07,4.78,4.53,4.77q35.36-.12,70.7,0a9.26,9.26,0,0,0,5.5-2.39c5.09-3.57,10.84-3.1,14.72,1.06a10.35,10.35,0,0,1,.31,13.84c-3.59,4.24-9.59,4.92-14.69,1.7-1.24-.78-2.54-2.1-3.82-2.12C629,433,615.8,433,602.63,433ZM553,422.78c0-12.21,0-12.21-12.35-12.21-11.4,0-11.4,0-11.4,11.6,0,12.18,0,12.18,11.91,12.19s11.81,0,11.84-11.58Z"/></g></svg>