<svg id="Layer_1" data-name="Layer 1" xmlns="http://www.w3.org/2000/svg" viewBox="0 0 1080 1080"><defs><style>.cls-1{fill:none;stroke:#a8cf38;stroke-miterlimit:10;stroke-width:2px;}.cls-2{fill:#fff;}</style></defs><rect id="Rectangle_50" data-name="Rectangle 50" class="cls-1" x="394.58" y="416.92" width="246.46" height="246.46" rx="41.38"/><path id="Path_30247" data-name="Path 30247" class="cls-2" d="M574.57,553.93c-7-.22-22.78.1-29.82-.13-3.57-.12-4.71,1-4.66,4.62.19,13.93.07,27.88.07,41.82,0,13.62-.13,27.25.08,40.86.06,3.86-1.15,4.87-4.91,4.79-11.38-.24-22.77-.27-34.15,0-4.33.12-5.71-1-5.67-5.52.22-26.92,0-53.84.22-80.76,0-4.65-1.28-6.08-5.9-5.85-7.35.37-14.74,0-22.11.14-3.16.08-4.62-.59-4.54-4.16.21-9.78.16-19.56,0-29.32,0-3.07.9-4.26,4.12-4.17,8,.19,16-.08,24,.15,3.44.1,4.38-1.1,4.32-4.39-.18-9.45-.14-18.91,0-28.37a46.85,46.85,0,0,1,46.65-46.44,233,233,0,0,1,30.22,1.7c3.06.38,4,1.6,4,4.6-.15,8.81-.17,17.63,0,26.44.06,3.05-1.11,3.83-4,3.76-6.08-.16-12.18-.12-18.27,0a13.14,13.14,0,0,0-14,12.22l0,.65c-.44,8.95-.08,17.94-.18,26.91,0,2.93,1.8,2.86,3.83,2.86,9,0,18,.09,26.93-.07,3.25,0,4.6.54,4,4.28"/></svg>