<svg id="Layer_1" data-name="Layer 1" xmlns="http://www.w3.org/2000/svg" viewBox="0 0 1080 1080"><defs><style>.cls-1{fill:none;stroke:#a8cf38;stroke-miterlimit:10;stroke-width:2px;}.cls-2{fill:#fff;}</style></defs><rect id="Rectangle_51" data-name="Rectangle 51" class="cls-1" x="409.51" y="424.96" width="230.09" height="230.09" rx="45.66"/><path id="Path_30248" data-name="Path 30248" class="cls-2" d="M470.17,454.41a131.13,131.13,0,0,1,16.56-4.06c24.4,0,48.79,0,73.19.14A56.4,56.4,0,0,1,616.24,497a64.9,64.9,0,0,1,.73,12.53q0,35.47,0,70.93a84.94,84.94,0,0,1-4.23,17.43,59.64,59.64,0,0,1-27.54,28.74,47.73,47.73,0,0,1-21.14,5.27c-1.93,0-3.86.21-5.81.32l-63.17-.31a84.45,84.45,0,0,1-13.39-.86,56.46,56.46,0,0,1-46.26-54.53c-.23-17.91,0-35.85-.06-53.77,0-1.94-.14-3.86-.21-5.81.08-4.18.1-8.37.24-12.55.63-18.6,9.79-32.67,23.82-43.9A71.27,71.27,0,0,1,470.17,454.41Zm16.59,13.73c-1.2.26-2.56.05-3.49,1.13-15.19,1.92-28.6,17-30,33.82a6.59,6.59,0,0,0-.12,4.71l0,5.59c-.08.07-.24.17-.23.23a3.28,3.28,0,0,0,.23.59q0,11.67,0,23.36c-.84,13-.45,26-.28,38.94a38,38,0,0,0,32,37.23c16.59,2.29,33.4.79,50.13.65a38.43,38.43,0,0,0,9.22-.06,18.41,18.41,0,0,0,6.62,0,22,22,0,0,0,7.88,0l3.69,0c15.39.43,32-12.73,35.44-28a5.28,5.28,0,0,0,.93-4.09l.09-.26a5.68,5.68,0,0,0,.78-3.86q0-26.52-.14-53.05c.07-6,.24-11.94.19-17.91a38.77,38.77,0,0,0-38.1-39.42h-1.39c-21.67-.13-43.34,0-65,0A31.07,31.07,0,0,0,486.76,468.14Z"/><path id="Path_30249" data-name="Path 30249" class="cls-2" d="M503.49,580.92a62.65,62.65,0,0,1-14.31-12.82,45.66,45.66,0,0,1-7.62-37.71A45,45,0,0,1,499.47,504a52.94,52.94,0,0,1,13.7-7A55.29,55.29,0,0,1,538,497a45.3,45.3,0,0,1,33,52.33c-1.75,16-16.12,31.53-32.62,35.88A47.59,47.59,0,0,1,503.49,580.92ZM553,549.26l0,.08a28,28,0,1,0-54.86-6.87A28.47,28.47,0,0,0,521.37,569a27.9,27.9,0,0,0,30.9-17.4,2.45,2.45,0,0,0,.75-2.31Z"/><path id="Path_30250" data-name="Path 30250" class="cls-2" d="M563.64,486.62a11.64,11.64,0,0,1,9.36-4.26,10.36,10.36,0,0,1,8.49,15.9,25.93,25.93,0,0,0-.93,2.46,12.89,12.89,0,0,1-10.89,2.5C562.7,501.32,560.18,494.36,563.64,486.62Z"/></svg>