<svg id="Layer_1" data-name="Layer 1" xmlns="http://www.w3.org/2000/svg" viewBox="0 0 1080 1080"><defs><style>.cls-1{fill:#231f20;}</style></defs><g id="Group_50" data-name="Group 50"><g id="Group_42" data-name="Group 42"><path id="Path_1424" data-name="Path 1424" class="cls-1" d="M501.05,453.35c1.24,0,2.49.07,3.73.12.81,0,1.62.15,2.38.23l-.06,7.49h-3.05c-.62,0-1.24,0-1.85,0-2,.06-3.44.8-3.55,3.28-.06,1.78-.1,5.72-.11,5.92h8.26c0,2.64,0,5.6-.24,8.42h-8l-.16,21h-8.71l.16-21h-7.12l.06-8.36h7.16v-.62c0-1.69,0-3.37.05-5.06a20.24,20.24,0,0,1,.28-3.2,9.46,9.46,0,0,1,3.81-6.25,10.81,10.81,0,0,1,6.27-1.94Z"/></g><g id="Group_43" data-name="Group 43"><path id="Path_1425" data-name="Path 1425" class="cls-1" d="M590.77,463.26h0a2.43,2.43,0,0,1,2.42,2.44v0a2.46,2.46,0,1,1-2.45-2.47Z"/></g><g id="Group_44" data-name="Group 44"><path id="Path_1426" data-name="Path 1426" class="cls-1" d="M600,466.41c.3,3.22.5,18.42-.45,22a10.45,10.45,0,0,1-9,8.17,98.87,98.87,0,0,1-11.28.46,69.61,69.61,0,0,1-11.36-.6,10.26,10.26,0,0,1-8.14-8.91c-.55-3.45-.6-19.47.39-22.95a10.42,10.42,0,0,1,8.91-7.94,77.84,77.84,0,0,1,10.24-.46c3.81,0,7.66.1,10,.23a11.25,11.25,0,0,1,7.46,3.05A10.77,10.77,0,0,1,600,466.41Zm-3.93,20.42a147.71,147.71,0,0,0,.25-20.07,6.89,6.89,0,0,0-6.13-6.52,94.27,94.27,0,0,0-10.22-.38c-4.07,0-8.12.11-9.91.3a7,7,0,0,0-6.53,6.16,140.65,140.65,0,0,0-.14,20.63,6.65,6.65,0,0,0,5,5.78,64.2,64.2,0,0,0,11,.6c4.29,0,8.49-.13,10.08-.31a7,7,0,0,0,6.55-6.19"/></g><g id="Group_45" data-name="Group 45"><path id="Path_1427" data-name="Path 1427" class="cls-1" d="M579.88,466.12a10.39,10.39,0,0,1,10.39,10.39v.11a10.58,10.58,0,0,1-10.57,10.47,10.38,10.38,0,0,1-10.39-10.37v-.12A10.57,10.57,0,0,1,579.88,466.12Zm-.15,17.26a6.86,6.86,0,0,0,6.84-6.72,6.72,6.72,0,0,0-6.58-6.84h-.15a6.85,6.85,0,0,0-6.83,6.71,6.72,6.72,0,0,0,6.58,6.85h.14"/></g><g id="Group_46" data-name="Group 46"><path id="Path_1428" data-name="Path 1428" class="cls-1" d="M480.85,562.18a4.44,4.44,0,0,1,4.46,4.42v.07a4.52,4.52,0,0,1-4.52,4.48,4.46,4.46,0,0,1-4.46-4.45v0A4.54,4.54,0,0,1,480.85,562.18Z"/></g><g id="Group_47" data-name="Group 47"><path id="Path_1429" data-name="Path 1429" class="cls-1" d="M484.64,574.55l-.19,24.91h-7.74l.19-24.91Z"/></g><g id="Group_48" data-name="Group 48"><path id="Path_1430" data-name="Path 1430" class="cls-1" d="M504.35,573.94c7.85,0,9.25,5.14,9.2,11.85l-.11,13.66h-7.73l.1-12.1c0-2.89,0-6.62-4-6.62s-4.66,3.15-4.69,6.41l-.09,12.31h-7.74l.19-24.91h7.42l0,3.41H497A8.21,8.21,0,0,1,504.35,573.94Z"/></g><g id="Group_49" data-name="Group 49"><path id="Path_1431" data-name="Path 1431" class="cls-1" d="M580.24,560.85a10.5,10.5,0,0,1,10.5,10.48v.12c0,2.29,0,4.55,0,6.35a4,4,0,0,0,1,.12,2.73,2.73,0,0,0,1.28-.29,3.9,3.9,0,0,1,1.63-.52,1.7,1.7,0,0,1,1.25.58c.88.91-.06,1.76-1.5,2.31s-3.42,1.06-3.47,2.81a11.42,11.42,0,0,0,4.53,6.42,7,7,0,0,0,4.36,1.85h.38c.13,0,.19,0,.22.07.08.35.35,1.71-2.22,2.36s-3.07.21-3.59,1.54-.34,1.91-1,1.91c-.43,0-2.36-.37-4-.37a5.28,5.28,0,0,0-2,.3c-1.57.71-4.07,3.7-7.76,3.88-3.67-.18-6.12-3.17-7.68-3.88a5.31,5.31,0,0,0-2-.3c-1.69,0-3.63.37-4,.37-.65,0-.46-.58-1-1.91s-1-.89-3.58-1.54-2.26-2-2.17-2.36c0,0,.07-.08.19-.08h.4a7.16,7.16,0,0,0,4.41-1.84,11.72,11.72,0,0,0,4.63-6.43c0-1.75-2.11-2.27-3.44-2.8s-2.36-1.42-1.46-2.32a1.74,1.74,0,0,1,1.26-.58,3.86,3.86,0,0,1,1.62.52,2.73,2.73,0,0,0,1.28.29,4,4,0,0,0,1-.12c0-1.8,0-4.06.05-6.35a10.68,10.68,0,0,1,10.66-10.6Z"/></g><path id="Path_1432" data-name="Path 1432" class="cls-1" d="M430.84,540.15V374.69c0-21.85,13.41-35.22,35.31-35.22H615.86c21.63,0,35.12,13.43,35.12,35q0,165.66,0,331.33c0,21.58-13.48,35-35.11,35H465.76c-21.34,0-34.91-13.53-34.91-34.81Q430.83,623.09,430.84,540.15Zm161.85,187.7c9.44,0,18.21.23,27-.06,10.87-.36,18.38-9.12,18.38-21q0-166.65,0-333.31c0-.81,0-1.62,0-2.43a18.81,18.81,0,0,0-14.46-17.81,48.06,48.06,0,0,0-12-.7,11.3,11.3,0,0,0-6.14,2.09c-9,6.9-17.67,14.18-26.67,21a13.17,13.17,0,0,1-7.31,2.56q-30.55.3-61.09,0a13.25,13.25,0,0,1-7.28-2.65c-7.85-5.92-15.66-11.94-23-18.42a18.76,18.76,0,0,0-13.83-4.82c-14.86.32-22.35,7.62-22.35,22.51v254q0,39.43,0,78.88c0,10.09,6.1,18.56,15.72,19.57s19.54.22,29.6.22c0-2.27-.06-4.42,0-6.55A19.2,19.2,0,0,1,508,702.06q33-.25,65.94,0a19.15,19.15,0,0,1,18.72,18.63c.11,2.26,0,4.51,0,7.16ZM494.94,352.61c4.67,3.76,8.57,7.23,12.84,10.17a13.9,13.9,0,0,0,7.21,2.47c16.18.21,32.37,0,48.55.19,4.74.06,8.9-.34,12.51-4a139.05,139.05,0,0,1,10.81-8.86Zm84.8,375.14c0-2.39.11-4.41,0-6.4a6.23,6.23,0,0,0-6.1-6.37h-.38q-32.32-.12-64.64,0a6.21,6.21,0,0,0-6.48,5.93c0,.14,0,.28,0,.42-.14,2.09,0,4.2,0,6.41Z"/><path id="Path_1433" data-name="Path 1433" class="cls-1" d="M527.53,476.64q0,10.28,0,20.56a13,13,0,0,1-12.4,13.59,11.22,11.22,0,0,1-1.16,0q-19,0-38.06,0a13,13,0,0,1-13.55-12.42c0-.4,0-.79,0-1.19q0-20.64,0-41.31a13,13,0,0,1,12.44-13.48c.34,0,.67,0,1,0q19.13,0,38.26,0a13,13,0,0,1,13.45,12.51c0,.33,0,.66,0,1C527.55,462.81,527.53,469.72,527.53,476.64Zm-58.66-.26q0,10.38,0,20.77a6.56,6.56,0,0,0,5.95,7.12,6.1,6.1,0,0,0,1.13,0q18.94,0,37.88,0A6.57,6.57,0,0,0,521,498.4a6.87,6.87,0,0,0,0-1.36q0-20.44,0-40.91a6.57,6.57,0,0,0-5.87-7.22,5.74,5.74,0,0,0-1.31,0q-18.84,0-37.68,0c-4.7,0-7.26,2.58-7.27,7.33Q468.86,466.3,468.87,476.38Z"/><path id="Path_1434" data-name="Path 1434" class="cls-1" d="M612.37,476.64c0,6.85,0,13.7,0,20.56A13,13,0,0,1,600,510.79a11.42,11.42,0,0,1-1.17,0q-19,0-38.06,0a13,13,0,0,1-13.54-12.42,11.81,11.81,0,0,1,0-1.19q0-20.64,0-41.31a13,13,0,0,1,12.45-13.48c.33,0,.67,0,1,0q19.14,0,38.27,0a13,13,0,0,1,13.44,12.51,8.34,8.34,0,0,1,0,1C612.39,462.81,612.37,469.72,612.37,476.64Zm-58.65-.26q0,10.38,0,20.77a6.55,6.55,0,0,0,5.95,7.12,6.09,6.09,0,0,0,1.13,0q18.93,0,37.87,0a6.56,6.56,0,0,0,7.18-5.88,6.18,6.18,0,0,0,0-1.36q0-20.44,0-40.91a6.58,6.58,0,0,0-5.88-7.22,5.74,5.74,0,0,0-1.31,0q-18.84,0-37.67,0c-4.71,0-7.26,2.58-7.27,7.33q0,10.06,0,20.14Z"/><path id="Path_1435" data-name="Path 1435" class="cls-1" d="M527.53,580.88q0,10.26,0,20.55A13,13,0,0,1,515.13,615a11.22,11.22,0,0,1-1.16,0q-19,0-38.06,0a13,13,0,0,1-13.55-12.42c0-.4,0-.79,0-1.19q0-20.64,0-41.31a13,13,0,0,1,12.45-13.48h1q19.13,0,38.26,0a13,13,0,0,1,13.45,12.51c0,.33,0,.67,0,1C527.55,567,527.53,574,527.53,580.88Zm-58.66-.27q0,10.39,0,20.77a6.57,6.57,0,0,0,6,7.12,6,6,0,0,0,1.12,0h37.88a6.58,6.58,0,0,0,7.18-5.88,6.87,6.87,0,0,0,0-1.36q0-20.46,0-40.92a6.57,6.57,0,0,0-5.87-7.22,6.37,6.37,0,0,0-1.31,0q-18.84,0-37.68,0c-4.7,0-7.26,2.59-7.27,7.33q0,10.08,0,20.15Z"/><path id="Path_1436" data-name="Path 1436" class="cls-1" d="M612.37,580.88c0,6.84,0,13.7,0,20.55A13,13,0,0,1,600,615a11.22,11.22,0,0,1-1.16,0q-19,0-38.06,0a13,13,0,0,1-13.54-12.42,11.81,11.81,0,0,1,0-1.19q0-20.64,0-41.31a13,13,0,0,1,12.45-13.48h1q19.14,0,38.27,0a13,13,0,0,1,13.44,12.51,8.34,8.34,0,0,1,0,1C612.39,567,612.37,574,612.37,580.88Zm-58.65-.27q0,10.39,0,20.77a6.56,6.56,0,0,0,5.95,7.12,6.09,6.09,0,0,0,1.13,0h37.87a6.57,6.57,0,0,0,7.18-5.88,6.18,6.18,0,0,0,0-1.36q0-20.46,0-40.92a6.58,6.58,0,0,0-5.87-7.22,6.47,6.47,0,0,0-1.32,0q-18.84,0-37.67,0c-4.71,0-7.26,2.59-7.27,7.33,0,6.71,0,13.44,0,20.15Z"/></g></svg>