<?xml version="1.0" encoding="UTF-8"?>
<svg version="1.1" xmlns="http://www.w3.org/2000/svg" width="842" height="595">
<path d="M0 0 C8.25 0 16.5 0 25 0 C25.33 12.54 25.66 25.08 26 38 C30.62 38 35.24 38 40 38 C47.36369013 40.52675642 53.56722087 43.67024482 60 48 C60.40049561 46.91936279 60.40049561 46.91936279 60.80908203 45.81689453 C62.00913599 42.97839051 63.411393 40.53421883 65.0546875 37.9296875 C65.6619165 36.95902344 66.26914551 35.98835938 66.89477539 34.98828125 C68.23747825 32.87730272 69.59121609 30.77331017 70.95483398 28.67578125 C74.21687163 23.62370757 77.2355763 18.73112103 79.60546875 13.1953125 C84.25827304 2.97352549 84.25827304 2.97352549 89 0 C98.79149372 -2.25680129 109.11820876 -1.16228687 119 0 C115.41227053 6.7216225 111.6850249 13.28065089 107.5625 19.6875 C106.51497384 21.33031414 105.46813316 22.97356552 104.421875 24.6171875 C103.87080078 25.48182617 103.31972656 26.34646484 102.75195312 27.23730469 C98.92746255 33.26823213 95.1617089 39.3363155 91.39282227 45.40209961 C88.65165462 49.80375823 85.90074531 54.18966009 83.01171875 58.49609375 C82.58012451 59.14344482 82.14853027 59.7907959 81.70385742 60.45776367 C80.59451833 62.10928633 79.46982706 63.75046929 78.34375 65.390625 C76.78609572 67.7975676 76.78609572 67.7975676 77.26733398 69.88354492 C78.08875884 72.25639799 79.13878671 74.28811866 80.37890625 76.47265625 C80.880271 77.35928955 81.38163574 78.24592285 81.89819336 79.15942383 C82.44741455 80.11743896 82.99663574 81.0754541 83.5625 82.0625 C84.13170166 83.06240967 84.70090332 84.06231934 85.28735352 85.0925293 C91.8002569 96.48375596 98.49365779 107.77000559 105.22827148 119.03125 C106.38535046 120.97007877 107.53619492 122.91264567 108.67993164 124.859375 C109.45711548 126.17615234 109.45711548 126.17615234 110.25 127.51953125 C110.69730469 128.28241455 111.14460938 129.04529785 111.60546875 129.83129883 C113.10639405 132.1654584 114.77765014 134.25213342 116.5625 136.375 C125.95919071 148.12086338 128.65895051 163.88326092 127.7890625 178.55859375 C125.89510335 194.58577636 119.04782592 209.07663784 107 220 C106.34 220 105.68 220 105 220 C105.28814575 220.57407089 105.5762915 221.14814178 105.87316895 221.73960876 C108.86005812 227.69133809 111.84417751 233.64445 114.82666016 239.59838867 C115.94150299 241.82303201 117.05706208 244.04731656 118.17333984 246.27124023 C119.77367631 249.4598432 121.3714692 252.64970923 122.96875 255.83984375 C123.72339539 257.34139259 123.72339539 257.34139259 124.49328613 258.87327576 C125.18400208 260.25459435 125.18400208 260.25459435 125.88867188 261.66381836 C126.2972644 262.47878281 126.70585693 263.29374725 127.12683105 264.13340759 C128 266 128 266 128 267 C118.76 267 109.52 267 100 267 C94.39 255.78 88.78 244.56 83 233 C77.39 233 71.78 233 66 233 C52.83757414 230.36751483 40.7349098 224.59654836 33.07421875 213.11328125 C28.04258762 204.11879027 26.26041503 195.49279067 28.6484375 185.20703125 C31.40021954 177.62199102 35.94125933 171.3273066 43.1875 167.5625 C51.00557367 164.0117252 58.44308681 164.30755245 66.48828125 166.96875 C79.87766675 172.46610268 86.8535458 183.57263791 93 196 C99.03766354 190.27811384 102.13122733 183.27338898 103 175 C103.09683249 167.56541698 101.61411706 161.4783663 98 155 C97.66226562 154.37222656 97.32453125 153.74445313 96.9765625 153.09765625 C92.97705291 146.61618149 86.26392104 142.81598026 79 141 C60.52 140.67 42.04 140.34 23 140 C23 181.91 23 223.82 23 267 C12.11 267 1.22 267 -10 267 C-16.435 252.645 -16.435 252.645 -23 238 C-26.3 238.99 -29.6 239.98 -33 241 C-45.17985575 242.35196399 -53.89093596 240.44072078 -63.4375 232.875 C-64.64212891 231.85019531 -64.64212891 231.85019531 -65.87109375 230.8046875 C-68.07135835 228.8694415 -68.07135835 228.8694415 -71 227 C-71.54527344 227.51949219 -72.09054687 228.03898438 -72.65234375 228.57421875 C-81.19985525 236.47884049 -88.36049497 241.10505743 -100.125 241.25 C-101.36507812 241.27578125 -102.60515625 241.3015625 -103.8828125 241.328125 C-108 241 -108 241 -118 238 C-122.29 247.57 -126.58 257.14 -131 267 C-141.89 267 -152.78 267 -164 267 C-161.75008535 260.25025606 -161.75008535 260.25025606 -160.40625 257.28173828 C-160.10348648 256.60904907 -159.80072296 255.93635986 -159.48878479 255.24328613 C-159.16248581 254.52620483 -158.83618683 253.80912354 -158.5 253.0703125 C-158.15174667 252.29860718 -157.80349335 251.52690186 -157.44468689 250.73181152 C-156.29916116 248.19497615 -155.14958294 245.65999906 -154 243.125 C-153.20095129 241.35739559 -152.4022091 239.58965258 -151.60375977 237.82177734 C-149.93115792 234.11894723 -148.2572106 230.41672938 -146.58251953 226.71484375 C-143.99411281 220.99035302 -141.41564653 215.26142125 -138.83984375 209.53125 C-138.42578278 208.61020477 -138.0117218 207.68915955 -137.58511353 206.74020386 C-135.97057707 203.1485033 -134.35624862 199.55670926 -132.74194336 195.96490479 C-131.62915231 193.48943992 -130.51581557 191.01422121 -129.40234375 188.5390625 C-129.07088852 187.8013562 -128.73943329 187.0636499 -128.39793396 186.30358887 C-126.11402514 181.22805028 -126.11402514 181.22805028 -125 179 C-124.89402465 176.98576941 -124.85333553 174.96800271 -124.84178162 172.95101929 C-124.8319928 171.66090439 -124.82220398 170.37078949 -124.81211853 169.0415802 C-124.80621394 167.60372962 -124.80040352 166.16587865 -124.79467773 164.72802734 C-124.78510195 163.22035959 -124.77509205 161.71269455 -124.76467896 160.20503235 C-124.73759127 156.10405915 -124.71660267 152.0030744 -124.69667697 147.90206099 C-124.6748412 143.61922558 -124.64744075 139.33642595 -124.62062073 135.05361938 C-124.5706612 126.93990743 -124.52573449 118.82617566 -124.48259836 110.71242487 C-124.43325382 101.47673861 -124.37832539 92.24108823 -124.32291877 83.00543666 C-124.20904868 64.00365774 -124.10222062 45.00184498 -124 26 C-118.73473145 25.92542654 -113.46977545 25.87119902 -108.20410156 25.83520508 C-106.41563557 25.82018816 -104.62720597 25.79976842 -102.83886719 25.77368164 C-100.25706969 25.73698385 -97.67576221 25.72020255 -95.09375 25.70703125 C-94.30383667 25.69154739 -93.51392334 25.67606354 -92.70007324 25.66011047 C-85.81869458 25.6580593 -80.56990611 27.23633894 -74.8125 31.1875 C-62.71201631 43.28798369 -60.99521512 62.13875755 -58.4375 78.3125 C-56.89979448 95.28462669 -56.89979448 95.28462669 -50 110 C-48.33382885 110.04063832 -46.66611905 110.042721 -45 110 C-41.91156125 104.33786229 -40.13139713 99.32734805 -39 93 C-38.83612793 92.1455127 -38.67225586 91.29102539 -38.50341797 90.41064453 C-37.60097286 85.61742843 -36.80528146 80.81377033 -36.0703125 75.9921875 C-30.35653754 38.70213086 -30.35653754 38.70213086 -18.140625 29.6171875 C-11.95216695 25.83535202 -7.40657154 26 0 26 C0 17.42 0 8.84 0 0 Z M-101 52 C-101 76.09 -101 100.18 -101 125 C-97.50092328 120.83058864 -97.50092328 120.83058864 -96 114 C-89.4 114 -82.8 114 -76 114 C-76.556875 111.64875 -77.11375 109.2975 -77.6875 106.875 C-79.97230329 96.93940799 -81.55870421 86.88880814 -83.07299805 76.81201172 C-84.2946923 69.0400112 -85.63847534 61.17743263 -89 54 C-92.64715023 51.16794971 -92.64715023 51.16794971 -101 52 Z M-5.00390625 53.6015625 C-7.43182646 56.5188678 -8.05311428 58.68258772 -8.9375 62.375 C-9.17835327 63.37768921 -9.17835327 63.37768921 -9.42407227 64.40063477 C-11.12201554 71.84720195 -12.23345741 79.39918692 -13.4375 86.9375 C-19.28454132 123.39189839 -19.28454132 123.39189839 -31.375 132.625 C-32.57072473 133.43558493 -33.77465101 134.23493438 -35 135 C-34.42486289 139.9463699 -32.83044359 144.03095408 -30.7109375 148.484375 C-30.3752626 149.2058522 -30.03958771 149.92732941 -29.69374084 150.67066956 C-28.97009955 152.22471482 -28.24329491 153.77729025 -27.51364136 155.32852173 C-25.57558243 159.45007199 -23.66148084 163.5827205 -21.74609375 167.71484375 C-21.15692924 168.98396858 -21.15692924 168.98396858 -20.55586243 170.2787323 C-16.40537148 179.24107278 -12.4074502 188.2690368 -8.4375 197.3125 C-8.10876892 198.06067993 -7.78003784 198.80885986 -7.44134521 199.57971191 C-5.62356192 203.71806233 -3.80974927 207.8581284 -2 212 C-1.67 212 -1.34 212 -1 212 C-1 159.2 -1 106.4 -1 52 C-3.16715744 51.79189214 -3.16715744 51.79189214 -5.00390625 53.6015625 Z M26 66 C25.18415432 69.05908413 25.18415432 69.05908413 25 72 C28.21217915 74.50951496 29.79264871 75.00329129 33.9375 74.9375 C38.08460309 74.24500461 40.70508103 72.5535622 44 70 C40.54192249 66.15769165 37.63175744 64.25675682 32.4375 63.75 C29.69130471 64.03166106 28.18273998 64.28499002 26 66 Z M53.375 93.8125 C43.92694616 99.51089947 35.90046529 100.58839389 25 101 C25 105.29 25 109.58 25 114 C40.84 114 56.68 114 73 114 C70.93174236 108.82935589 68.39035032 104.41886157 65.5 99.6875 C65.00113281 98.85154297 64.50226563 98.01558594 63.98828125 97.15429688 C63.50746094 96.36474609 63.02664063 95.57519531 62.53125 94.76171875 C62.09361328 94.03944092 61.65597656 93.31716309 61.20507812 92.57299805 C60.80740234 92.05390869 60.40972656 91.53481934 60 91 C57.17295232 91 55.75023097 92.30132364 53.375 93.8125 Z M-74 140 C-80.09404029 151.89764032 -85.68494737 163.97885012 -91.125 176.1875 C-92.2893522 178.79261065 -93.45469933 181.39727111 -94.62103271 184.00149536 C-95.37107387 185.67834575 -96.11904444 187.35612402 -96.86480713 189.03488159 C-98.49843435 192.70320979 -100.15259691 196.35186237 -101.92480469 199.95556641 C-102.76253418 201.67332275 -102.76253418 201.67332275 -103.6171875 203.42578125 C-104.10558105 204.39555908 -104.59397461 205.36533691 -105.09716797 206.36450195 C-106.14825709 209.432784 -106.0712731 210.95976962 -105 214 C-102.54366927 216.31607874 -102.54366927 216.31607874 -100 218 C-99.46632813 217.48050781 -98.93265625 216.96101563 -98.3828125 216.42578125 C-88.95348189 207.60005831 -80.33193296 203.57190854 -67.4453125 203.73046875 C-57.21307876 204.53094962 -50.56374784 209.48050093 -43 216 C-42.01 216.66 -41.02 217.32 -40 218 C-37.03 214.535 -37.03 214.535 -34 211 C-34.32572998 210.30366455 -34.65145996 209.6073291 -34.98706055 208.88989258 C-41.39532104 195.17579037 -47.74600522 181.43848976 -53.9375 167.625 C-54.45594482 166.4697583 -54.97438965 165.3145166 -55.50854492 164.12426758 C-59.08784326 156.11701875 -62.56581143 148.070305 -66 140 C-68.64 140 -71.28 140 -74 140 Z M53 192 C52.67 193.65 52.34 195.3 52 197 C58.86474033 203.67352617 58.86474033 203.67352617 67.8125 206.125 C68.8953125 206.063125 68.8953125 206.063125 70 206 C67.42644894 200.02936154 64.76243104 195.3459277 59 192 C55.70365533 191.49474052 55.70365533 191.49474052 53 192 Z " fill="#FFFFFF" transform="translate(424,164)"/>
</svg>
