<svg id="Layer_1" data-name="Layer 1" xmlns="http://www.w3.org/2000/svg" viewBox="0 0 1080 1080"><path d="M435.88,729.54V715.08c6,0,11.85-.19,17.72.08,3.11.13,4.62-.86,5.95-3.73Q485.4,655.5,511.5,599.7c.34-.72.62-1.46,1.17-2.78H439.29c-11.82,0-18.09-6.31-18.1-18.16V504.08l14.53,5.32v3.38c0,21.93,0,43.87-.06,65.81,0,2.91.82,3.89,3.8,3.89q84.78-.11,169.57,0c3,0,3.81-1,3.8-3.92-.11-21.83,0-43.67-.13-65.5,0-2.87.61-4.31,3.58-5.06,3.61-.92,7.05-2.52,10.94-4v13.59c4.47,0,8.61,0,12.76,0,4.48,0,9.44,1,13.29-.57s6.39-5.81,9.5-8.91c5.41-5.41,10.75-10.9,16.27-16.2a6.87,6.87,0,0,1,4.19-1.76c6.41-.19,12.82-.08,19.45-.08v6.45c-5.64.43-11.21.81-16.77,1.32A4.89,4.89,0,0,0,683,499c-7.75,8.79-15.4,17.67-22.68,27,.78-.63,1.58-1.25,2.34-1.91,7.17-6.22,14.27-12.51,21.53-18.61a7.41,7.41,0,0,1,4.58-1.46c4.57.08,9.13.53,13.93.86v77c-3.78,0-7.68-.44-11.43.1-7.7,1.08-13.23-1.62-18.23-7.51-5.53-6.51-12-12.25-18.08-18.27a4.82,4.82,0,0,0-2.75-1.63c-8.14-.13-16.28-.08-24.71-.08-.06,1.24-.16,2.22-.16,3.2,0,7.14,0,14.28,0,21.42,0,11.19-6.52,17.74-17.66,17.75q-35.05,0-70.1,0h-3.68c.47,1.23.73,2.08,1.1,2.88q26.2,56.25,52.39,112.53c1,2.07,2.06,2.86,4.32,2.81,6.21-.15,12.43,0,18.86,0v14.2c-.8.08-1.67.23-2.54.24-8.67,0-17.35-.08-26,.06-2.12,0-3-.82-3.8-2.59q-27-58.23-54.2-116.41c-.47-1-1-2-1.72-3.5-.66,1.28-1.14,2.11-1.54,3q-27.2,58.33-54.32,116.69c-.95,2-2,2.87-4.3,2.83C454.81,729.46,445.53,729.54,435.88,729.54Z"/><path d="M524.17,394.76c17.86-34.93,55.76-48.07,87.88-38.32,31.33,9.52,53,38.9,52.54,71.18-.51,33.4-22.63,62.23-54.31,70.8-32.88,8.89-68.88-5.37-86-38.76-15.44,27.51-38.52,42.2-70.28,41.16-20.43-.67-37.68-9.21-51.32-24.46a73.61,73.61,0,0,1,9.06-106.94c18.35-14.61,39.37-19.28,62.21-14.21S513.11,374,524.17,394.76Zm66.68-27a59.34,59.34,0,1,0-.05,118.67c32.61.07,59.28-26.68,59.28-59.43A59.56,59.56,0,0,0,590.85,367.79Zm-133.11,0a59.37,59.37,0,0,0-59.34,60c.19,32.46,27.05,58.88,59.67,58.67A59.22,59.22,0,0,0,516.9,427C516.77,394.27,490.12,367.61,457.74,367.8Z"/><path d="M471.88,528h7.2v27.23h-7.2Z"/><path d="M494.38,528.12h7.32v27.12h-7.32Z"/><path d="M621.57,445.42l-12-7.16,3.07-10.88h13.86A33.92,33.92,0,0,1,621.57,445.42Z"/><path d="M604.39,410.08c2.8-3.51,5.69-7.15,8.71-10.95a35.24,35.24,0,0,1,11.1,15.15l-13,5Z"/><path d="M601.56,393l-4.23,13.18H586.09c-1.07-4.55-2.13-9-3.27-13.87A34.16,34.16,0,0,1,601.56,393Z"/><path d="M578.54,409l-7.45,8.62-12.61-6.05a35.57,35.57,0,0,1,12.31-14.2C573.47,401.35,576,405.22,578.54,409Z"/><path d="M585.75,448.53c-1,4.32-2,8.76-3.07,13.44-6.51-1.23-11.68-4.36-16.61-8.71l9.7-10.21Z"/><path d="M595.72,462.57c-.67-4.93-1.28-9.43-1.86-13.72l10.42-4.52L613,455.27A34.05,34.05,0,0,1,595.72,462.57Z"/><path d="M558.45,442.65A35.46,35.46,0,0,1,555,424.24l13.84,1.11c.73,3.83,1.4,7.38,2.12,11.2Z"/><path d="M476.6,438.29c.85-3.41,1.47-6.26,2.34-9.05.25-.81,1.18-2,1.85-2,4-.19,8.09-.1,12.47-.1.48,6.64-1.52,12.43-4.7,18.29Z"/><path d="M462.63,462.59c-.65-4.92-1.24-9.42-1.8-13.72l10.36-4.53L480,455.26A34.18,34.18,0,0,1,462.63,462.59Z"/><path d="M480.05,399.08a36.31,36.31,0,0,1,11.09,15.19l-13.07,5-6.7-9.19Z"/><path d="M422,424.24l13.9,1.1c.68,3.69,1.33,7.23,2,11.19l-12.48,6.11A34.46,34.46,0,0,1,422,424.24Z"/><path d="M453,406.17l-3.18-13.95a35.73,35.73,0,0,1,18.7.74q-2.19,6.85-4.21,13.21Z"/><path d="M433,453.23l9.7-10.17,10,5.44q-1.44,6.31-3.06,13.54A35.06,35.06,0,0,1,433,453.23Z"/><path d="M437.71,397.33,445.48,409,438,417.57l-12.57-6A35.3,35.3,0,0,1,437.71,397.33Z"/></svg>