<svg id="Layer_1" data-name="Layer 1" xmlns="http://www.w3.org/2000/svg" viewBox="0 0 1080 1080"><path d="M499.82,269.34c3.65,2.05,7.6,3.7,10.87,6.23,6.2,4.77,9.28,11.4,9.91,19.21.79,9.58,5,13.32,14.62,13.47,4.72.08,9.59-.14,14.13.9,12.14,2.78,17.74,11.2,17.58,22.05-.18,13-8.25,22.43-22.87,22.62-33.53.44-67.08.2-100.62.09a22.72,22.72,0,0,1-21.27-15.76c-2.93-9.25,0-20,8-25.18,4.13-2.65,9.5-3.56,14.45-4.63,3-.66,6.31-.08,9.47-.13,8-.15,13.32-4.55,13.58-12.41.44-13.67,8-21.32,20.09-25.64.33-.12.54-.54.8-.82Zm-6.19,38.27a11.77,11.77,0,0,0,12.21-11.16c.25-5.44-5.57-11.44-11.25-11.61-6.4-.19-11.94,4.67-11.91,11C482.72,301.88,486.1,307.54,493.63,307.61Z"/><path d="M405.55,324.1c-2.55,13.16,1.3,24.51,10.12,34,5.95,6.39,13.44,11.13,22.44,11.33,25.31.57,50.63.75,75.95.85,11.49.05,23-.29,34.48-.71C568.08,368.85,585,348.67,583,329c-.16-1.55,0-3.12,0-5,1.32-.09,2.56-.25,3.81-.25,13.82,0,27.65-.33,41.46.11,9.08.28,18.06,1.37,26.19,6.57,9,5.78,12.86,14.18,12.94,24.14.28,36.41.1,72.81.11,109.22q0,58.71.09,117.42c0,3.67-.64,4.45-4.73,4.55-9.55.23-19.07,1.74-28.59,2.74-1.4.15-2.78.35-4.5.57v-4.65q0-85.71.1-171.41c0-4.33-1.05-5.56-5.48-5.54q-69.09.28-138.2.18-60.9,0-121.8-.08c-5.92,0-6.08.15-6.09,6.08V712c0,5.55,0,5.55,5.76,5.55q84.45.06,168.9,0c2.75,0,3.56.7,4.11,3.41,2.14,10.57,4.66,21.06,7,31.57.19.8.45,1.58.85,2.94H540q-93.09,0-186.18,0c-17.1,0-28.57-8.16-32.45-24.61a18.92,18.92,0,0,1-.37-4.26q0-186.73-.11-373.46c0-11.48,9.83-27.56,21.62-29.06a21.87,21.87,0,0,1,2.53-.32q29.37,0,58.75,0A10.55,10.55,0,0,1,405.55,324.1Z"/><path d="M759.91,709.32c.27,57-45.14,100.57-99.83,100.27-56.49-.3-99.79-44.38-99.72-100.22s44.69-100.32,101.37-99.66C716.22,610.34,760.37,654.8,759.91,709.32ZM650.59,726.4c-8.31-6.62-16.41-12.94-24.35-19.46-4.33-3.54-8.78-6.51-14.68-5.49-6.68,1.16-11.34,5.34-13,11.58-1.86,7,.74,13.13,6.62,17.76,12.53,9.87,25,19.85,37.48,29.79a15.3,15.3,0,0,0,20.27-1c3.12-3.15,6-6.51,9-9.81q23.91-26.65,47.76-53.35c3.41-3.82,7.21-7.61,9.42-12.11,3.13-6.37-.41-15.21-6.5-19.15A15.58,15.58,0,0,0,703,667.8c-8.82,9.56-17.36,19.39-26,29.1S659.67,716.26,650.59,726.4Z"/><path d="M528.63,469.68H469.49c-7.27,0-9.86-2.52-9.93-9.77,0-2.14.35-4.28.46-6.43.15-3.07,2.22-4.61,4.75-5.31a27.86,27.86,0,0,1,7.23-.88c37.7-.05,75.4.09,113.1-.1,13.61-.07,14.31,5.46,12,18.11-.69,3.82-4.85,4.39-8.48,4.39h-60Z"/><path d="M528.75,517q29.58,0,59.16,0c7.67,0,10,2.3,10.09,10,.19,10-2.29,12.57-12.17,12.57H471.39c-10.35,0-16-9.62-10.57-18.67a9.27,9.27,0,0,1,6.65-3.68c10.92-.39,21.85-.19,32.78-.19Z"/><path d="M509.16,601q-20.07,0-40.16,0c-6.54,0-8.5-1.65-9.27-8.07a28.64,28.64,0,0,1,.14-6.86c.62-4.9,3.32-7.45,8.19-7.47q41-.09,82.06,0c6.56,0,9.26,3,9.31,9.58,0,1.15,0,2.31,0,3.46-.06,6.89-2.42,9.32-9.24,9.33-13.67,0-27.34,0-41,0Z"/><path d="M502,648.47c11.36,0,22.73,0,34.1,0,5,0,7.6,2.59,7.83,7.61,0,.44,0,.87,0,1.3,0,11.76-1,12.83-12.65,12.83q-31.29,0-62.59-.05c-6.2,0-8.71-2.24-9.05-8.33a31.1,31.1,0,0,1,.57-8.12c.8-3.71,3.44-5.33,7.26-5.32,11.51.06,23,0,34.53,0Z"/><path d="M446.82,505.6c-2.78,3.81-4.91,7.24-7.53,10.24-7.4,8.49-15,16.8-22.53,25.17-3.41,3.78-6.83,4.16-10.88,1.07-5.43-4.13-10.79-8.34-16.14-12.57-3.49-2.77-4.23-7.62-1.72-10.63,2.27-2.72,6.57-2.84,10-.19,3.15,2.45,6.34,4.86,9.28,7.54,1.8,1.64,3,1.68,4.61-.14q9.14-10.49,18.39-20.86c1.52-1.72,2.94-3.93,4.89-4.75a10.57,10.57,0,0,1,7.1-.27C444,500.82,445,503.29,446.82,505.6Z"/><path d="M410.6,676.86c-2.74-1.71-5.22-3-7.41-4.68-4.53-3.43-8.94-7-13.35-10.62-3.75-3-4.38-7.66-1.58-10.9,2.59-3,6.36-2.73,10.23.55,2.72,2.31,5.83,4.19,8.34,6.68,2.75,2.74,4.18,1.33,6.11-.89,6.92-7.91,13.88-15.79,21.05-23.47,3.33-3.56,6.79-3.61,9.77-.89,2.42,2.21,2.46,7.25-.16,10.19-7.67,8.65-15.44,17.21-23.17,25.82a37.83,37.83,0,0,1-3.71,4.16A71.43,71.43,0,0,1,410.6,676.86Z"/><path d="M410.1,459.67c7.88-9,15.34-17.65,22.86-26.21,2.44-2.78,5.31-4.31,9.08-2.44,3.47,1.73,4.09,4.78,3.21,8a13.46,13.46,0,0,1-3.18,4.94q-12.63,14.28-25.43,28.43c-3.15,3.48-8,3.54-11.84.4q-7.32-5.93-14.72-11.75c-3.66-2.89-4.72-7.32-2.38-10.45s6.49-3.37,10.37-.52S405.87,456.29,410.1,459.67Z"/><path d="M447.08,570.89c-2.85,4-4.89,7.31-7.44,10.24Q428.5,593.91,417,606.37c-4.12,4.47-6.75,4.57-11.74.83s-10.22-7.77-15.18-11.84c-3.91-3.21-4.65-7.91-2-10.87s7.07-2.6,11,.87c1.18,1,2.51,1.9,3.73,2.89,7.52,6.08,7.44,6,13.71-1.38q8-9.5,16.38-18.69c2.11-2.33,4.72-4.8,8.12-3C443.18,566.3,444.72,568.58,447.08,570.89Z"/></svg>